<svg xmlns="http://www.w3.org/2000/svg" xmlns:xlink="http://www.w3.org/1999/xlink" viewBox="0 0 651.26 147.23"><defs><style>.cls-1{isolation:isolate;}.cls-2{fill:url(#linear-gradient);}.cls-3{fill:url(#linear-gradient-2);}.cls-4{fill:#5c2d1e;}.cls-5{fill:url(#linear-gradient-3);}.cls-6{fill:#fadab2;}.cls-23,.cls-6{mix-blend-mode:multiply;}.cls-7{fill:url(#linear-gradient-4);}.cls-8{fill:url(#linear-gradient-5);}.cls-9{fill:url(#linear-gradient-6);}.cls-10{fill:#fdf3c8;}.cls-11{fill:#ad020d;}.cls-12{fill:url(#linear-gradient-7);}.cls-13{fill:url(#linear-gradient-8);}.cls-14{fill:url(#linear-gradient-9);}.cls-15{fill:url(#linear-gradient-10);}.cls-16{fill:url(#linear-gradient-11);}.cls-17{fill:url(#linear-gradient-12);}.cls-18{fill:url(#linear-gradient-13);}.cls-19{fill:url(#linear-gradient-14);}.cls-20{fill:url(#linear-gradient-15);}.cls-21{fill:url(#linear-gradient-16);}.cls-22{fill:url(#linear-gradient-17);}.cls-23{fill:#ee4230;}.cls-24{fill:#ff5f1a;}.cls-25{fill:url(#linear-gradient-18);}.cls-26{fill:url(#linear-gradient-19);}.cls-27{fill:url(#linear-gradient-20);}.cls-28{fill:url(#linear-gradient-21);}.cls-29{fill:url(#linear-gradient-22);}.cls-30{fill:url(#linear-gradient-23);}.cls-31{fill:url(#linear-gradient-24);}.cls-32{fill:url(#linear-gradient-25);}.cls-33{fill:url(#linear-gradient-26);}.cls-34{fill:url(#linear-gradient-27);}.cls-35{fill:url(#linear-gradient-28);}.cls-36{fill:url(#linear-gradient-29);}.cls-37{fill:url(#linear-gradient-30);}.cls-38{fill:url(#linear-gradient-31);}.cls-39{fill:url(#linear-gradient-32);}.cls-40{font-size:74px;font-family:Pacifico-Regular, Pacifico;}.cls-41{letter-spacing:-0.01em;}.cls-42{letter-spacing:-0.01em;}</style><linearGradient id="linear-gradient" x1="33.49" y1="78.43" x2="33.49" gradientUnits="userSpaceOnUse"><stop offset="0" stop-color="#db8935"/><stop offset="0.13" stop-color="#e59640"/><stop offset="0.35" stop-color="#f1a54d"/><stop offset="0.61" stop-color="#f8ae55"/><stop offset="1" stop-color="#fab157"/></linearGradient><linearGradient id="linear-gradient-2" x1="36.88" y1="76.5" x2="36.88" y2="7.14" gradientUnits="userSpaceOnUse"><stop offset="0.3" stop-color="#ffad4f"/><stop offset="1" stop-color="#faa843"/></linearGradient><linearGradient id="linear-gradient-3" x1="34.24" y1="26.76" x2="34.24" y2="3.58" xlink:href="#linear-gradient"/><linearGradient id="linear-gradient-4" x1="42.4" y1="35.96" x2="42.4" y2="22.32" gradientUnits="userSpaceOnUse"><stop offset="0" stop-color="#51740c"/><stop offset="0.19" stop-color="#5b7f13"/><stop offset="0.53" stop-color="#759d27"/><stop offset="0.98" stop-color="#a0cc46"/><stop offset="1" stop-color="#a2cf48"/></linearGradient><linearGradient id="linear-gradient-5" x1="48.81" y1="59.44" x2="48.81" y2="45.8" xlink:href="#linear-gradient-4"/><linearGradient id="linear-gradient-6" x1="31.89" y1="41.45" x2="31.89" y2="25.61" gradientUnits="userSpaceOnUse"><stop offset="0" stop-color="#c70000"/><stop offset="0.11" stop-color="#cd0502"/><stop offset="0.67" stop-color="#e61c0b"/><stop offset="1" stop-color="#f0250e"/></linearGradient><linearGradient id="linear-gradient-7" x1="54.46" y1="65.33" x2="54.46" y2="48.35" xlink:href="#linear-gradient-6"/><linearGradient id="linear-gradient-8" x1="23.3" y1="35.67" x2="23.3" y2="25.61" xlink:href="#linear-gradient-4"/><linearGradient id="linear-gradient-9" x1="63.17" y1="147.23" x2="63.17" y2="21.94" gradientUnits="userSpaceOnUse"><stop offset="0" stop-color="#c46d1d"/><stop offset="0.05" stop-color="#c77120"/><stop offset="0.68" stop-color="#ec9f48"/><stop offset="1" stop-color="#fab157"/></linearGradient><linearGradient id="linear-gradient-10" x1="62.67" y1="137.11" x2="62.67" y2="29.46" gradientUnits="userSpaceOnUse"><stop offset="0" stop-color="#faa843"/><stop offset="0.98" stop-color="#ffad4f"/></linearGradient><linearGradient id="linear-gradient-11" x1="62.49" y1="143.1" x2="62.49" y2="26.85" xlink:href="#linear-gradient-9"/><linearGradient id="linear-gradient-12" x1="50.55" y1="132.51" x2="50.55" y2="120.13" gradientUnits="userSpaceOnUse"><stop offset="0" stop-color="#330600"/><stop offset="1" stop-color="#6b1c0a"/></linearGradient><linearGradient id="linear-gradient-13" x1="72.85" y1="49.09" x2="72.85" y2="38.86" xlink:href="#linear-gradient-12"/><linearGradient id="linear-gradient-14" x1="72.47" y1="98.83" x2="72.47" y2="92.14" xlink:href="#linear-gradient-12"/><linearGradient id="linear-gradient-15" x1="83.7" y1="63.05" x2="83.7" y2="51.07" xlink:href="#linear-gradient-4"/><linearGradient id="linear-gradient-16" x1="25.55" y1="111.12" x2="25.55" y2="104.25" xlink:href="#linear-gradient-12"/><linearGradient id="linear-gradient-17" x1="96.94" y1="70.68" x2="96.94" y2="54.38" xlink:href="#linear-gradient-6"/><linearGradient id="linear-gradient-18" x1="-941.3" y1="-674.5" x2="-941.3" y2="-690.8" gradientTransform="matrix(0.31, 0.95, -0.95, 0.31, -327.8, 1172.39)" xlink:href="#linear-gradient-6"/><linearGradient id="linear-gradient-19" x1="-1339.51" y1="1375.55" x2="-1339.51" y2="1359.44" gradientTransform="translate(-1816.69 -42.7) rotate(-129.65)" xlink:href="#linear-gradient-6"/><linearGradient id="linear-gradient-20" x1="-1703.51" y1="1035.76" x2="-1703.51" y2="1017.63" gradientTransform="translate(-1922.23 416.43) rotate(-158.04)" xlink:href="#linear-gradient-6"/><linearGradient id="linear-gradient-21" x1="73.92" y1="125.94" x2="73.92" y2="111.35" xlink:href="#linear-gradient-4"/><linearGradient id="linear-gradient-22" x1="93.41" y1="100.93" x2="93.41" y2="90.03" xlink:href="#linear-gradient-4"/><linearGradient id="linear-gradient-23" x1="31.24" y1="95.82" x2="31.24" y2="84.93" xlink:href="#linear-gradient-4"/><linearGradient id="linear-gradient-24" x1="106.5" y1="94.57" x2="106.5" y2="82.2" xlink:href="#linear-gradient-12"/><linearGradient id="linear-gradient-25" x1="28.4" y1="77.58" x2="28.4" y2="68.23" xlink:href="#linear-gradient-12"/><linearGradient id="linear-gradient-26" x1="54.92" y1="951" x2="54.92" y2="932.54" gradientTransform="matrix(0.7, -0.71, 0.71, 0.7, -658, -600.84)" xlink:href="#linear-gradient-6"/><linearGradient id="linear-gradient-27" x1="84.55" y1="101.9" x2="84.55" y2="82.1" xlink:href="#linear-gradient-6"/><linearGradient id="linear-gradient-28" x1="18.76" y1="101.82" x2="18.76" y2="82.02" xlink:href="#linear-gradient-6"/><linearGradient id="linear-gradient-29" x1="-1203.74" y1="-592.25" x2="-1203.74" y2="-609.23" gradientTransform="matrix(0.03, 1, -1, 0.03, -503.93, 1349.05)" xlink:href="#linear-gradient-6"/><linearGradient id="linear-gradient-30" x1="47.18" y1="124.23" x2="47.18" y2="110.6" xlink:href="#linear-gradient-4"/><linearGradient id="linear-gradient-31" x1="-917.69" y1="-656.07" x2="-930.49" y2="-660.14" gradientTransform="translate(-292.3 1171.58) rotate(72.39)" xlink:href="#linear-gradient-4"/><linearGradient id="linear-gradient-32" x1="-389.44" y1="-544.94" x2="-389.44" y2="-558.58" gradientTransform="matrix(0.75, 0.66, -0.66, 0.75, 32.61, 742.8)" xlink:href="#linear-gradient-4"/></defs><g class="cls-1"><g id="Capa_2" data-name="Capa 2"><g id="Layer_1" data-name="Layer 1"><path class="cls-2" d="M58.26,77.52c1.58,1.58,2.87,1,2.87-1.19V3.27a3.11,3.11,0,0,0-4-3.17,86.41,86.41,0,0,0-27,6.41A83.46,83.46,0,0,0,7.41,21a3.25,3.25,0,0,0-.5,5.16Z"/><path class="cls-3" d="M59.31,76.5a2.14,2.14,0,0,1-.67-.52L14.93,29.23a2.12,2.12,0,0,1-.61-1.64,2.08,2.08,0,0,1,.89-1.49l.06-.05.06-.05A70.54,70.54,0,0,1,34.45,13,68.83,68.83,0,0,1,57.07,7.23h.09l.08,0a2.35,2.35,0,0,1,.51-.06,1.74,1.74,0,0,1,1.7,2V75.62A2.08,2.08,0,0,1,59.31,76.5Z"/><path class="cls-4" d="M33.78,48.75h0a2.91,2.91,0,0,1,4,4.19h0l1.63,1.69h0a5.26,5.26,0,1,0-7.29-7.58h0Z"/><path class="cls-5" d="M16.17,19.86s-5.78.79-6.15,3.9c-.52,4.33,6,3.59,8.39.19s4.11-4.43,7.16-5.45a30.3,30.3,0,0,0,8.35-4.76C36.11,12,43.5,10.33,45.25,10s14.11-.51,13.19-3.91S54.15,3.52,51.25,4.2,41.05,6.25,37.39,7.27,28,8.83,25.57,12,17,16.8,16.17,19.86Z"/><path class="cls-6" d="M16.17,19.86s-5.78.79-6.15,3.9c-.52,4.33,6,3.59,8.39.19s4.11-4.43,7.16-5.45a30.3,30.3,0,0,0,8.35-4.76C36.11,12,43.5,10.33,45.25,10s14.11-.51,13.19-3.91S54.15,3.52,51.25,4.2,41.05,6.25,37.39,7.27,28,8.83,25.57,12,17,16.8,16.17,19.86Z"/><path class="cls-6" d="M16.17,19.86s-5.78.79-6.15,3.9c-.52,4.33,6,3.59,8.39.19s4.11-4.43,7.16-5.45a30.3,30.3,0,0,0,8.35-4.76C36.11,12,43.5,10.33,45.25,10s14.11-.51,13.19-3.91S54.15,3.52,51.25,4.2,41.05,6.25,37.39,7.27,28,8.83,25.57,12,17,16.8,16.17,19.86Z"/><path class="cls-4" d="M36.68,17.05A5.27,5.27,0,1,0,42,22.32,5.27,5.27,0,0,0,36.68,17.05Zm0,8.18a2.91,2.91,0,1,1,2.91-2.91A2.91,2.91,0,0,1,36.68,25.23Z"/><path class="cls-4" d="M54.83,36.89a4.32,4.32,0,1,0,4.31,4.32A4.31,4.31,0,0,0,54.83,36.89Zm0,6.7a2.39,2.39,0,1,1,2.38-2.38A2.39,2.39,0,0,1,54.83,43.59Z"/><path class="cls-7" d="M48.82,29.1A4.82,4.82,0,0,0,41,23.79l-.1-.05a3.77,3.77,0,0,0-3.07,6.89l.17.07a4.63,4.63,0,0,0,8.82,2.51,4.53,4.53,0,0,0,.4-2.12A4.74,4.74,0,0,0,48.82,29.1ZM45.5,30.86a3.23,3.23,0,0,1-.26,1.38,3,3,0,0,1-5.75-1.63l.12-.88-.9-.35a2.25,2.25,0,1,1,1.8-4.12l.06,0,.73.36.56-.59A3.18,3.18,0,1,1,46,29.88l-.51.36Z"/><path class="cls-8" d="M55.24,52.59a4.82,4.82,0,0,0-7.86-5.32l-.1-.05a3.77,3.77,0,1,0-3.07,6.89l.17.07A4.63,4.63,0,0,0,53.2,56.7a4.56,4.56,0,0,0,.39-2.13A4.72,4.72,0,0,0,55.24,52.59Zm-3.33,1.76a3.11,3.11,0,0,1-.25,1.38,3,3,0,0,1-5.75-1.64l.12-.88-.9-.35a2.25,2.25,0,1,1,1.8-4.12l.06,0,.73.36.56-.59a3.19,3.19,0,0,1,5.2,3.52,3.13,3.13,0,0,1-1.09,1.3l-.51.36Z"/><path class="cls-9" d="M39.3,33.53a7.68,7.68,0,0,1-7.41,7.92,7.68,7.68,0,0,1-7.42-7.92,7.68,7.68,0,0,1,7.42-7.92A7.68,7.68,0,0,1,39.3,33.53Z"/><path class="cls-10" d="M31.14,32.12a.85.85,0,1,1,.22,1.68.89.89,0,0,1-1-.72A.88.88,0,0,1,31.14,32.12Z"/><path class="cls-10" d="M27.83,29.76a.85.85,0,1,1-.39,1.17A.87.87,0,0,1,27.83,29.76Z"/><path class="cls-10" d="M36.69,31.18a.85.85,0,1,1,.8,1.5.85.85,0,1,1-.8-1.5Z"/><path class="cls-10" d="M37.17,34.93a.85.85,0,1,1-.39,1.18A.88.88,0,0,1,37.17,34.93Z"/><path class="cls-10" d="M32.94,36.93a.85.85,0,1,1,.8,1.5.85.85,0,1,1-.8-1.5Z"/><path class="cls-10" d="M34.21,28.06a.89.89,0,0,1,1.2.32.87.87,0,0,1-.4,1.17.86.86,0,0,1-1.19-.31A.88.88,0,0,1,34.21,28.06Z"/><path class="cls-10" d="M30.45,28.49a.6.6,0,0,1,.82.22.61.61,0,0,1-.27.81.58.58,0,1,1-.55-1Z"/><path class="cls-10" d="M28.69,37.74a.58.58,0,1,1,.54,1,.58.58,0,1,1-.54-1Z"/><path class="cls-10" d="M26,33.69a.58.58,0,1,1-.27.8A.6.6,0,0,1,26,33.69Z"/><path class="cls-10" d="M35,33.37a.58.58,0,1,1,.55,1,.58.58,0,1,1-.55-1Z"/><path class="cls-10" d="M29.2,34.71a.58.58,0,1,1,.55,1,.6.6,0,0,1-.82-.21A.59.59,0,0,1,29.2,34.71Z"/><path class="cls-11" d="M33.47,32.91a.94.94,0,1,1-.94-1A1,1,0,0,1,33.47,32.91Z"/><path class="cls-11" d="M36.53,29.62A.94.94,0,1,1,35.3,29,1,1,0,0,1,36.53,29.62Z"/><path class="cls-11" d="M33.7,39.13a.94.94,0,1,1-1.23-.6A1,1,0,0,1,33.7,39.13Z"/><path class="cls-11" d="M29.52,39.13A1,1,0,0,1,29,40.39a1,1,0,1,1,.52-1.26Z"/><path class="cls-11" d="M27.93,34.19a1,1,0,0,1-.52,1.27,1,1,0,0,1-.71-1.87A1,1,0,0,1,27.93,34.19Z"/><path class="cls-11" d="M37.48,36.86a.94.94,0,1,1-1.24-.6A1,1,0,0,1,37.48,36.86Z"/><path class="cls-11" d="M37.54,32.68a.66.66,0,0,1-.35.86.66.66,0,0,1-.85-.4.67.67,0,0,1,.36-.87A.66.66,0,0,1,37.54,32.68Z"/><path class="cls-11" d="M27.65,29.41a.67.67,0,0,1-.36.88.68.68,0,0,1-.84-.42.64.64,0,1,1,1.2-.46Z"/><path class="cls-11" d="M32.48,27a.66.66,0,0,1-.35.87.67.67,0,0,1-.84-.41.66.66,0,0,1,.35-.87A.65.65,0,0,1,32.48,27Z"/><path class="cls-11" d="M31.54,37a.65.65,0,0,1-.35.86.68.68,0,0,1-.49-1.27A.65.65,0,0,1,31.54,37Z"/><path class="cls-11" d="M30.9,30.41a.64.64,0,1,1-1.2.45.64.64,0,1,1,1.2-.45Z"/><path class="cls-12" d="M59.4,62.09a.91.91,0,1,1-.86-1.6,1,1,0,0,1,.91,0V52.12a.85.85,0,0,1,0-.61V48.64a7.22,7.22,0,0,0-2-.29,8.51,8.51,0,0,0,0,17,7.6,7.6,0,0,0,2-.29v-3ZM57.16,49.42a.72.72,0,0,1,.9.44.72.72,0,0,1-.38.93.71.71,0,0,1-.91-.44A.72.72,0,0,1,57.16,49.42Zm-1.28,2a.65.65,0,0,1,.88.24.64.64,0,0,1-.29.86.65.65,0,0,1-.88-.23A.66.66,0,0,1,55.88,51.44ZM52,52a.73.73,0,0,1,.9,1,1.49,1.49,0,0,1,.2-.15.91.91,0,1,1,.86,1.6,1,1,0,0,1-1.29-.34.87.87,0,0,1,0-.8.49.49,0,0,1-.15.1A.73.73,0,0,1,52,52Zm-.68,6.28s0-.06,0-.09a.61.61,0,0,1-.49-.31.65.65,0,0,1,.29-.86.68.68,0,0,1,.62,0,.62.62,0,0,1,.16-.1,1.07,1.07,0,1,1-.56,1.36Zm3,5.93a1.07,1.07,0,0,1-.77-2,.5.5,0,0,1,.12,0,.66.66,0,0,1,.31-.83.62.62,0,1,1,.61,1.08,1,1,0,0,1,.28.41A1,1,0,0,1,54.33,64.2Zm.79-5a.62.62,0,1,1,.29-.86A.64.64,0,0,1,55.12,59.2Zm0-5.21a.71.71,0,0,1,.39-.93A.73.73,0,0,1,56,54.42.72.72,0,0,1,55.07,54Zm1.6,7.46a.73.73,0,0,1-.52-1.37.72.72,0,0,1,.9.44A.7.7,0,0,1,56.67,61.45Zm.19-4.32a.91.91,0,1,1-.24-1.8,1,1,0,0,1,.72.18,1,1,0,0,1,.77-.4,1.08,1.08,0,0,1,0,2.15,1,1,0,0,1-.74-.37A1,1,0,0,1,56.86,57.13Zm2,7.07a1,1,0,0,1-1.33-.64,1,1,0,1,1,1.33.64Z"/><path class="cls-10" d="M57.34,55.51a1,1,0,0,0-.72-.18.91.91,0,1,0,.24,1.8,1,1,0,0,0,.51-.24,1.11,1.11,0,0,1-.26-.71A1.13,1.13,0,0,1,57.34,55.51Z"/><path class="cls-10" d="M52.65,53.26a.87.87,0,0,0,0,.8,1,1,0,0,0,1.29.34.91.91,0,1,0-.86-1.6,1.49,1.49,0,0,0-.2.15A.59.59,0,0,1,52.65,53.26Z"/><path class="cls-10" d="M58.54,60.49a.91.91,0,1,0,.86,1.6l.05,0V60.49A1,1,0,0,0,58.54,60.49Z"/><path class="cls-10" d="M59.45,52.12v-.61A.85.85,0,0,0,59.45,52.12Z"/><path class="cls-10" d="M56.47,52.54a.64.64,0,0,0,.29-.86.65.65,0,0,0-.88-.24.66.66,0,0,0-.29.87A.65.65,0,0,0,56.47,52.54Z"/><path class="cls-10" d="M54.6,62.43A.62.62,0,1,0,54,61.35a.66.66,0,0,0-.31.83A1,1,0,0,1,54.6,62.43Z"/><path class="cls-10" d="M51.7,57a.68.68,0,0,0-.62,0,.65.65,0,0,0-.29.86.61.61,0,0,0,.49.31A1,1,0,0,1,51.7,57Z"/><path class="cls-10" d="M54.53,58.11a.62.62,0,1,0,.59,1.09.64.64,0,0,0,.29-.86A.65.65,0,0,0,54.53,58.11Z"/><path class="cls-11" d="M58.11,57.26a1.08,1.08,0,0,0,0-2.15,1,1,0,0,0-.77.4.88.88,0,0,1,.36.59.89.89,0,0,1-.33.79A1,1,0,0,0,58.11,57.26Z"/><path class="cls-11" d="M57.7,56.1a.88.88,0,0,0-.36-.59,1.13,1.13,0,0,0-.23.67,1.11,1.11,0,0,0,.26.71A.89.89,0,0,0,57.7,56.1Z"/><path class="cls-11" d="M59.36,62.84a1,1,0,1,0-1.88.72,1,1,0,1,0,1.88-.72Z"/><path class="cls-11" d="M54.6,62.43s0,0,0,0a.64.64,0,0,1-.88-.24l0,0a.5.5,0,0,0-.12,0,1.07,1.07,0,0,0,.77,2,1,1,0,0,0,.55-1.36A1,1,0,0,0,54.6,62.43Z"/><path class="cls-11" d="M54.58,62.45s0,0,0,0a1,1,0,0,0-.92-.25l0,0A.64.64,0,0,0,54.58,62.45Z"/><path class="cls-11" d="M53.18,57.55a1,1,0,0,0-1.32-.64.62.62,0,0,0-.16.1.6.6,0,0,1,.26.24.65.65,0,0,1-.29.86.77.77,0,0,1-.39.07s0,.06,0,.09a1,1,0,1,0,1.88-.72Z"/><path class="cls-11" d="M51.67,58.11a.65.65,0,0,0,.29-.86A.6.6,0,0,0,51.7,57a1,1,0,0,0-.42,1.17A.77.77,0,0,0,51.67,58.11Z"/><path class="cls-11" d="M52.5,53.36a.49.49,0,0,0,.15-.1,1,1,0,0,1,.23-.31.67.67,0,1,0-.38.41Z"/><path class="cls-11" d="M52.65,53.26a.59.59,0,0,0,.23-.31A1,1,0,0,0,52.65,53.26Z"/><path class="cls-11" d="M57.68,50.79a.72.72,0,0,0,.38-.93.72.72,0,0,0-.9-.44.72.72,0,0,0-.39.93A.71.71,0,0,0,57.68,50.79Z"/><path class="cls-11" d="M56.15,60.08a.73.73,0,1,0,.9.44A.72.72,0,0,0,56.15,60.08Z"/><path class="cls-11" d="M56.36,53.5a.7.7,0,0,0-.9-.44A.73.73,0,0,0,56,54.42.7.7,0,0,0,56.36,53.5Z"/><path class="cls-13" d="M28,30.61a3.55,3.55,0,0,0-5.79-3.92s-.05,0-.08,0a2.78,2.78,0,1,0-2.26,5.08l.13,0a3.41,3.41,0,0,0,6.5,1.86,3.62,3.62,0,0,0,.29-1.57A3.56,3.56,0,0,0,28,30.61Zm-2.46,1.3a2.12,2.12,0,0,1-.18,1,2.23,2.23,0,0,1-4.24-1.21l.09-.65-.66-.26a1.65,1.65,0,1,1,1.32-3l0,0,.54.26.42-.43a2.35,2.35,0,1,1,3,3.56l-.38.26Z"/><path class="cls-14" d="M66.27,22.19A1.83,1.83,0,0,0,63.48,24V82c0,1.68-.38,2.91-.84,2.72a16.3,16.3,0,0,1-3-2.49L19.86,42.42A2.41,2.41,0,0,0,16,42.8S0,55.71,0,84.07a63.16,63.16,0,0,0,63.16,63.16c34.88,0,62.15-28.3,63.15-63.16C127.9,28.69,66.27,22.19,66.27,22.19Z"/><path class="cls-6" d="M125.46,71.24a66.42,66.42,0,0,1,.35,9.27c-1,34.86-28.27,63.16-63.15,63.16A63.17,63.17,0,0,1,.38,91a63.16,63.16,0,0,0,62.78,56.25c34.88,0,62.15-28.3,63.15-63.16A65.59,65.59,0,0,0,125.46,71.24Z"/><path class="cls-15" d="M25,50.58,60.31,86.67s6.13,4.39,6-2.09-.11-55.12-.11-55.12,54.31,6.46,49.3,63.15C111,143.1,44.43,147.47,23.59,121.53S6.7,62.36,25,50.58Z"/><path class="cls-16" d="M119.36,85c-.15-1.68-.3-3.69-.33-4.47s-.25-4-.55-5.7c0,0-4.34-23.94-13.91-32.56-1.06-1-2.13-1.9-3.21-2.78C90,30.3,69.16,26.89,69.16,26.89a2.49,2.49,0,0,0-3,2.57l.06,4a3.84,3.84,0,0,0,3.06,3.58l13.08.9a16.26,16.26,0,0,1,5.4,1.22l1.12.65a50.74,50.74,0,0,1,22.56,26.92l.47,1.3a24.33,24.33,0,0,1,.76,5.75L109.83,103a21,21,0,0,1-1.48,5.38l-.65,1.13a51.25,51.25,0,0,1-12.8,14.78l-1,.81a18.24,18.24,0,0,1-5.2,2.15l-29.11,6.63a17,17,0,0,1-5.58.34l-1.28-.28a51.21,51.21,0,0,1-7.54-2.27l-1.22-.46a19.43,19.43,0,0,1-4.54-3.24L17.51,103.67a18,18,0,0,1-2.86-5l-.37-1.36c-.39-1.43-.71-2.87-1-4.3l-.25-1.44a16.12,16.12,0,0,1,.6-5.78l8.17-29.5a19.12,19.12,0,0,1,1.71-3.86c.4-.53,1.48-1.88,1.46-1.88s-.73-.7-1.56-1.53a2.61,2.61,0,0,0-3.37,0c-1,.82-5.73,3.7-6.4,4.85L13.16,55C7.53,67.09,5.34,91.46,5.34,91.46a23.72,23.72,0,0,0,.14,5.28l.27,1.1a58.57,58.57,0,0,0,7.89,18.37l.75,1.16a14.45,14.45,0,0,0,4.45,3.4L35.5,134.36l4.32,4.32,3.42.86c1.58.59,4.09,1.4,5.59,1.82l1.38.31a59.41,59.41,0,0,0,12.95,1.43c1.39,0,2.78,0,4.16-.15l1.38-.1a27.11,27.11,0,0,0,5.56-1.63L103,126a16,16,0,0,0,4.58-3.11l.83-1a58.87,58.87,0,0,0,9.87-16.82l.48-1.3a32.07,32.07,0,0,0,.92-5.76Z"/><path class="cls-6" d="M119.36,85c-.15-1.68-.3-3.69-.33-4.47s-.25-4-.55-5.7c0,0-4.34-23.94-13.91-32.56-1.06-1-2.13-1.9-3.21-2.78C90,30.3,69.16,26.89,69.16,26.89a2.49,2.49,0,0,0-3,2.57l.06,4a3.84,3.84,0,0,0,3.06,3.58l13.08.9a16.26,16.26,0,0,1,5.4,1.22l1.12.65a50.74,50.74,0,0,1,22.56,26.92l.47,1.3a24.33,24.33,0,0,1,.76,5.75L109.83,103a21,21,0,0,1-1.48,5.38l-.65,1.13a51.25,51.25,0,0,1-12.8,14.78l-1,.81a18.24,18.24,0,0,1-5.2,2.15l-29.11,6.63a17,17,0,0,1-5.58.34l-1.28-.28a51.21,51.21,0,0,1-7.54-2.27l-1.22-.46a19.43,19.43,0,0,1-4.54-3.24L17.51,103.67a18,18,0,0,1-2.86-5l-.37-1.36c-.39-1.43-.71-2.87-1-4.3l-.25-1.44a16.12,16.12,0,0,1,.6-5.78l8.17-29.5a19.12,19.12,0,0,1,1.71-3.86c.4-.53,1.48-1.88,1.46-1.88s-.73-.7-1.56-1.53a2.61,2.61,0,0,0-3.37,0c-1,.82-5.73,3.7-6.4,4.85L13.16,55C7.53,67.09,5.34,91.46,5.34,91.46a23.72,23.72,0,0,0,.14,5.28l.27,1.1a58.57,58.57,0,0,0,7.89,18.37l.75,1.16a14.45,14.45,0,0,0,4.45,3.4L35.5,134.36l4.32,4.32,3.42.86c1.58.59,4.09,1.4,5.59,1.82l1.38.31a59.41,59.41,0,0,0,12.95,1.43c1.39,0,2.78,0,4.16-.15l1.38-.1a27.11,27.11,0,0,0,5.56-1.63L103,126a16,16,0,0,0,4.58-3.11l.83-1a58.87,58.87,0,0,0,9.87-16.82l.48-1.3a32.07,32.07,0,0,0,.92-5.76Z"/><path class="cls-6" d="M119.36,85c-.15-1.68-.3-3.69-.33-4.47s-.25-4-.55-5.7c0,0-4.34-23.94-13.91-32.56-1.06-1-2.13-1.9-3.21-2.78C90,30.3,69.16,26.89,69.16,26.89a2.49,2.49,0,0,0-3,2.57l.06,4a3.84,3.84,0,0,0,3.06,3.58l13.08.9a16.26,16.26,0,0,1,5.4,1.22l1.12.65a50.74,50.74,0,0,1,22.56,26.92l.47,1.3a24.33,24.33,0,0,1,.76,5.75L109.83,103a21,21,0,0,1-1.48,5.38l-.65,1.13a51.25,51.25,0,0,1-12.8,14.78l-1,.81a18.24,18.24,0,0,1-5.2,2.15l-29.11,6.63a17,17,0,0,1-5.58.34l-1.28-.28a51.21,51.21,0,0,1-7.54-2.27l-1.22-.46a19.43,19.43,0,0,1-4.54-3.24L17.51,103.67a18,18,0,0,1-2.86-5l-.37-1.36c-.39-1.43-.71-2.87-1-4.3l-.25-1.44a16.12,16.12,0,0,1,.6-5.78l8.17-29.5a19.12,19.12,0,0,1,1.71-3.86c.4-.53,1.48-1.88,1.46-1.88s-.73-.7-1.56-1.53a2.61,2.61,0,0,0-3.37,0c-1,.82-5.73,3.7-6.4,4.85L13.16,55C7.53,67.09,5.34,91.46,5.34,91.46a23.72,23.72,0,0,0,.14,5.28l.27,1.1a58.57,58.57,0,0,0,7.89,18.37l.75,1.16a14.45,14.45,0,0,0,4.45,3.4L35.5,134.36l4.32,4.32,3.42.86c1.58.59,4.09,1.4,5.59,1.82l1.38.31a59.41,59.41,0,0,0,12.95,1.43c1.39,0,2.78,0,4.16-.15l1.38-.1a27.11,27.11,0,0,0,5.56-1.63L103,126a16,16,0,0,0,4.58-3.11l.83-1a58.87,58.87,0,0,0,9.87-16.82l.48-1.3a32.07,32.07,0,0,0,.92-5.76Z"/><path class="cls-17" d="M50.55,120.13a6.19,6.19,0,1,0,6.18,6.19A6.19,6.19,0,0,0,50.55,120.13Zm0,9.61A3.42,3.42,0,1,1,54,126.32,3.42,3.42,0,0,1,50.55,129.74Z"/><path class="cls-18" d="M72.85,38.86A5.12,5.12,0,1,0,78,44,5.11,5.11,0,0,0,72.85,38.86Zm0,7.94A2.82,2.82,0,1,1,75.67,44,2.83,2.83,0,0,1,72.85,46.8Z"/><path class="cls-19" d="M69.05,98.05h0a3.42,3.42,0,1,1,6.81.55h0l2.76.23h0a6.19,6.19,0,1,0-12.33-1h0Z"/><path class="cls-20" d="M79.36,60.38a4.15,4.15,0,0,0,2.3-.3,4,4,0,0,0,2,2.21c2.77,1.44,6.43.83,7.86-1.93L89.34,59.2h0c-.8,1.52-1.85,2.39-3.38,1.59a3.13,3.13,0,0,1-1.64-3.15,3,3,0,0,0,.12-.36,4.76,4.76,0,0,1,.2-.69l-.12-.06a20,20,0,0,1,1.74-4.78l-2.08-.68L82.4,55.42A8.47,8.47,0,0,0,81.5,58a2.3,2.3,0,0,1-3.77-2.12h0l-1.85-.29A4.19,4.19,0,0,0,79.36,60.38Z"/><path class="cls-21" d="M29,105.31h0a3.42,3.42,0,1,1-6.79-.75h0l-2.76-.31h0a6.19,6.19,0,1,0,12.3,1.37h0Z"/><path class="cls-22" d="M107,59.77A10.77,10.77,0,0,0,88.31,70.54s.1.32.71,0,17.66-10.22,17.66-10.22S107.16,60.09,107,59.77Z"/><path class="cls-23" d="M89.46,67.36a5.39,5.39,0,0,1-.71-3.68c1-5.26,5.89-8.52,12-7a6.9,6.9,0,0,1,3.38,2.48h0c.47.82-.63,1.84-1.79,1.58-5.28-1.17-9.25,1-11,6.09-.38,1.1-1.48,1.31-2,.49Z"/><path class="cls-23" d="M89.46,67.36a5.39,5.39,0,0,1-.71-3.68c1-5.26,5.89-8.52,12-7a6.9,6.9,0,0,1,3.38,2.48h0c.47.82-.63,1.84-1.79,1.58-5.28-1.17-9.25,1-11,6.09-.38,1.1-1.48,1.31-2,.49Z"/><path class="cls-24" d="M95.25,60.58c.29-2.43-1.14-2-1.14-2S93,59.61,95.25,60.58Z"/><path class="cls-24" d="M93.72,61.41C93.26,59,92,59.86,92,59.86S91.28,61.16,93.72,61.41Z"/><path class="cls-24" d="M92.12,63.05c.11-2.44-1.28-1.89-1.28-1.89S89.81,62.25,92.12,63.05Z"/><path class="cls-24" d="M91.36,64.39c-.83-1.87-1.66-1-1.66-1S89.33,64.64,91.36,64.39Z"/><path class="cls-24" d="M90.71,66.73c-.09-1.7-1-1.22-1-1.22S89.06,66.33,90.71,66.73Z"/><path class="cls-24" d="M96.73,59.66c-1.85-1.6-.49-2.23-.49-2.23S97.74,57.43,96.73,59.66Z"/><path class="cls-24" d="M99.16,59.45c-2.17-1.12-1-2.06-1-2.06S99.62,57.05,99.16,59.45Z"/><path class="cls-24" d="M100.35,59.66c-1.21-1.64,0-1.91,0-1.91S101.58,58,100.35,59.66Z"/><path class="cls-24" d="M102.46,60c-1.43-.93-.56-1.5-.56-1.5S102.94,58.32,102.46,60Z"/><path class="cls-25" d="M31.72,73.34A10.77,10.77,0,0,0,15.65,59s-.28.2.22.67S31.1,73.24,31.1,73.24,31.47,73.63,31.72,73.34Z"/><path class="cls-23" d="M19,59.09a5.46,5.46,0,0,1,3.27-1.82c5.31-.72,9.93,2.93,10.38,9.26a6.92,6.92,0,0,1-1.29,4h0c-.63.71-1.95,0-2.07-1.21-.54-5.37-3.89-8.45-9.21-8.51-1.17,0-1.71-1-1.08-1.7Z"/><path class="cls-23" d="M19,59.09a5.46,5.46,0,0,1,3.27-1.82c5.31-.72,9.93,2.93,10.38,9.26a6.92,6.92,0,0,1-1.29,4h0c-.63.71-1.95,0-2.07-1.21-.54-5.37-3.89-8.45-9.21-8.51-1.17,0-1.71-1-1.08-1.7Z"/><path class="cls-24" d="M27.28,62.47c2.4-.49,1.53-1.71,1.53-1.71S27.5,60,27.28,62.47Z"/><path class="cls-24" d="M26,61.27c2.14-1.19.94-2.09.94-2.09S25.49,58.88,26,61.27Z"/><path class="cls-24" d="M24,60.27c2.36-.66,1.4-1.81,1.4-1.81S24,57.83,24,60.27Z"/><path class="cls-24" d="M22.45,60c1.52-1.36.37-1.87.37-1.87S21.58,58.11,22.45,60Z"/><path class="cls-24" d="M20,60.09c1.59-.62.84-1.35.84-1.35S19.88,58.4,20,60.09Z"/><path class="cls-24" d="M28.62,63.59c.94-2.25,2-1.17,2-1.17S31.05,63.85,28.62,63.59Z"/><path class="cls-24" d="M29.58,65.83c.38-2.41,1.64-1.59,1.64-1.59S32,65.52,29.58,65.83Z"/><path class="cls-24" d="M29.75,67c1.18-1.67,1.82-.59,1.82-.59S31.68,67.69,29.75,67Z"/><path class="cls-24" d="M30.14,69.12c.43-1.65,1.24-1,1.24-1S31.83,69.06,30.14,69.12Z"/><path class="cls-26" d="M82.59,110.25a10.65,10.65,0,0,0,20,7.4s.18-.28-.45-.55-18.92-7-18.92-7S82.72,109.89,82.59,110.25Z"/><path class="cls-23" d="M99.41,118.78a5.27,5.27,0,0,1-2.35,2.85c-4.62,2.57-10.2.9-12.89-4.77a7,7,0,0,1-.25-4.13h0c.33-.88,1.8-.68,2.34.37,2.44,4.75,6.63,6.37,11.55,4.51,1.07-.41,1.93.3,1.6,1.17Z"/><path class="cls-23" d="M99.41,118.78a5.27,5.27,0,0,1-2.35,2.85c-4.62,2.57-10.2.9-12.89-4.77a7,7,0,0,1-.25-4.13h0c.33-.88,1.8-.68,2.34.37,2.44,4.75,6.63,6.37,11.55,4.51,1.07-.41,1.93.3,1.6,1.17Z"/><path class="cls-24" d="M90.6,118.64c-2,1.32-.79,2.13-.79,2.13S91.28,121,90.6,118.64Z"/><path class="cls-24" d="M92.19,119.29c-1.54,1.87-.11,2.26-.11,2.26S93.54,121.3,92.19,119.29Z"/><path class="cls-24" d="M94.45,119.47c-1.92,1.46-.63,2.17-.63,2.17S95.3,121.73,94.45,119.47Z"/><path class="cls-24" d="M96,119.21c-.9,1.8.33,1.86.33,1.86S97.42,120.6,96,119.21Z"/><path class="cls-24" d="M98.14,118.22c-1.23,1.14-.29,1.55-.29,1.55S98.88,119.73,98.14,118.22Z"/><path class="cls-24" d="M89,118.1c-.06,2.41-1.39,1.78-1.39,1.78S86.63,118.74,89,118.1Z"/><path class="cls-24" d="M87.28,116.38c.51,2.36-.94,2.06-.94,2.06S85.16,117.55,87.28,116.38Z"/><path class="cls-24" d="M86.68,115.35c-.48,2-1.46,1.19-1.46,1.19S84.67,115.44,86.68,115.35Z"/><path class="cls-24" d="M85.58,113.56c.19,1.67-.79,1.37-.79,1.37S84,114.22,85.58,113.56Z"/><path class="cls-27" d="M30.17,99.8a12,12,0,1,0,23.72-3.36s0-.38-.74-.3-22.46,3.21-22.46,3.21S30.1,99.38,30.17,99.8Z"/><path class="cls-23" d="M51.38,99.25c.15,1,0,3.11-.8,4.08-3.2,5-9.61,6.34-15.31,2.16a7.65,7.65,0,0,1-2.46-3.94h0c-.14-1,1.42-1.64,2.51-.88,5,3.39,10,2.76,13.84-1.72.85-1,2.07-.74,2.22.3Z"/><path class="cls-23" d="M51.38,99.25c.15,1,0,3.11-.8,4.08-3.2,5-9.61,6.34-15.31,2.16a7.65,7.65,0,0,1-2.46-3.94h0c-.14-1,1.42-1.64,2.51-.88,5,3.39,10,2.76,13.84-1.72.85-1,2.07-.74,2.22.3Z"/><path class="cls-24" d="M42.58,103.83c-1.3,2.38.36,2.52.36,2.52S44.5,105.76,42.58,103.83Z"/><path class="cls-24" d="M44.51,103.62c-.52,2.67,1.1,2.29,1.1,2.29S46.92,104.88,44.51,103.62Z"/><path class="cls-24" d="M46.84,102.58c-1.13,2.48.54,2.49.54,2.49S48.89,104.37,46.84,102.58Z"/><path class="cls-24" d="M48.18,101.52c.08,2.27,1.33,1.67,1.33,1.67S50.38,102.11,48.18,101.52Z"/><path class="cls-24" d="M49.82,99.37c-.61,1.79.54,1.68.54,1.68S51.36,100.47,49.82,99.37Z"/><path class="cls-24" d="M40.67,104.16c1.25,2.42-.42,2.51-.42,2.51S38.71,106,40.67,104.16Z"/><path class="cls-24" d="M38.08,103.37c1.77,2.06.18,2.53.18,2.53S36.61,105.65,38.08,103.37Z"/><path class="cls-24" d="M37,102.66c.56,2.2-.81,2-.81,2S35,103.83,37,102.66Z"/><path class="cls-24" d="M34.89,101.48c1.09,1.55,0,1.77,0,1.77S33.72,103,34.89,101.48Z"/><path class="cls-28" d="M79,120.07a4.23,4.23,0,0,0-1.86-1.38,4,4,0,0,0,.06-3c-1-3-4-5.06-7-4.08L71,114h0c1.63-.55,3-.44,3.53,1.19a3.12,3.12,0,0,1-1,3.42,1.32,1.32,0,0,0-.33.18,5,5,0,0,1-.63.35l0,.12A19.84,19.84,0,0,1,68,121.49l1,1.93,4.31-1.89a8.85,8.85,0,0,0,2.44-1.23,2.28,2.28,0,0,1,1.69.9,2.32,2.32,0,0,1-.45,3.25h0l1.13,1.49A4.2,4.2,0,0,0,79,120.07Z"/><path class="cls-10" d="M76.14,75.68s-.57-2.1,1-2.1,3,3.43,1.15,5-13.9-6.61-3.43-15,14.75,3.67,13,5-4.76.76-4.18-1.14,2.28-.57,2.28-.57-2.43-2.72-3.62-.66c-1,1.65,1.72,3.37,3.43,4.25s4.76,2.78,1.71,5.26-1.9,4.75-5.14,1.52-4.46-6.2-6.51-4.38C74.52,74,76.14,75.68,76.14,75.68Z"/><path class="cls-10" d="M59.34,106s1.79-1,2.15.38-2.42,3.62-4.27,2.23,2.76-14.35,13-6.73S70.34,116.3,68.7,115s-1.83-4.2,0-4.12,1.07,2,1.07,2,1.92-2.88-.25-3.49c-1.75-.48-2.69,2.39-3.1,4.17s-1.42,5-4.42,2.83-4.83-.61-2.63-4.36,4.64-5.59,2.47-7C60.53,104.09,59.34,106,59.34,106Z"/><path class="cls-29" d="M96.8,90.58a4.17,4.17,0,0,0-2.09,1,4,4,0,0,0-2.64-1.46c-3.08-.51-6.36,1.22-6.87,4.29l2.5.41h0c.28-1.7,1-2.85,2.7-2.58A3.14,3.14,0,0,1,93,94.73a1.21,1.21,0,0,0,0,.38,6.2,6.2,0,0,1,0,.72l.12,0a19.85,19.85,0,0,1-.15,5.08h2.19l.33-4.7a8.33,8.33,0,0,0,0-2.72,2.31,2.31,0,0,1,4.25.83h0l1.85-.3A4.19,4.19,0,0,0,96.8,90.58Z"/><path class="cls-30" d="M34.63,85.47a4.21,4.21,0,0,0-2.09,1A4,4,0,0,0,29.9,85c-3.08-.51-6.36,1.22-6.86,4.29l2.49.42h0c.28-1.7,1-2.85,2.7-2.57a3.13,3.13,0,0,1,2.55,2.48,1.21,1.21,0,0,0,0,.38,6.2,6.2,0,0,1,0,.72l.12,0a19.85,19.85,0,0,1-.15,5.08H33l.33-4.69a8.69,8.69,0,0,0,.05-2.73,2.29,2.29,0,0,1,1.58-1.08,2.32,2.32,0,0,1,2.66,1.91h0l1.85-.31A4.19,4.19,0,0,0,34.63,85.47Z"/><path class="cls-31" d="M106.51,82.2a6.19,6.19,0,1,0,6.18,6.18A6.18,6.18,0,0,0,106.51,82.2Zm0,9.6a3.42,3.42,0,1,1,3.41-3.42A3.42,3.42,0,0,1,106.51,91.8Z"/><path class="cls-10" d="M96.37,99.8l5.89,15.73a8.21,8.21,0,0,1,2-1.1c3.46-1.36,1.26-4,0-5.24s-3.2-3.62-1.86-4.83c1.66-1.51,3.07,1.64,3.07,1.64s-1.16-1.7-2.22-.14,1.52,3,3.45,2.24S108.18,95.33,96.37,99.8Z"/><path class="cls-10" d="M27.55,110.09l5.26,14.08a7.44,7.44,0,0,1,1.77-1c3.1-1.22,1.13-3.54,0-4.7s-2.88-3.23-1.67-4.32c1.49-1.34,2.74,1.47,2.74,1.47s-1-1.52-2-.12,1.36,2.63,3.09,2S38.11,106.09,27.55,110.09Z"/><path class="cls-32" d="M28.4,68.23a4.68,4.68,0,1,0,4.68,4.68A4.67,4.67,0,0,0,28.4,68.23Zm0,7.26A2.59,2.59,0,1,1,31,72.91,2.58,2.58,0,0,1,28.4,75.49Z"/><path class="cls-10" d="M34.38,73.25l6.21,16.59a9.22,9.22,0,0,1,2.08-1.16c3.65-1.43,1.33-4.16,0-5.53s-3.38-3.81-2-5.09c1.76-1.59,3.25,1.73,3.25,1.73s-1.23-1.79-2.35-.15,1.6,3.11,3.64,2.36S46.83,68.54,34.38,73.25Z"/><path class="cls-10" d="M54.15,18.23,48.33,32.3a7.3,7.3,0,0,1,2,.49C53.45,34,53.6,31,53.54,29.29s.11-4.38,1.75-4.36c2,0,1,3,1,3s.28-1.84-1.39-1.47-.82,2.89.9,3.62S64.74,22.56,54.15,18.23Z"/><path class="cls-10" d="M32.26,40.91,45,49.33a7.3,7.3,0,0,1,.87-1.86c1.82-2.84-1.18-3.57-2.82-3.83s-4.27-1-3.94-2.56c.43-2,3.14-.43,3.14-.43s-1.76-.62-1.71,1.08,2.68,1.36,3.72-.19S38.56,31.35,32.26,40.91Z"/><path class="cls-10" d="M72.72,39.82l12.69,8.43a7.3,7.3,0,0,1,.87-1.86c1.82-2.84-1.18-3.58-2.82-3.84S79.19,41.6,79.52,40c.43-2,3.14-.42,3.14-.42S80.9,38.94,81,40.65s2.68,1.36,3.72-.19S79,30.26,72.72,39.82Z"/><path class="cls-33" d="M56.59,11.39A12.2,12.2,0,0,0,50.43,35s.34.17.57-.57,5.81-22.37,5.81-22.37S57,11.48,56.59,11.39Z"/><path class="cls-23" d="M48.78,31.53c-1.05-.27-2.94-1.18-3.52-2.36-3.46-5-2.19-11.51,4-15.23a7.84,7.84,0,0,1,4.67-.76h0c1,.27,1,2-.15,2.7-5.13,3.33-6.51,8.29-3.82,13.69.59,1.18-.12,2.24-1.15,2Z"/><path class="cls-23" d="M48.78,31.53c-1.05-.27-2.94-1.18-3.52-2.36-3.46-5-2.19-11.51,4-15.23a7.84,7.84,0,0,1,4.67-.76h0c1,.27,1,2-.15,2.7-5.13,3.33-6.51,8.29-3.82,13.69.59,1.18-.12,2.24-1.15,2Z"/><path class="cls-24" d="M47.93,21.47c-1.74-2.16-2.51-.66-2.51-.66S45.36,22.51,47.93,21.47Z"/><path class="cls-24" d="M47.37,23.36c-2.31-1.54-2.59.13-2.59.13S45.23,25.13,47.37,23.36Z"/><path class="cls-24" d="M47.43,26c-1.89-2-2.55-.47-2.55-.47S44.94,27.18,47.43,26Z"/><path class="cls-24" d="M47.9,27.64c-2.17-.82-2.09.59-2.09.59S46.48,29.47,47.9,27.64Z"/><path class="cls-24" d="M49.28,30c-1.45-1.28-1.8-.15-1.8-.15S47.64,31,49.28,30Z"/><path class="cls-24" d="M48.37,19.55c-2.76.21-2.2-1.38-2.2-1.38S47.36,17,48.37,19.55Z"/><path class="cls-24" d="M50.13,17.42c-2.63.86-2.45-.83-2.45-.83S48.55,15.14,50.13,17.42Z"/><path class="cls-24" d="M51.24,16.63C49,16.3,49.71,15.1,49.71,15.1S50.9,14.34,51.24,16.63Z"/><path class="cls-24" d="M53.15,15.16c-1.88.41-1.64-.74-1.64-.74S52.22,13.48,53.15,15.16Z"/><path class="cls-34" d="M93.82,92c0,5.46-4.15,9.9-9.27,9.9s-9.27-4.44-9.27-9.9,4.15-9.9,9.27-9.9S93.82,86.53,93.82,92Z"/><path class="cls-10" d="M83.62,90.23a1.11,1.11,0,0,1,1.26.91,1.13,1.13,0,0,1-2.24.29A1.1,1.1,0,0,1,83.62,90.23Z"/><path class="cls-10" d="M79.48,87.29A1.06,1.06,0,1,1,79,88.75,1.1,1.1,0,0,1,79.48,87.29Z"/><path class="cls-10" d="M90.55,89.07a1.09,1.09,0,0,1,1.5.4,1.11,1.11,0,0,1-.49,1.47,1.06,1.06,0,1,1-1-1.87Z"/><path class="cls-10" d="M91.16,93.75a1.06,1.06,0,1,1-.5,1.47A1.1,1.1,0,0,1,91.16,93.75Z"/><path class="cls-10" d="M85.87,96.26a1.06,1.06,0,1,1-.5,1.46A1.08,1.08,0,0,1,85.87,96.26Z"/><path class="cls-10" d="M87.46,85.17a1.06,1.06,0,1,1,1,1.86,1.06,1.06,0,1,1-1-1.86Z"/><path class="cls-10" d="M82.76,85.7a.75.75,0,0,1,1,.28.77.77,0,1,1-1-.28Z"/><path class="cls-10" d="M80.55,97.27a.74.74,0,0,1,1,.27.75.75,0,0,1-.33,1,.76.76,0,0,1-1-.27A.74.74,0,0,1,80.55,97.27Z"/><path class="cls-10" d="M77.16,92.19a.77.77,0,0,1,1,.28.75.75,0,0,1-.35,1,.73.73,0,0,1-1-.27A.76.76,0,0,1,77.16,92.19Z"/><path class="cls-10" d="M88.44,91.8a.72.72,0,1,1-.34,1A.76.76,0,0,1,88.44,91.8Z"/><path class="cls-10" d="M81.19,93.48a.73.73,0,1,1,.68,1.28.76.76,0,0,1-1-.27A.75.75,0,0,1,81.19,93.48Z"/><ellipse class="cls-11" cx="85.36" cy="91.23" rx="1.17" ry="1.25"/><path class="cls-11" d="M90.35,87.12a1.17,1.17,0,1,1-2.19.83,1.21,1.21,0,0,1,.66-1.58A1.2,1.2,0,0,1,90.35,87.12Z"/><path class="cls-11" d="M86.82,99a1.18,1.18,0,1,1-1.54-.75A1.22,1.22,0,0,1,86.82,99Z"/><path class="cls-11" d="M81.6,99a1.22,1.22,0,0,1-.66,1.59,1.2,1.2,0,0,1-1.53-.74A1.18,1.18,0,1,1,81.6,99Z"/><path class="cls-11" d="M79.61,92.83A1.22,1.22,0,0,1,79,94.42a1.25,1.25,0,1,1,.66-1.59Z"/><path class="cls-11" d="M91.54,96.17A1.17,1.17,0,1,1,90,95.41,1.22,1.22,0,0,1,91.54,96.17Z"/><path class="cls-11" d="M91.62,90.94a.8.8,0,1,1-1.5.56.82.82,0,0,1,.45-1.08A.83.83,0,0,1,91.62,90.94Z"/><path class="cls-11" d="M79.26,86.85a.81.81,0,1,1-1.5.58.81.81,0,1,1,1.5-.58Z"/><path class="cls-11" d="M85.3,83.86a.81.81,0,1,1-1.06-.51A.83.83,0,0,1,85.3,83.86Z"/><path class="cls-11" d="M84.12,96.3a.83.83,0,0,1-.43,1.08.86.86,0,0,1-.62-1.6A.82.82,0,0,1,84.12,96.3Z"/><path class="cls-11" d="M83.32,88.1a.8.8,0,1,1-1-.51A.82.82,0,0,1,83.32,88.1Z"/><path class="cls-35" d="M28,91.92c0,5.46-4.15,9.9-9.28,9.9s-9.27-4.44-9.27-9.9S13.64,82,18.76,82,28,86.45,28,91.92Z"/><path class="cls-10" d="M17.84,90.15a1.09,1.09,0,0,1,1.25.91,1.08,1.08,0,0,1-1,1.19,1.06,1.06,0,1,1-.27-2.1Z"/><path class="cls-10" d="M13.7,87.2a1.11,1.11,0,0,1,1.5.4,1.13,1.13,0,1,1-1.5-.4Z"/><path class="cls-10" d="M24.77,89a1.09,1.09,0,0,1,1.49.39A1.14,1.14,0,1,1,24.77,89Z"/><path class="cls-10" d="M25.37,93.67a1.06,1.06,0,1,1-.49,1.47A1.09,1.09,0,0,1,25.37,93.67Z"/><path class="cls-10" d="M20.08,96.17a1.06,1.06,0,1,1,1,1.87,1.09,1.09,0,0,1-1.5-.4A1.11,1.11,0,0,1,20.08,96.17Z"/><path class="cls-10" d="M21.67,85.09a1.06,1.06,0,1,1-.49,1.47A1.09,1.09,0,0,1,21.67,85.09Z"/><path class="cls-10" d="M17,85.62a.76.76,0,0,1,1,.28.77.77,0,0,1-1.36.73A.76.76,0,0,1,17,85.62Z"/><path class="cls-10" d="M14.77,97.18a.75.75,0,0,1,1,.28.77.77,0,0,1-1.36.73A.75.75,0,0,1,14.77,97.18Z"/><path class="cls-10" d="M11.37,92.12a.76.76,0,0,1,1,.27.78.78,0,0,1-1.36.74A.76.76,0,0,1,11.37,92.12Z"/><path class="cls-10" d="M22.66,91.72a.72.72,0,1,1-.34,1A.74.74,0,0,1,22.66,91.72Z"/><path class="cls-10" d="M15.4,93.4a.76.76,0,0,1,1,.27.75.75,0,0,1-.34,1,.73.73,0,1,1-.69-1.28Z"/><ellipse class="cls-11" cx="19.57" cy="91.15" rx="1.17" ry="1.25"/><path class="cls-11" d="M24.57,87A1.17,1.17,0,1,1,23,86.29,1.21,1.21,0,0,1,24.57,87Z"/><path class="cls-11" d="M21,98.91a1.18,1.18,0,1,1-2.19.84A1.17,1.17,0,1,1,21,98.91Z"/><path class="cls-11" d="M15.81,98.91a1.18,1.18,0,1,1-2.19.84,1.17,1.17,0,1,1,2.19-.84Z"/><path class="cls-11" d="M13.82,92.75A1.17,1.17,0,1,1,12.28,92,1.21,1.21,0,0,1,13.82,92.75Z"/><path class="cls-11" d="M25.75,96.08a1.18,1.18,0,1,1-2.19.84,1.22,1.22,0,0,1,.66-1.59A1.21,1.21,0,0,1,25.75,96.08Z"/><path class="cls-11" d="M25.84,90.86a.84.84,0,0,1-.45,1.08.82.82,0,0,1-1.05-.51.8.8,0,1,1,1.5-.57Z"/><path class="cls-11" d="M13.48,86.77a.86.86,0,0,1-.45,1.1.84.84,0,0,1-1-.52.82.82,0,0,1,.44-1.08A.84.84,0,0,1,13.48,86.77Z"/><path class="cls-11" d="M19.51,83.78a.83.83,0,0,1-.44,1.09A.82.82,0,0,1,18,84.36a.83.83,0,0,1,.44-1.09A.82.82,0,0,1,19.51,83.78Z"/><path class="cls-11" d="M18.34,96.22a.83.83,0,0,1-.44,1.08.86.86,0,0,1-.61-1.6A.83.83,0,0,1,18.34,96.22Z"/><path class="cls-11" d="M17.54,88a.85.85,0,0,1-.45,1.09A.84.84,0,0,1,16,88.59a.82.82,0,0,1,.44-1.08A.84.84,0,0,1,17.54,88Z"/><path class="cls-36" d="M58.11,134.24a.91.91,0,1,1,1.6,0l8.36-.23a.88.88,0,0,1,.62,0l2.86-.09a7.19,7.19,0,0,0,.24-2,8.51,8.51,0,0,0-17,.46,7.64,7.64,0,0,0,.35,2l3-.08Zm12.6-2.6a.73.73,0,0,1-.42.92.72.72,0,0,1-.94-.36.7.7,0,0,1,.41-.91A.72.72,0,0,1,70.71,131.64Zm-2.06-1.21a.62.62,0,1,1-1.08.61.62.62,0,1,1,1.08-.61ZM68,126.54a.71.71,0,0,1-.42.91.78.78,0,0,1-.52,0,1,1,0,0,1,.16.19.91.91,0,1,1-1.58.9.89.89,0,0,1,1.1-1.32.71.71,0,0,1-.1-.14.74.74,0,0,1,1.36-.56ZM61.7,126l.09,0a.61.61,0,0,1,1.16-.23.65.65,0,0,1,0,.62.83.83,0,0,1,.11.15,1.05,1.05,0,0,1-.61,1.34A1,1,0,1,1,61.7,126Zm-5.85,3.19a1.08,1.08,0,0,1,2-.82s0,.09,0,.13a.63.63,0,0,1,.83.27.65.65,0,0,1-.21.89.64.64,0,0,1-.84-.24,1.22,1.22,0,0,1-.41.29A1,1,0,0,1,55.85,129.22Zm5,.66a.65.65,0,0,1,.21-.88.64.64,0,0,1,.87.26.62.62,0,1,1-1.08.62Zm5.22-.19A.73.73,0,0,1,67,130a.72.72,0,0,1-.42.92.69.69,0,1,1-.52-1.27Zm-7.42,1.8a.73.73,0,1,1,.94.36A.7.7,0,0,1,58.67,131.49Zm4.32.07a.91.91,0,1,1,1.8-.29,1.06,1.06,0,0,1-.16.73,1,1,0,0,1,.42.76,1.08,1.08,0,0,1-2.15.05,1,1,0,0,1,.35-.75A1,1,0,0,1,63,131.56Zm-7,2.14a1,1,0,0,1,.61-1.34,1,1,0,0,1,1.37.52,1.07,1.07,0,0,1-2,.82Z"/><path class="cls-10" d="M64.63,132a1.06,1.06,0,0,0,.16-.73.91.91,0,1,0-1.8.29,1,1,0,0,0,.26.5,1.07,1.07,0,0,1,.7-.28A1.11,1.11,0,0,1,64.63,132Z"/><path class="cls-10" d="M66.74,127.24a.89.89,0,0,0-1.1,1.32.91.91,0,1,0,1.58-.9,1,1,0,0,0-.16-.19A.66.66,0,0,1,66.74,127.24Z"/><path class="cls-10" d="M59.68,133.33a.91.91,0,1,0-1.57.91l0,0,1.56,0A1,1,0,0,0,59.68,133.33Z"/><path class="cls-10" d="M68.07,134h.62A.88.88,0,0,0,68.07,134Z"/><path class="cls-10" d="M67.57,131a.62.62,0,1,0,.21-.88A.65.65,0,0,0,67.57,131Z"/><path class="cls-10" d="M57.64,129.45a.64.64,0,0,0,.84.24.65.65,0,0,0,.21-.89.63.63,0,0,0-.83-.27A1,1,0,0,1,57.64,129.45Z"/><path class="cls-10" d="M63,126.4a.65.65,0,0,0,0-.62.61.61,0,0,0-1.16.23A1,1,0,0,1,63,126.4Z"/><path class="cls-10" d="M62,129.26a.64.64,0,0,0-.87-.26.66.66,0,1,0,.87.26Z"/><path class="cls-11" d="M62.9,132.81a1.08,1.08,0,0,0,2.15-.05,1,1,0,0,0-.42-.76.86.86,0,0,1-1.38.06A1,1,0,0,0,62.9,132.81Z"/><path class="cls-11" d="M64.05,132.37a.87.87,0,0,0,.58-.37,1.11,1.11,0,0,0-.68-.22,1.07,1.07,0,0,0-.7.28A.87.87,0,0,0,64.05,132.37Z"/><path class="cls-11" d="M57.35,134.22a1,1,0,0,0,.61-1.34,1,1,0,0,0-1.37-.52,1,1,0,1,0,.76,1.86Z"/><path class="cls-11" d="M57.64,129.45l0,0a.65.65,0,0,1,.21-.89h0s0-.09,0-.13a1.08,1.08,0,1,0-.61,1.34A1.22,1.22,0,0,0,57.64,129.45Z"/><path class="cls-11" d="M57.61,129.43l0,0a1,1,0,0,0,.22-.92h0A.65.65,0,0,0,57.61,129.43Z"/><path class="cls-11" d="M62.47,127.89a1.05,1.05,0,0,0,.61-1.34.83.83,0,0,0-.11-.15.53.53,0,0,1-.23.26.64.64,0,0,1-.87-.26.76.76,0,0,1-.08-.39l-.09,0a1,1,0,1,0,.77,1.86Z"/><path class="cls-11" d="M61.87,126.4a.64.64,0,0,0,.87.26.53.53,0,0,0,.23-.26,1,1,0,0,0-1.18-.39A.76.76,0,0,0,61.87,126.4Z"/><path class="cls-11" d="M66.64,127.1a.71.71,0,0,0,.1.14,1.18,1.18,0,0,1,.32.23.78.78,0,0,0,.52,0,.69.69,0,1,0-.94-.35Z"/><path class="cls-11" d="M66.74,127.24a.66.66,0,0,0,.32.23A1.18,1.18,0,0,0,66.74,127.24Z"/><path class="cls-11" d="M69.35,132.2a.72.72,0,0,0,.94.36.73.73,0,0,0,.42-.92.72.72,0,0,0-.95-.35A.7.7,0,0,0,69.35,132.2Z"/><path class="cls-11" d="M60,130.94a.73.73,0,0,0-1.35.55.73.73,0,0,0,1.35-.55Z"/><path class="cls-11" d="M66.61,131A.72.72,0,0,0,67,130a.74.74,0,1,0-.42.92Z"/><path class="cls-37" d="M53.61,117.38a4.81,4.81,0,0,0-7.86-5.31l-.1-.06a3.78,3.78,0,0,0-3.08,6.9l.18.06a4.63,4.63,0,0,0,8.82,2.52,4.56,4.56,0,0,0,.39-2.13A4.72,4.72,0,0,0,53.61,117.38Zm-3.33,1.76a3,3,0,0,1-.26,1.38,3,3,0,0,1-4,1.53,3,3,0,0,1-1.76-3.17l.12-.87-.9-.36a2.24,2.24,0,1,1,1.8-4.11l.05,0,.74.35.56-.59a3.19,3.19,0,1,1,4.11,4.83l-.52.36Z"/><path class="cls-38" d="M57,98.44a4.82,4.82,0,0,0,2.69-9.1s0-.07,0-.11a3.77,3.77,0,0,0-7.5-.85c0,.07,0,.13,0,.19a4.63,4.63,0,1,0,2.41,8.9A4.79,4.79,0,0,0,57,98.44ZM54.36,95.8A2.9,2.9,0,0,1,53,96a3,3,0,0,1-.17-6l.87-.15.06-1a2.25,2.25,0,1,1,4.47.46v.07l-.12.8.73.37a3.18,3.18,0,0,1-1.78,6A3.15,3.15,0,0,1,55.44,96l-.5-.38Z"/><path class="cls-39" d="M111.3,75.76a4.82,4.82,0,0,0-2.37-9.19l0-.1A3.77,3.77,0,1,0,102,69.59a1.3,1.3,0,0,0,.08.17,4.63,4.63,0,0,0,4.94,7.73,4.69,4.69,0,0,0,1.7-1.33A4.74,4.74,0,0,0,111.3,75.76Zm-3.66-.88a3,3,0,0,1-1.1.86,3,3,0,0,1-3.22-5l.67-.58-.45-.86a2.26,2.26,0,0,1,1.11-3,2.23,2.23,0,0,1,3,1.11l0,.06.31.75.81-.06a3.18,3.18,0,1,1-.12,6.33l-.62-.07Z"/><text class="cls-40" transform="translate(135.45 104.25) scale(0.96 1)"><tspan class="cls-41">F</tspan><tspan x="51.95" y="0">ourniture </tspan><tspan class="cls-42" x="353.71" y="0">S</tspan><tspan x="404.25" y="0">tore</tspan></text></g></g></g></svg>