<svg xmlns="http://www.w3.org/2000/svg" xmlns:xlink="http://www.w3.org/1999/xlink" viewBox="0 0 209.78 244.47"><defs><style>.cls-1{isolation:isolate;}.cls-2{fill:url(#linear-gradient);}.cls-3{fill:url(#linear-gradient-2);}.cls-4{fill:#5c2d1e;}.cls-5{fill:url(#linear-gradient-3);}.cls-6{fill:#fadab2;}.cls-23,.cls-6{mix-blend-mode:multiply;}.cls-7{fill:url(#linear-gradient-4);}.cls-8{fill:url(#linear-gradient-5);}.cls-9{fill:url(#linear-gradient-6);}.cls-10{fill:#fdf3c8;}.cls-11{fill:#ad020d;}.cls-12{fill:url(#linear-gradient-7);}.cls-13{fill:url(#linear-gradient-8);}.cls-14{fill:url(#linear-gradient-9);}.cls-15{fill:url(#linear-gradient-10);}.cls-16{fill:url(#linear-gradient-11);}.cls-17{fill:url(#linear-gradient-12);}.cls-18{fill:url(#linear-gradient-13);}.cls-19{fill:url(#linear-gradient-14);}.cls-20{fill:url(#linear-gradient-15);}.cls-21{fill:url(#linear-gradient-16);}.cls-22{fill:url(#linear-gradient-17);}.cls-23{fill:#ee4230;}.cls-24{fill:#ff5f1a;}.cls-25{fill:url(#linear-gradient-18);}.cls-26{fill:url(#linear-gradient-19);}.cls-27{fill:url(#linear-gradient-20);}.cls-28{fill:url(#linear-gradient-21);}.cls-29{fill:url(#linear-gradient-22);}.cls-30{fill:url(#linear-gradient-23);}.cls-31{fill:url(#linear-gradient-24);}.cls-32{fill:url(#linear-gradient-25);}.cls-33{fill:url(#linear-gradient-26);}.cls-34{fill:url(#linear-gradient-27);}.cls-35{fill:url(#linear-gradient-28);}.cls-36{fill:url(#linear-gradient-29);}.cls-37{fill:url(#linear-gradient-30);}.cls-38{fill:url(#linear-gradient-31);}.cls-39{fill:url(#linear-gradient-32);}</style><linearGradient id="linear-gradient" x1="55.62" y1="130.23" x2="55.62" gradientUnits="userSpaceOnUse"><stop offset="0" stop-color="#db8935"/><stop offset="0.13" stop-color="#e59640"/><stop offset="0.35" stop-color="#f1a54d"/><stop offset="0.61" stop-color="#f8ae55"/><stop offset="1" stop-color="#fab157"/></linearGradient><linearGradient id="linear-gradient-2" x1="61.24" y1="127.02" x2="61.24" y2="11.86" gradientUnits="userSpaceOnUse"><stop offset="0.3" stop-color="#ffad4f"/><stop offset="1" stop-color="#faa843"/></linearGradient><linearGradient id="linear-gradient-3" x1="56.85" y1="44.43" x2="56.85" y2="5.95" xlink:href="#linear-gradient"/><linearGradient id="linear-gradient-4" x1="70.4" y1="59.71" x2="70.4" y2="37.06" gradientUnits="userSpaceOnUse"><stop offset="0" stop-color="#51740c"/><stop offset="0.19" stop-color="#5b7f13"/><stop offset="0.53" stop-color="#759d27"/><stop offset="0.98" stop-color="#a0cc46"/><stop offset="1" stop-color="#a2cf48"/></linearGradient><linearGradient id="linear-gradient-5" x1="81.05" y1="98.7" x2="81.05" y2="76.06" xlink:href="#linear-gradient-4"/><linearGradient id="linear-gradient-6" x1="52.94" y1="68.82" x2="52.94" y2="42.52" gradientUnits="userSpaceOnUse"><stop offset="0" stop-color="#c70000"/><stop offset="0.11" stop-color="#cd0502"/><stop offset="0.67" stop-color="#e61c0b"/><stop offset="1" stop-color="#f0250e"/></linearGradient><linearGradient id="linear-gradient-7" x1="90.42" y1="108.48" x2="90.42" y2="80.28" xlink:href="#linear-gradient-6"/><linearGradient id="linear-gradient-8" x1="38.69" y1="59.22" x2="38.69" y2="42.52" xlink:href="#linear-gradient-4"/><linearGradient id="linear-gradient-9" x1="104.89" y1="244.47" x2="104.89" y2="36.43" gradientUnits="userSpaceOnUse"><stop offset="0" stop-color="#c46d1d"/><stop offset="0.05" stop-color="#c77120"/><stop offset="0.68" stop-color="#ec9f48"/><stop offset="1" stop-color="#fab157"/></linearGradient><linearGradient id="linear-gradient-10" x1="104.07" y1="227.67" x2="104.07" y2="48.91" gradientUnits="userSpaceOnUse"><stop offset="0" stop-color="#faa843"/><stop offset="0.98" stop-color="#ffad4f"/></linearGradient><linearGradient id="linear-gradient-11" x1="103.76" y1="237.61" x2="103.76" y2="44.58" xlink:href="#linear-gradient-9"/><linearGradient id="linear-gradient-12" x1="83.93" y1="220.02" x2="83.93" y2="199.48" gradientUnits="userSpaceOnUse"><stop offset="0" stop-color="#330600"/><stop offset="1" stop-color="#6b1c0a"/></linearGradient><linearGradient id="linear-gradient-13" x1="120.96" y1="81.51" x2="120.96" y2="64.53" xlink:href="#linear-gradient-12"/><linearGradient id="linear-gradient-14" x1="120.33" y1="164.1" x2="120.33" y2="152.99" xlink:href="#linear-gradient-12"/><linearGradient id="linear-gradient-15" x1="138.98" y1="104.69" x2="138.98" y2="84.79" xlink:href="#linear-gradient-4"/><linearGradient id="linear-gradient-16" x1="42.42" y1="184.52" x2="42.42" y2="173.11" xlink:href="#linear-gradient-12"/><linearGradient id="linear-gradient-17" x1="160.96" y1="117.37" x2="160.96" y2="90.3" xlink:href="#linear-gradient-6"/><linearGradient id="linear-gradient-18" x1="-654.23" y1="-403.85" x2="-654.23" y2="-430.92" gradientTransform="matrix(0.31, 0.95, -0.95, 0.31, -148.56, 859.44)" xlink:href="#linear-gradient-6"/><linearGradient id="linear-gradient-19" x1="-960.87" y1="1089.3" x2="-960.87" y2="1062.55" gradientTransform="translate(-1290.45 139.51) rotate(-129.65)" xlink:href="#linear-gradient-6"/><linearGradient id="linear-gradient-20" x1="-1176.5" y1="812.93" x2="-1176.5" y2="782.82" gradientTransform="translate(-1320.36 468.03) rotate(-158.04)" xlink:href="#linear-gradient-6"/><linearGradient id="linear-gradient-21" x1="122.75" y1="209.12" x2="122.75" y2="184.89" xlink:href="#linear-gradient-4"/><linearGradient id="linear-gradient-22" x1="155.1" y1="167.59" x2="155.1" y2="149.49" xlink:href="#linear-gradient-4"/><linearGradient id="linear-gradient-23" x1="51.87" y1="159.1" x2="51.87" y2="141.01" xlink:href="#linear-gradient-4"/><linearGradient id="linear-gradient-24" x1="176.84" y1="157.03" x2="176.84" y2="136.49" xlink:href="#linear-gradient-12"/><linearGradient id="linear-gradient-25" x1="47.16" y1="128.82" x2="47.16" y2="113.3" xlink:href="#linear-gradient-12"/><linearGradient id="linear-gradient-26" x1="136.16" y1="763.63" x2="136.16" y2="732.97" gradientTransform="matrix(0.7, -0.71, 0.71, 0.7, -543.8, -392.79)" xlink:href="#linear-gradient-6"/><linearGradient id="linear-gradient-27" x1="140.39" y1="169.2" x2="140.39" y2="136.32" xlink:href="#linear-gradient-6"/><linearGradient id="linear-gradient-28" x1="31.16" y1="169.06" x2="31.16" y2="136.19" xlink:href="#linear-gradient-6"/><linearGradient id="linear-gradient-29" x1="-787.29" y1="-351.86" x2="-787.29" y2="-380.06" gradientTransform="matrix(0.03, 1, -1, 0.03, -239.04, 1011.57)" xlink:href="#linear-gradient-6"/><linearGradient id="linear-gradient-30" x1="78.35" y1="206.29" x2="78.35" y2="183.64" xlink:href="#linear-gradient-4"/><linearGradient id="linear-gradient-31" x1="-600.2" y1="-402.38" x2="-621.46" y2="-409.13" gradientTransform="translate(-109.96 857.27) rotate(72.39)" xlink:href="#linear-gradient-4"/><linearGradient id="linear-gradient-32" x1="-207.11" y1="-357.11" x2="-207.11" y2="-379.76" gradientTransform="matrix(0.75, 0.66, -0.66, 0.75, 87.82, 531.95)" xlink:href="#linear-gradient-4"/></defs><g class="cls-1"><g id="Capa_2" data-name="Capa 2"><g id="Layer_1" data-name="Layer 1"><path class="cls-2" d="M96.73,128.72c2.63,2.62,4.77,1.74,4.77-2V5.43A5.18,5.18,0,0,0,94.92.16,143.37,143.37,0,0,0,50.14,10.81,138.69,138.69,0,0,0,12.3,34.9a5.38,5.38,0,0,0-.82,8.57Z"/><path class="cls-3" d="M98.48,127a3.54,3.54,0,0,1-1.11-.86L24.79,48.53a3.51,3.51,0,0,1-1-2.72,3.44,3.44,0,0,1,1.47-2.47l.11-.08.09-.09A117.68,117.68,0,0,1,57.2,21.56,114.37,114.37,0,0,1,94.77,12l.14,0,.14,0a3.58,3.58,0,0,1,.85-.1c1.68,0,2.82,1.3,2.82,3.24V125.56A3.34,3.34,0,0,1,98.48,127Z"/><path class="cls-4" d="M56.09,80.94h0a4.83,4.83,0,0,1,6.69,7h0l2.7,2.82h0A8.73,8.73,0,1,0,53.38,78.13h0Z"/><path class="cls-5" d="M26.84,33s-9.58,1.31-10.2,6.48c-.86,7.19,10,5.95,13.93.3s6.83-7.34,11.89-9a50.6,50.6,0,0,0,13.86-7.91C60,20,72.24,17.15,75.14,16.59S98.57,15.74,97,10.1,89.91,5.85,85.1,7s-16.94,3.39-23,5.09-15.64,2.6-19.62,7.81S28.21,27.89,26.84,33Z"/><path class="cls-6" d="M26.84,33s-9.58,1.31-10.2,6.48c-.86,7.19,10,5.95,13.93.3s6.83-7.34,11.89-9a50.6,50.6,0,0,0,13.86-7.91C60,20,72.24,17.15,75.14,16.59S98.57,15.74,97,10.1,89.91,5.85,85.1,7s-16.94,3.39-23,5.09-15.64,2.6-19.62,7.81S28.21,27.89,26.84,33Z"/><path class="cls-6" d="M26.84,33s-9.58,1.31-10.2,6.48c-.86,7.19,10,5.95,13.93.3s6.83-7.34,11.89-9a50.6,50.6,0,0,0,13.86-7.91C60,20,72.24,17.15,75.14,16.59S98.57,15.74,97,10.1,89.91,5.85,85.1,7s-16.94,3.39-23,5.09-15.64,2.6-19.62,7.81S28.21,27.89,26.84,33Z"/><path class="cls-4" d="M60.91,28.32a8.74,8.74,0,1,0,8.74,8.74A8.74,8.74,0,0,0,60.91,28.32Zm0,13.58a4.84,4.84,0,1,1,4.83-4.84A4.84,4.84,0,0,1,60.91,41.9Z"/><path class="cls-4" d="M91,61.25a7.17,7.17,0,1,0,7.18,7.17A7.17,7.17,0,0,0,91,61.25Zm0,11.13a4,4,0,1,1,4-4A4,4,0,0,1,91,72.38Z"/><path class="cls-7" d="M81.06,48.32A8,8,0,0,0,68,39.5a.7.7,0,0,0-.17-.09,6.27,6.27,0,0,0-5.1,11.45A2.49,2.49,0,0,0,63,51a7.69,7.69,0,0,0,14.64,4.17,7.5,7.5,0,0,0,.65-3.52A7.86,7.86,0,0,0,81.06,48.32Zm-5.52,2.93a5.1,5.1,0,0,1-.42,2.29,5,5,0,0,1-9.55-2.72l.21-1.46-1.51-.58a3.73,3.73,0,1,1,3-6.84l.09.05,1.22.6.93-1a5.29,5.29,0,0,1,8.63,5.83,5.23,5.23,0,0,1-1.8,2.18l-.86.59Z"/><path class="cls-8" d="M91.72,87.32a8,8,0,0,0-13-8.82l-.16-.09A6.26,6.26,0,0,0,73.4,89.85l.29.12a7.69,7.69,0,1,0,15.3.65A7.91,7.91,0,0,0,91.72,87.32ZM86.2,90.24a5,5,0,0,1-7,4.83,5,5,0,0,1-2.92-5.26l.2-1.46-1.5-.57a3.73,3.73,0,1,1,3-6.84L78,81l1.21.59.94-1a5.29,5.29,0,1,1,6.82,8l-.85.6Z"/><path class="cls-9" d="M65.26,55.67c0,7.26-5.52,13.15-12.32,13.15S40.63,62.93,40.63,55.67s5.51-13.15,12.31-13.15S65.26,48.4,65.26,55.67Z"/><path class="cls-10" d="M51.71,53.33a1.41,1.41,0,1,1,.36,2.79,1.41,1.41,0,1,1-.36-2.79Z"/><path class="cls-10" d="M46.21,49.41a1.41,1.41,0,1,1,1.34,2.48,1.45,1.45,0,0,1-2-.53A1.47,1.47,0,0,1,46.21,49.41Z"/><path class="cls-10" d="M60.92,51.78a1.41,1.41,0,1,1-.66,1.95A1.45,1.45,0,0,1,60.92,51.78Z"/><path class="cls-10" d="M61.73,58a1.41,1.41,0,1,1,1.33,2.48,1.45,1.45,0,0,1-2-.52A1.47,1.47,0,0,1,61.73,58Z"/><path class="cls-10" d="M54.69,61.33A1.41,1.41,0,1,1,54,63.27,1.45,1.45,0,0,1,54.69,61.33Z"/><path class="cls-10" d="M56.81,46.6a1.4,1.4,0,1,1-.66,1.95A1.46,1.46,0,0,1,56.81,46.6Z"/><path class="cls-10" d="M50.57,47.31a1,1,0,0,1,1.35.37,1,1,0,0,1-1.8,1A1,1,0,0,1,50.57,47.31Z"/><path class="cls-10" d="M47.63,62.67A1,1,0,0,1,49,63a1,1,0,1,1-1.36-.36Z"/><path class="cls-10" d="M43.12,55.93a1,1,0,0,1,1.36.36,1,1,0,0,1-1.8,1A1,1,0,0,1,43.12,55.93Z"/><path class="cls-10" d="M58.12,55.41A1,1,0,1,1,59,57.1a1,1,0,1,1-.91-1.69Z"/><path class="cls-10" d="M48.48,57.64a1,1,0,1,1,.91,1.7A1,1,0,0,1,48,59,1,1,0,0,1,48.48,57.64Z"/><path class="cls-11" d="M55.57,54.65A1.56,1.56,0,1,1,54,53,1.61,1.61,0,0,1,55.57,54.65Z"/><path class="cls-11" d="M60.65,49.19a1.56,1.56,0,1,1-2.91,1.11,1.56,1.56,0,1,1,2.91-1.11Z"/><path class="cls-11" d="M56,65a1.56,1.56,0,1,1-2-1A1.59,1.59,0,0,1,56,65Z"/><path class="cls-11" d="M49,65a1.56,1.56,0,1,1-2-1A1.6,1.6,0,0,1,49,65Z"/><path class="cls-11" d="M46.38,56.77a1.63,1.63,0,0,1-.87,2.12,1.67,1.67,0,0,1-1.18-3.11A1.63,1.63,0,0,1,46.38,56.77Z"/><path class="cls-11" d="M62.23,61.21a1.56,1.56,0,1,1-2-1A1.6,1.6,0,0,1,62.23,61.21Z"/><path class="cls-11" d="M62.34,54.27a1.1,1.1,0,0,1-.6,1.43,1.14,1.14,0,0,1-.8-2.12A1.11,1.11,0,0,1,62.34,54.27Z"/><path class="cls-11" d="M45.91,48.84a1.11,1.11,0,0,1-.59,1.45,1.14,1.14,0,1,1,.59-1.45Z"/><path class="cls-11" d="M53.94,44.86a1.07,1.07,0,1,1-1.4-.68A1.11,1.11,0,0,1,53.94,44.86Z"/><path class="cls-11" d="M52.38,61.38A1.07,1.07,0,1,1,51,60.7,1.1,1.1,0,0,1,52.38,61.38Z"/><path class="cls-11" d="M51.31,50.5a1.07,1.07,0,1,1-2,.75,1.07,1.07,0,1,1,2-.75Z"/><path class="cls-12" d="M98.64,103.1a1.52,1.52,0,1,1-1.44-2.66,1.63,1.63,0,0,1,1.52,0V86.55a1.38,1.38,0,0,1,0-1V80.77a12.28,12.28,0,0,0-3.38-.49c-7.29,0-13.21,6.31-13.21,14.1s5.92,14.1,13.21,14.1a12.67,12.67,0,0,0,3.38-.49v-5Zm-3.74-21a1.19,1.19,0,0,1,1.5.74,1.14,1.14,0,1,1-1.5-.74Zm-2.11,3.36a1,1,0,1,1-.48,1.44A1.07,1.07,0,0,1,92.79,85.42Zm-6.49.91a1.19,1.19,0,0,1,1.5.73,1.21,1.21,0,0,1,0,.86,2.09,2.09,0,0,1,.32-.25,1.51,1.51,0,1,1-.71,2.09,1.49,1.49,0,0,1,0-1.32.85.85,0,0,1-.25.17,1.22,1.22,0,0,1-.87-2.28ZM85.18,96.76a.9.9,0,0,1,0-.16,1,1,0,0,1-.82-.5,1.07,1.07,0,0,1,.48-1.43,1.09,1.09,0,0,1,1,0,1.38,1.38,0,0,1,.25-.17,1.78,1.78,0,1,1-.92,2.26Zm5,9.85a1.79,1.79,0,0,1-1.27-3.34l.2,0a1.07,1.07,0,0,1,.5-1.36,1,1,0,1,1,1,1.78,1.79,1.79,0,0,1-.45,3Zm1.32-8.31A1,1,0,1,1,92,96.88,1.06,1.06,0,0,1,91.53,98.3Zm-.08-8.66a1.18,1.18,0,0,1,.64-1.54A1.22,1.22,0,0,1,93,90.37,1.19,1.19,0,0,1,91.45,89.64ZM94.1,102a1.22,1.22,0,1,1,.63-1.54A1.19,1.19,0,0,1,94.1,102Zm.31-7.17a1.58,1.58,0,0,1-1.8-1.29A1.56,1.56,0,0,1,94,91.87a1.63,1.63,0,0,1,1.19.3,1.64,1.64,0,0,1,1.28-.66,1.78,1.78,0,0,1,0,3.56,1.63,1.63,0,0,1-1.24-.6A1.83,1.83,0,0,1,94.41,94.87Zm3.23,11.74a1.79,1.79,0,0,1-1.27-3.34,1.79,1.79,0,0,1,1.27,3.34Z"/><path class="cls-10" d="M95.21,92.17a1.63,1.63,0,0,0-1.19-.3,1.56,1.56,0,0,0-1.41,1.71,1.58,1.58,0,0,0,1.8,1.29,1.83,1.83,0,0,0,.84-.4,1.82,1.82,0,0,1,0-2.3Z"/><path class="cls-10" d="M87.42,88.44a1.49,1.49,0,0,0,0,1.32,1.61,1.61,0,1,0,.71-2.09,2.09,2.09,0,0,0-.32.25A1.12,1.12,0,0,1,87.42,88.44Z"/><path class="cls-10" d="M97.2,100.44a1.52,1.52,0,1,0,1.44,2.66l.08-.07v-2.6A1.63,1.63,0,0,0,97.2,100.44Z"/><path class="cls-10" d="M98.72,86.55v-1A1.38,1.38,0,0,0,98.72,86.55Z"/><path class="cls-10" d="M93.77,87.24a1,1,0,1,0-1.46-.38A1.07,1.07,0,0,0,93.77,87.24Z"/><path class="cls-10" d="M90.66,103.66a1,1,0,1,0-1-1.78,1.07,1.07,0,0,0-.5,1.36A1.68,1.68,0,0,1,90.66,103.66Z"/><path class="cls-10" d="M85.85,94.67a1.09,1.09,0,0,0-1,0,1.07,1.07,0,0,0-.48,1.43,1,1,0,0,0,.82.5A1.69,1.69,0,0,1,85.85,94.67Z"/><path class="cls-10" d="M90.55,96.49a1,1,0,1,0,1,1.81,1,1,0,1,0-1-1.81Z"/><path class="cls-11" d="M96.49,95.07a1.78,1.78,0,0,0,0-3.56,1.64,1.64,0,0,0-1.28.66,1.43,1.43,0,0,1,0,2.3A1.63,1.63,0,0,0,96.49,95.07Z"/><path class="cls-11" d="M95.8,93.15a1.45,1.45,0,0,0-.59-1,1.82,1.82,0,0,0,0,2.3A1.46,1.46,0,0,0,95.8,93.15Z"/><path class="cls-11" d="M98.57,104.35a1.68,1.68,0,1,0-3.13,1.19,1.68,1.68,0,1,0,3.13-1.19Z"/><path class="cls-11" d="M90.66,103.66l0,0a1.07,1.07,0,0,1-1.46-.38.64.64,0,0,1,0-.07l-.2,0a1.79,1.79,0,1,0,1.72.39Z"/><path class="cls-11" d="M90.62,103.69l0,0a1.68,1.68,0,0,0-1.52-.42.64.64,0,0,0,0,.07A1.07,1.07,0,0,0,90.62,103.69Z"/><path class="cls-11" d="M88.3,95.57a1.73,1.73,0,0,0-2.2-1.07,1.38,1.38,0,0,0-.25.17,1,1,0,0,1,.42.38,1.05,1.05,0,0,1-.48,1.43,1.13,1.13,0,0,1-.64.12.9.9,0,0,0,0,.16,1.67,1.67,0,1,0,3.12-1.19Z"/><path class="cls-11" d="M85.79,96.48a1.05,1.05,0,0,0,.48-1.43,1,1,0,0,0-.42-.38,1.69,1.69,0,0,0-.7,1.93A1.13,1.13,0,0,0,85.79,96.48Z"/><path class="cls-11" d="M87.17,88.61a.85.85,0,0,0,.25-.17,1.73,1.73,0,0,1,.39-.52,1.21,1.21,0,0,0,0-.86,1.14,1.14,0,1,0-.63,1.55Z"/><path class="cls-11" d="M87.42,88.44a1.12,1.12,0,0,0,.39-.52A1.73,1.73,0,0,0,87.42,88.44Z"/><path class="cls-11" d="M95.78,84.34a1.18,1.18,0,0,0,.62-1.54,1.14,1.14,0,1,0-.62,1.54Z"/><path class="cls-11" d="M93.23,99.76a1.22,1.22,0,1,0,1.5.74A1.19,1.19,0,0,0,93.23,99.76Z"/><path class="cls-11" d="M93.58,88.83a1.16,1.16,0,0,0-1.49-.73,1.18,1.18,0,0,0-.64,1.54,1.19,1.19,0,0,0,1.5.73A1.17,1.17,0,0,0,93.58,88.83Z"/><path class="cls-13" d="M46.56,50.83a5.9,5.9,0,0,0-9.62-6.51l-.12-.06a4.62,4.62,0,0,0-3.77,8.44l.22.07a5.67,5.67,0,1,0,11.27.48A5.79,5.79,0,0,0,46.56,50.83ZM42.48,53a3.55,3.55,0,0,1-.31,1.7,3.69,3.69,0,0,1-7-2l.15-1.07-1.11-.44a2.75,2.75,0,1,1,2.21-5l.06.05.9.42.69-.71a3.9,3.9,0,0,1,6.36,4.3,3.84,3.84,0,0,1-1.33,1.61l-.63.43Z"/><path class="cls-14" d="M110,36.84c-2.55-1.15-4.64.2-4.64,3V136.1c0,2.8-.62,4.83-1.39,4.52a25.71,25.71,0,0,1-5-4.14L33,70.43a4,4,0,0,0-6.4.65S0,92.51,0,139.6A104.87,104.87,0,0,0,104.87,244.47c57.91,0,103.21-47,104.86-104.87C212.37,47.64,110,36.84,110,36.84Z"/><path class="cls-6" d="M208.32,118.29a113,113,0,0,1,.59,15.4C207.25,191.57,162,238.56,104,238.56A104.88,104.88,0,0,1,.64,151.07a104.86,104.86,0,0,0,104.23,93.4c57.91,0,103.21-47,104.86-104.87A108.8,108.8,0,0,0,208.32,118.29Z"/><path class="cls-15" d="M41.5,84l58.64,59.93s10.18,7.29,9.92-3.46-.16-91.54-.16-91.54,90.17,10.74,81.84,104.87c-7.42,83.83-118,91.09-152.57,48S11.13,103.55,41.5,84Z"/><path class="cls-16" d="M198.19,141.11c-.25-2.79-.49-6.12-.54-7.43s-.41-6.71-.91-9.47c0,0-7.22-39.74-23.11-54.06-1.76-1.62-3.53-3.16-5.33-4.61-18.88-15.23-53.46-20.89-53.46-20.89a4.12,4.12,0,0,0-4.94,4.26l.09,6.73a6.37,6.37,0,0,0,5.08,5.94l21.71,1.5a26.7,26.7,0,0,1,9,2l1.87,1.07a84.35,84.35,0,0,1,37.46,44.7l.78,2.16a40,40,0,0,1,1.25,9.55l-4.74,48.35a34,34,0,0,1-2.47,8.94l-1.07,1.88a84.93,84.93,0,0,1-21.26,24.53l-1.72,1.35a30.62,30.62,0,0,1-8.64,3.58l-48.33,11a28.07,28.07,0,0,1-9.26.56l-2.14-.47A84.6,84.6,0,0,1,75,218.55l-2-.77a32.32,32.32,0,0,1-7.55-5.37L29.07,172.15a30.51,30.51,0,0,1-4.75-8.26l-.6-2.26c-.65-2.37-1.19-4.76-1.61-7.15l-.43-2.38a27.22,27.22,0,0,1,1-9.6l13.57-49a31.9,31.9,0,0,1,2.83-6.42c.66-.88,2.47-3.12,2.42-3.13s-1.2-1.15-2.58-2.53a4.33,4.33,0,0,0-5.6,0c-1.69,1.36-9.51,6.14-10.63,8l-.84,1.82c-9.35,20.09-13,60.56-13,60.56a38.76,38.76,0,0,0,.24,8.76l.43,1.84A97.59,97.59,0,0,0,22.65,193l1.25,1.93a24.06,24.06,0,0,0,7.39,5.65L58.94,223.1l7.18,7.18,5.67,1.43c2.63,1,6.8,2.32,9.29,3l2.3.5a97.61,97.61,0,0,0,21.49,2.38c2.32,0,4.63-.09,6.91-.25l2.29-.16a45.77,45.77,0,0,0,9.24-2.71l47.78-25.23a26.29,26.29,0,0,0,7.6-5.16l1.38-1.65a98.09,98.09,0,0,0,16.4-27.93l.79-2.17a52.84,52.84,0,0,0,1.52-9.57Z"/><path class="cls-6" d="M198.19,141.11c-.25-2.79-.49-6.12-.54-7.43s-.41-6.71-.91-9.47c0,0-7.22-39.74-23.11-54.06-1.76-1.62-3.53-3.16-5.33-4.61-18.88-15.23-53.46-20.89-53.46-20.89a4.12,4.12,0,0,0-4.94,4.26l.09,6.73a6.37,6.37,0,0,0,5.08,5.94l21.71,1.5a26.7,26.7,0,0,1,9,2l1.87,1.07a84.35,84.35,0,0,1,37.46,44.7l.78,2.16a40,40,0,0,1,1.25,9.55l-4.74,48.35a34,34,0,0,1-2.47,8.94l-1.07,1.88a84.93,84.93,0,0,1-21.26,24.53l-1.72,1.35a30.62,30.62,0,0,1-8.64,3.58l-48.33,11a28.07,28.07,0,0,1-9.26.56l-2.14-.47A84.6,84.6,0,0,1,75,218.55l-2-.77a32.32,32.32,0,0,1-7.55-5.37L29.07,172.15a30.51,30.51,0,0,1-4.75-8.26l-.6-2.26c-.65-2.37-1.19-4.76-1.61-7.15l-.43-2.38a27.22,27.22,0,0,1,1-9.6l13.57-49a31.9,31.9,0,0,1,2.83-6.42c.66-.88,2.47-3.12,2.42-3.13s-1.2-1.15-2.58-2.53a4.33,4.33,0,0,0-5.6,0c-1.69,1.36-9.51,6.14-10.63,8l-.84,1.82c-9.35,20.09-13,60.56-13,60.56a38.76,38.76,0,0,0,.24,8.76l.43,1.84A97.59,97.59,0,0,0,22.65,193l1.25,1.93a24.06,24.06,0,0,0,7.39,5.65L58.94,223.1l7.18,7.18,5.67,1.43c2.63,1,6.8,2.32,9.29,3l2.3.5a97.61,97.61,0,0,0,21.49,2.38c2.32,0,4.63-.09,6.91-.25l2.29-.16a45.77,45.77,0,0,0,9.24-2.71l47.78-25.23a26.29,26.29,0,0,0,7.6-5.16l1.38-1.65a98.09,98.09,0,0,0,16.4-27.93l.79-2.17a52.84,52.84,0,0,0,1.52-9.57Z"/><path class="cls-6" d="M198.19,141.11c-.25-2.79-.49-6.12-.54-7.43s-.41-6.71-.91-9.47c0,0-7.22-39.74-23.11-54.06-1.76-1.62-3.53-3.16-5.33-4.61-18.88-15.23-53.46-20.89-53.46-20.89a4.12,4.12,0,0,0-4.94,4.26l.09,6.73a6.37,6.37,0,0,0,5.08,5.94l21.71,1.5a26.7,26.7,0,0,1,9,2l1.87,1.07a84.35,84.35,0,0,1,37.46,44.7l.78,2.16a40,40,0,0,1,1.25,9.55l-4.74,48.35a34,34,0,0,1-2.47,8.94l-1.07,1.88a84.93,84.93,0,0,1-21.26,24.53l-1.72,1.35a30.62,30.62,0,0,1-8.64,3.58l-48.33,11a28.07,28.07,0,0,1-9.26.56l-2.14-.47A84.6,84.6,0,0,1,75,218.55l-2-.77a32.32,32.32,0,0,1-7.55-5.37L29.07,172.15a30.51,30.51,0,0,1-4.75-8.26l-.6-2.26c-.65-2.37-1.19-4.76-1.61-7.15l-.43-2.38a27.22,27.22,0,0,1,1-9.6l13.57-49a31.9,31.9,0,0,1,2.83-6.42c.66-.88,2.47-3.12,2.42-3.13s-1.2-1.15-2.58-2.53a4.33,4.33,0,0,0-5.6,0c-1.69,1.36-9.51,6.14-10.63,8l-.84,1.82c-9.35,20.09-13,60.56-13,60.56a38.76,38.76,0,0,0,.24,8.76l.43,1.84A97.59,97.59,0,0,0,22.65,193l1.25,1.93a24.06,24.06,0,0,0,7.39,5.65L58.94,223.1l7.18,7.18,5.67,1.43c2.63,1,6.8,2.32,9.29,3l2.3.5a97.61,97.61,0,0,0,21.49,2.38c2.32,0,4.63-.09,6.91-.25l2.29-.16a45.77,45.77,0,0,0,9.24-2.71l47.78-25.23a26.29,26.29,0,0,0,7.6-5.16l1.38-1.65a98.09,98.09,0,0,0,16.4-27.93l.79-2.17a52.84,52.84,0,0,0,1.52-9.57Z"/><path class="cls-17" d="M83.93,199.48A10.27,10.27,0,1,0,94.2,209.75,10.26,10.26,0,0,0,83.93,199.48Zm0,16a5.68,5.68,0,1,1,5.67-5.68A5.68,5.68,0,0,1,83.93,215.43Z"/><path class="cls-18" d="M121,64.53A8.49,8.49,0,1,0,129.45,73,8.49,8.49,0,0,0,121,64.53Zm0,13.18A4.69,4.69,0,1,1,125.65,73,4.69,4.69,0,0,1,121,77.71Z"/><path class="cls-19" d="M114.65,162.8h0a5.68,5.68,0,0,1,11.32.92h0l4.58.37h0a10.27,10.27,0,1,0-20.48-1.68h0Z"/><path class="cls-20" d="M131.78,100.25a6.73,6.73,0,0,0,3.81-.5,6.6,6.6,0,0,0,3.41,3.68c4.6,2.4,10.67,1.39,13.06-3.21l-3.72-1.93h0c-1.32,2.53-3.06,4-5.6,2.66A5.19,5.19,0,0,1,140,95.71a2.44,2.44,0,0,0,.19-.6,8.66,8.66,0,0,1,.34-1.15l-.19-.09a32.43,32.43,0,0,1,2.87-7.94l-3.44-1.14-3,7.23a13.87,13.87,0,0,0-1.49,4.28,3.81,3.81,0,0,1-3.07.88,3.85,3.85,0,0,1-3.2-4.39h0L126,92.3A7,7,0,0,0,131.78,100.25Z"/><path class="cls-21" d="M48.09,174.86h0a5.67,5.67,0,1,1-11.28-1.25h0l-4.57-.5h0a10.27,10.27,0,1,0,20.42,2.26h0Z"/><path class="cls-22" d="M177.61,99.24a17.89,17.89,0,0,0-31,17.89s.18.53,1.18,0,29.32-17,29.32-17S177.93,99.78,177.61,99.24Z"/><path class="cls-23" d="M148.54,111.84c-.8-1.37-1.8-4.27-1.17-6.11,1.63-8.73,9.77-14.13,20-11.55A11.62,11.62,0,0,1,173,98.29h0c.79,1.37-1.05,3.06-3,2.63-8.75-1.94-15.36,1.74-18.21,10.11-.63,1.83-2.46,2.18-3.24.81Z"/><path class="cls-23" d="M148.54,111.84c-.8-1.37-1.8-4.27-1.17-6.11,1.63-8.73,9.77-14.13,20-11.55A11.62,11.62,0,0,1,173,98.29h0c.79,1.37-1.05,3.06-3,2.63-8.75-1.94-15.36,1.74-18.21,10.11-.63,1.83-2.46,2.18-3.24.81Z"/><path class="cls-24" d="M158.16,100.59c.48-4-1.9-3.29-1.9-3.29S154.43,99,158.16,100.59Z"/><path class="cls-24" d="M155.61,102c-.76-4-2.8-2.58-2.8-2.58S151.57,101.55,155.61,102Z"/><path class="cls-24" d="M153,104.7c.19-4.06-2.13-3.15-2.13-3.15S149.13,103.36,153,104.7Z"/><path class="cls-24" d="M151.69,106.92c-1.36-3.11-2.75-1.57-2.75-1.57S148.33,107.33,151.69,106.92Z"/><path class="cls-24" d="M150.62,110.8c-.14-2.82-1.68-2-1.68-2S147.88,110.14,150.62,110.8Z"/><path class="cls-24" d="M160.62,99.06c-3.07-2.65-.82-3.71-.82-3.71S162.29,95.36,160.62,99.06Z"/><path class="cls-24" d="M164.66,98.72C161.05,96.85,163,95.3,163,95.3S165.42,94.73,164.66,98.72Z"/><path class="cls-24" d="M166.62,99.06c-2-2.73,0-3.17,0-3.17S168.67,96.36,166.62,99.06Z"/><path class="cls-24" d="M170.13,99.54c-2.37-1.54-.93-2.48-.93-2.48S170.92,96.84,170.13,99.54Z"/><path class="cls-25" d="M52.67,121.78A17.89,17.89,0,0,0,26,98s-.45.33.37,1.12,25.3,22.54,25.3,22.54S52.26,122.26,52.67,121.78Z"/><path class="cls-23" d="M31.6,98.11c1-1.18,3.5-3,5.43-3,8.81-1.19,16.49,4.86,17.23,15.38a11.45,11.45,0,0,1-2.14,6.6h0c-1,1.19-3.24,0-3.43-2-.9-8.92-6.46-14-15.3-14.13-1.93,0-2.84-1.65-1.79-2.83Z"/><path class="cls-23" d="M31.6,98.11c1-1.18,3.5-3,5.43-3,8.81-1.19,16.49,4.86,17.23,15.38a11.45,11.45,0,0,1-2.14,6.6h0c-1,1.19-3.24,0-3.43-2-.9-8.92-6.46-14-15.3-14.13-1.93,0-2.84-1.65-1.79-2.83Z"/><path class="cls-24" d="M45.3,103.74c4-.82,2.54-2.84,2.54-2.84S45.66,99.69,45.3,103.74Z"/><path class="cls-24" d="M43.2,101.74c3.55-2,1.56-3.47,1.56-3.47S42.33,97.77,43.2,101.74Z"/><path class="cls-24" d="M39.77,100.08c3.92-1.09,2.33-3,2.33-3S39.84,96,39.77,100.08Z"/><path class="cls-24" d="M37.27,99.57c2.53-2.27.63-3.11.63-3.11S35.83,96.5,37.27,99.57Z"/><path class="cls-24" d="M33.24,99.77c2.63-1,1.4-2.24,1.4-2.24S33,97,33.24,99.77Z"/><path class="cls-24" d="M47.52,105.59c1.56-3.74,3.27-1.94,3.27-1.94S51.56,106,47.52,105.59Z"/><path class="cls-24" d="M49.12,109.31c.63-4,2.71-2.64,2.71-2.64S53.14,108.79,49.12,109.31Z"/><path class="cls-24" d="M49.4,111.3c2-2.77,3-1,3-1S52.61,112.39,49.4,111.3Z"/><path class="cls-24" d="M50,114.77c.72-2.73,2.07-1.65,2.07-1.65S52.86,114.67,50,114.77Z"/><path class="cls-26" d="M137.14,183.06a17.68,17.68,0,1,0,33.15,12.29s.3-.47-.74-.91-31.41-11.6-31.41-11.6S137.35,182.47,137.14,183.06Z"/><path class="cls-23" d="M165.07,197.23c-.54,1.47-2.13,4.07-3.91,4.74-7.67,4.26-16.93,1.48-21.39-7.93a11.38,11.38,0,0,1-.42-6.85h0c.54-1.46,3-1.14,3.87.6,4.06,7.89,11,10.59,19.18,7.49,1.79-.68,3.21.5,2.67,1.95Z"/><path class="cls-23" d="M165.07,197.23c-.54,1.47-2.13,4.07-3.91,4.74-7.67,4.26-16.93,1.48-21.39-7.93a11.38,11.38,0,0,1-.42-6.85h0c.54-1.46,3-1.14,3.87.6,4.06,7.89,11,10.59,19.18,7.49,1.79-.68,3.21.5,2.67,1.95Z"/><path class="cls-24" d="M150.43,197c-3.36,2.19-1.3,3.53-1.3,3.53S151.56,200.85,150.43,197Z"/><path class="cls-24" d="M153.09,198.08c-2.56,3.1-.19,3.75-.19,3.75S155.32,201.42,153.09,198.08Z"/><path class="cls-24" d="M156.84,198.37c-3.2,2.42-1.05,3.61-1.05,3.61S158.24,202.13,156.84,198.37Z"/><path class="cls-24" d="M159.32,197.94c-1.5,3,.56,3.09.56,3.09S161.76,200.25,159.32,197.94Z"/><path class="cls-24" d="M163,196.3c-2.05,1.89-.48,2.57-.48,2.57S164.18,198.81,163,196.3Z"/><path class="cls-24" d="M147.72,196.09c-.08,4-2.3,3-2.3,3S143.85,197.16,147.72,196.09Z"/><path class="cls-24" d="M144.92,193.24c.85,3.92-1.55,3.42-1.55,3.42S141.4,195.18,144.92,193.24Z"/><path class="cls-24" d="M143.93,191.53c-.8,3.25-2.42,2-2.42,2S140.59,191.68,143.93,191.53Z"/><path class="cls-24" d="M142.09,188.56c.33,2.77-1.3,2.27-1.3,2.27S139.53,189.66,142.09,188.56Z"/><path class="cls-27" d="M50.09,165.71a19.89,19.89,0,0,0,39.39-5.58s0-.62-1.22-.49S51,165,51,165,50,165,50.09,165.71Z"/><path class="cls-23" d="M85.31,164.8c.26,1.75.08,5.16-1.33,6.78-5.31,8.33-16,10.52-25.42,3.59a12.69,12.69,0,0,1-4.07-6.55h0c-.25-1.74,2.35-2.73,4.16-1.47,8.22,5.63,16.56,4.59,23-2.86,1.41-1.62,3.44-1.22,3.68.51Z"/><path class="cls-23" d="M85.31,164.8c.26,1.75.08,5.16-1.33,6.78-5.31,8.33-16,10.52-25.42,3.59a12.69,12.69,0,0,1-4.07-6.55h0c-.25-1.74,2.35-2.73,4.16-1.47,8.22,5.63,16.56,4.59,23-2.86,1.41-1.62,3.44-1.22,3.68.51Z"/><path class="cls-24" d="M70.71,172.4c-2.16,4,.59,4.18.59,4.18S73.88,175.61,70.71,172.4Z"/><path class="cls-24" d="M73.91,172.05c-.87,4.43,1.82,3.81,1.82,3.81S77.9,174.16,73.91,172.05Z"/><path class="cls-24" d="M77.78,170.33c-1.88,4.11.89,4.13.89,4.13S81.18,173.3,77.78,170.33Z"/><path class="cls-24" d="M80,168.57c.12,3.77,2.2,2.77,2.2,2.77S83.66,169.54,80,168.57Z"/><path class="cls-24" d="M82.73,165c-1,3,.9,2.8.9,2.8S85.28,166.83,82.73,165Z"/><path class="cls-24" d="M67.54,173c2.06,4-.7,4.16-.7,4.16S64.28,176.08,67.54,173Z"/><path class="cls-24" d="M63.23,171.63c2.94,3.42.3,4.21.3,4.21S60.79,175.43,63.23,171.63Z"/><path class="cls-24" d="M61.35,170.46c.93,3.65-1.35,3.26-1.35,3.26S58.12,172.4,61.35,170.46Z"/><path class="cls-24" d="M57.94,168.5c1.8,2.58-.09,2.94-.09,2.94S56,171,57.94,168.5Z"/><path class="cls-28" d="M131.14,199.38a6.94,6.94,0,0,0-3.09-2.3,6.6,6.6,0,0,0,.11-5c-1.64-4.92-6.7-8.4-11.61-6.77l1.32,4h0c2.71-.9,5-.72,5.87,2a5.2,5.2,0,0,1-1.68,5.66,2,2,0,0,0-.56.31,8.67,8.67,0,0,1-1,.58l.07.2a32.83,32.83,0,0,1-7.59,3.71l1.69,3.21,7.15-3.14a13.85,13.85,0,0,0,4-2,3.8,3.8,0,0,1,2.81,1.5,3.84,3.84,0,0,1-.75,5.39h0l1.87,2.48A7,7,0,0,0,131.14,199.38Z"/><path class="cls-10" d="M126.43,125.66s-1-3.48,1.58-3.48,5.05,5.69,1.9,8.22-23.07-11-5.69-24.89,24.48,6.09,21.64,8.3-7.9,1.26-7-1.89,3.79-1,3.79-1-4-4.51-6-1.1c-1.6,2.74,2.84,5.59,5.68,7.07s7.91,4.61,2.84,8.72-3.15,7.9-8.52,2.52-7.42-10.29-10.83-7.26C123.75,122.82,126.43,125.66,126.43,125.66Z"/><path class="cls-10" d="M98.54,176s3-1.7,3.57.62-4,6-7.1,3.71,4.58-23.84,21.52-11.18.26,24-2.45,21.89-3-7,.08-6.85,1.77,3.26,1.77,3.26,3.19-4.78-.41-5.79c-2.91-.81-4.48,4-5.15,6.92s-2.35,8.38-7.34,4.71-8-1-4.36-7.25,7.69-9.28,4.09-11.69C100.51,172.84,98.54,176,98.54,176Z"/><path class="cls-29" d="M160.73,150.4a7.05,7.05,0,0,0-3.47,1.67,6.57,6.57,0,0,0-4.38-2.43c-5.11-.84-10.56,2-11.4,7.13l4.14.68h0c.46-2.82,1.66-4.74,4.48-4.28a5.17,5.17,0,0,1,4.23,4.12,2.72,2.72,0,0,0,0,.64,7.73,7.73,0,0,1,0,1.19l.21,0a32.79,32.79,0,0,1-.25,8.43H158l.55-7.8a13.82,13.82,0,0,0,.08-4.52,3.75,3.75,0,0,1,2.63-1.79,3.84,3.84,0,0,1,4.42,3.17h0l3.07-.5A7,7,0,0,0,160.73,150.4Z"/><path class="cls-30" d="M57.5,141.93A6.79,6.79,0,0,0,54,143.58a6.66,6.66,0,0,0-4.4-2.42c-5.1-.85-10.55,2-11.39,7.13l4.14.68h0c.46-2.82,1.66-4.73,4.49-4.26a5.15,5.15,0,0,1,4.23,4.11,2.21,2.21,0,0,0,0,.63,9,9,0,0,1,0,1.2l.2,0a32.2,32.2,0,0,1-.25,8.42h3.63l.55-7.78a13.94,13.94,0,0,0,.08-4.54,3.82,3.82,0,0,1,7.05,1.39h0l3.07-.51A7,7,0,0,0,57.5,141.93Z"/><path class="cls-31" d="M176.85,136.49a10.27,10.27,0,1,0,10.26,10.27A10.27,10.27,0,0,0,176.85,136.49Zm0,15.94a5.67,5.67,0,1,1,5.67-5.67A5.68,5.68,0,0,1,176.85,152.43Z"/><path class="cls-10" d="M160,165.71l9.77,26.12a13.77,13.77,0,0,1,3.29-1.82c5.75-2.25,2.09-6.56-.05-8.71s-5.32-6-3.1-8c2.76-2.5,5.1,2.73,5.1,2.73s-1.92-2.82-3.69-.24,2.52,4.9,5.73,3.72S179.63,158.29,160,165.71Z"/><path class="cls-10" d="M45.74,182.81l8.74,23.36a13,13,0,0,1,2.94-1.62c5.15-2,1.87-5.88,0-7.8s-4.77-5.37-2.77-7.17c2.47-2.24,4.56,2.44,4.56,2.44s-1.72-2.53-3.31-.21,2.26,4.37,5.13,3.32S63.28,176.16,45.74,182.81Z"/><path class="cls-32" d="M47.16,113.3a7.76,7.76,0,1,0,7.76,7.76A7.76,7.76,0,0,0,47.16,113.3Zm0,12a4.29,4.29,0,1,1,4.29-4.29A4.29,4.29,0,0,1,47.16,125.35Z"/><path class="cls-10" d="M57.09,121.63l10.3,27.55a14.75,14.75,0,0,1,3.46-1.92c6.07-2.38,2.21-6.93,0-9.19s-5.61-6.33-3.26-8.46c2.91-2.64,5.38,2.88,5.38,2.88s-2-3-3.9-.26,2.66,5.17,6,3.92S77.76,113.81,57.09,121.63Z"/><path class="cls-10" d="M89.91,30.27,80.24,53.63a11.72,11.72,0,0,1,3.31.82c5.2,2.06,5.45-3.06,5.34-5.81s.19-7.27,2.92-7.24c3.37.06,1.69,5,1.69,5s.46-3.07-2.3-2.45-1.36,4.81,1.49,6S107.5,37.47,89.91,30.27Z"/><path class="cls-10" d="M53.57,67.93l21.07,14a11.58,11.58,0,0,1,1.44-3.08c3-4.72-2-5.94-4.68-6.37s-7.09-1.58-6.54-4.25c.71-3.3,5.2-.71,5.2-.71s-2.9-1-2.83,1.8,4.46,2.26,6.18-.32S64,52.05,53.57,67.93Z"/><path class="cls-10" d="M120.75,66.13l21.06,14A12.91,12.91,0,0,1,143.26,77c3-4.71-1.95-5.93-4.67-6.37s-7.1-1.57-6.55-4.24c.72-3.31,5.21-.71,5.21-.71s-2.91-1-2.84,1.8,4.45,2.25,6.19-.33S131.2,50.25,120.75,66.13Z"/><path class="cls-33" d="M94,18.91A20.25,20.25,0,1,0,83.74,58.1s.56.29.94-1S94.33,20,94.33,20,94.66,19.07,94,18.91Z"/><path class="cls-23" d="M81,52.36c-1.73-.45-4.88-2-5.85-3.92-5.74-8.25-3.62-19.12,6.6-25.29a12.89,12.89,0,0,1,7.76-1.26h0c1.73.45,1.64,3.28-.25,4.48-8.52,5.53-10.8,13.77-6.34,22.73,1,2-.2,3.72-1.92,3.26Z"/><path class="cls-23" d="M81,52.36c-1.73-.45-4.88-2-5.85-3.92-5.74-8.25-3.62-19.12,6.6-25.29a12.89,12.89,0,0,1,7.76-1.26h0c1.73.45,1.64,3.28-.25,4.48-8.52,5.53-10.8,13.77-6.34,22.73,1,2-.2,3.72-1.92,3.26Z"/><path class="cls-24" d="M79.58,35.65c-2.88-3.59-4.16-1.09-4.16-1.09S75.32,37.37,79.58,35.65Z"/><path class="cls-24" d="M78.66,38.79c-3.83-2.56-4.31.22-4.31.22S75.11,41.72,78.66,38.79Z"/><path class="cls-24" d="M78.75,43.11c-3.13-3.38-4.23-.79-4.23-.79S74.62,45.13,78.75,43.11Z"/><path class="cls-24" d="M79.53,45.89c-3.59-1.36-3.46,1-3.46,1S77.18,48.94,79.53,45.89Z"/><path class="cls-24" d="M81.82,49.85c-2.4-2.12-3-.26-3-.26S79.1,51.53,81.82,49.85Z"/><path class="cls-24" d="M80.31,32.45c-4.58.36-3.65-2.28-3.65-2.28S78.64,28.16,80.31,32.45Z"/><path class="cls-24" d="M83.24,28.93c-4.37,1.42-4.08-1.38-4.08-1.38S80.62,25.15,83.24,28.93Z"/><path class="cls-24" d="M85.08,27.61c-3.8-.55-2.54-2.54-2.54-2.54S84.52,23.82,85.08,27.61Z"/><path class="cls-24" d="M88.26,25.18c-3.14.68-2.74-1.24-2.74-1.24S86.7,22.38,88.26,25.18Z"/><path class="cls-34" d="M155.79,152.76c0,9.08-6.9,16.44-15.4,16.44S125,161.84,125,152.76s6.89-16.44,15.39-16.44S155.79,143.68,155.79,152.76Z"/><path class="cls-10" d="M138.85,149.83a1.81,1.81,0,0,1,2.08,1.5,1.79,1.79,0,0,1-1.62,2,1.76,1.76,0,1,1-.46-3.48Z"/><path class="cls-10" d="M132,144.94a1.76,1.76,0,1,1-.82,2.43A1.82,1.82,0,0,1,132,144.94Z"/><path class="cls-10" d="M150.35,147.89a1.77,1.77,0,1,1-.82,2.44A1.81,1.81,0,0,1,150.35,147.89Z"/><path class="cls-10" d="M151.36,155.67a1.76,1.76,0,1,1-.82,2.44A1.84,1.84,0,0,1,151.36,155.67Z"/><path class="cls-10" d="M142.58,159.83a1.81,1.81,0,0,1,2.48.65,1.88,1.88,0,0,1-3.31,1.78A1.81,1.81,0,0,1,142.58,159.83Z"/><path class="cls-10" d="M145.22,141.41a1.85,1.85,0,0,1,2.49.67,1.88,1.88,0,1,1-2.49-.67Z"/><path class="cls-10" d="M137.42,142.31a1.21,1.21,0,1,1-.56,1.67A1.25,1.25,0,0,1,137.42,142.31Z"/><path class="cls-10" d="M133.75,161.51a1.2,1.2,0,1,1,1.14,2.11,1.2,1.2,0,1,1-1.14-2.11Z"/><path class="cls-10" d="M128.12,153.09a1.21,1.21,0,1,1,1.14,2.12,1.21,1.21,0,1,1-1.14-2.12Z"/><path class="cls-10" d="M146.86,152.43a1.23,1.23,0,0,1,1.69.45,1.29,1.29,0,1,1-1.69-.45Z"/><path class="cls-10" d="M134.81,155.22a1.21,1.21,0,1,1-.56,1.67A1.26,1.26,0,0,1,134.81,155.22Z"/><ellipse class="cls-11" cx="141.73" cy="151.49" rx="1.95" ry="2.08"/><path class="cls-11" d="M150,144.65a2,2,0,1,1-2.56-1.24A2,2,0,0,1,150,144.65Z"/><path class="cls-11" d="M144.16,164.38a2,2,0,1,1-2.56-1.25A2,2,0,0,1,144.16,164.38Z"/><path class="cls-11" d="M135.49,164.38a2,2,0,1,1-3.64,1.39,2,2,0,1,1,3.64-1.39Z"/><path class="cls-11" d="M132.19,154.15a2,2,0,1,1-2.56-1.26A2,2,0,0,1,132.19,154.15Z"/><path class="cls-11" d="M152,159.68a2,2,0,1,1-2.56-1.25A2,2,0,0,1,152,159.68Z"/><path class="cls-11" d="M152.13,151a1.33,1.33,0,1,1-1.75-.85A1.37,1.37,0,0,1,152.13,151Z"/><path class="cls-11" d="M131.61,144.22a1.4,1.4,0,0,1-.75,1.81,1.42,1.42,0,1,1,.75-1.81Z"/><path class="cls-11" d="M141.63,139.25a1.35,1.35,0,0,1-.73,1.79,1.42,1.42,0,1,1,.73-1.79Z"/><path class="cls-11" d="M139.68,159.9a1.37,1.37,0,0,1-.72,1.8,1.39,1.39,0,0,1-1.76-.86,1.37,1.37,0,0,1,.74-1.79A1.35,1.35,0,0,1,139.68,159.9Z"/><path class="cls-11" d="M138.35,146.29a1.36,1.36,0,0,1-.74,1.79,1.38,1.38,0,0,1-1.75-.85,1.36,1.36,0,0,1,.74-1.79A1.38,1.38,0,0,1,138.35,146.29Z"/><path class="cls-35" d="M46.56,152.62c0,9.08-6.9,16.44-15.4,16.44s-15.4-7.36-15.4-16.44,6.9-16.43,15.4-16.43S46.56,143.55,46.56,152.62Z"/><path class="cls-10" d="M29.62,149.7a1.76,1.76,0,1,1-1.64,2A1.81,1.81,0,0,1,29.62,149.7Z"/><path class="cls-10" d="M22.75,144.8a1.76,1.76,0,1,1-.82,2.44A1.83,1.83,0,0,1,22.75,144.8Z"/><path class="cls-10" d="M41.12,147.77a1.82,1.82,0,0,1,2.49.65,1.88,1.88,0,0,1-3.31,1.78A1.81,1.81,0,0,1,41.12,147.77Z"/><path class="cls-10" d="M42.13,155.54a1.76,1.76,0,1,1-.82,2.44A1.82,1.82,0,0,1,42.13,155.54Z"/><path class="cls-10" d="M33.34,159.69a1.83,1.83,0,0,1,2.49.67,1.88,1.88,0,0,1-3.31,1.77A1.83,1.83,0,0,1,33.34,159.69Z"/><path class="cls-10" d="M36,141.29a1.76,1.76,0,1,1-.83,2.43A1.81,1.81,0,0,1,36,141.29Z"/><path class="cls-10" d="M28.19,142.17a1.21,1.21,0,1,1,1.14,2.13,1.24,1.24,0,0,1-1.7-.46A1.25,1.25,0,0,1,28.19,142.17Z"/><path class="cls-10" d="M24.52,161.37a1.21,1.21,0,1,1,1.14,2.12,1.21,1.21,0,1,1-1.14-2.12Z"/><path class="cls-10" d="M18.88,153A1.21,1.21,0,1,1,20,155.08,1.21,1.21,0,1,1,18.88,153Z"/><path class="cls-10" d="M37.62,152.29a1.21,1.21,0,1,1,1.14,2.12,1.23,1.23,0,0,1-1.7-.45A1.26,1.26,0,0,1,37.62,152.29Z"/><path class="cls-10" d="M25.58,155.09a1.21,1.21,0,1,1-.56,1.66A1.23,1.23,0,0,1,25.58,155.09Z"/><ellipse class="cls-11" cx="32.5" cy="151.35" rx="1.95" ry="2.08"/><path class="cls-11" d="M40.8,144.52a2,2,0,1,1-2.56-1.25A2,2,0,0,1,40.8,144.52Z"/><path class="cls-11" d="M34.92,164.24A1.95,1.95,0,1,1,32.36,163,2,2,0,0,1,34.92,164.24Z"/><path class="cls-11" d="M26.26,164.24a2,2,0,0,1-1.09,2.64A2.08,2.08,0,0,1,23.7,163,2,2,0,0,1,26.26,164.24Z"/><path class="cls-11" d="M23,154a2,2,0,1,1-2.55-1.25A2,2,0,0,1,23,154Z"/><path class="cls-11" d="M42.76,159.54a2,2,0,1,1-2.55-1.25A2,2,0,0,1,42.76,159.54Z"/><path class="cls-11" d="M42.9,150.87a1.33,1.33,0,1,1-1.75-.86A1.38,1.38,0,0,1,42.9,150.87Z"/><path class="cls-11" d="M22.38,144.08a1.41,1.41,0,0,1-.75,1.82,1.42,1.42,0,0,1-1-2.66A1.39,1.39,0,0,1,22.38,144.08Z"/><path class="cls-11" d="M32.4,139.12a1.33,1.33,0,1,1-1.74-.85A1.36,1.36,0,0,1,32.4,139.12Z"/><path class="cls-11" d="M30.45,159.77a1.33,1.33,0,1,1-1.74-.86A1.37,1.37,0,0,1,30.45,159.77Z"/><path class="cls-11" d="M29.12,146.16a1.4,1.4,0,0,1-.74,1.8,1.39,1.39,0,0,1-1.75-.86,1.33,1.33,0,1,1,2.49-.94Z"/><path class="cls-36" d="M96.48,222.9a1.51,1.51,0,1,1,2.62-1.5,1.62,1.62,0,0,1,.05,1.51l13.88-.39a1.38,1.38,0,0,1,1,0l4.76-.14a12.3,12.3,0,0,0,.39-3.39c-.2-7.29-6.68-13-14.46-12.81S90.81,212.46,91,219.75a12.51,12.51,0,0,0,.57,3.36l5-.13Zm20.92-4.31a1.22,1.22,0,0,1-2.25.93,1.21,1.21,0,0,1,.69-1.53A1.19,1.19,0,0,1,117.4,218.59Zm-3.41-2a1,1,0,1,1-1.44-.45A1.07,1.07,0,0,1,114,216.57Zm-1.08-6.46a1.19,1.19,0,0,1-.69,1.52,1.31,1.31,0,0,1-.87,0,1.69,1.69,0,0,1,.27.32,1.51,1.51,0,1,1-2.12-.66,1.5,1.5,0,0,1,1.32,0,1,1,0,0,1-.17-.24,1.22,1.22,0,0,1,2.26-.93Zm-10.46-.84s.1,0,.16,0a1,1,0,0,1,.47-.83,1.08,1.08,0,0,1,1.45.44,1.13,1.13,0,0,1,0,1,.74.74,0,0,1,.17.25,1.78,1.78,0,0,1-3.29,1.35A1.73,1.73,0,0,1,102.45,209.27Zm-9.71,5.3a1.79,1.79,0,0,1,3.3-1.36,1.91,1.91,0,0,0,0,.21,1.09,1.09,0,1,1-.38,1.52,1.78,1.78,0,0,1-3-.37Zm8.34,1.09a1,1,0,1,1,1.44.44A1.06,1.06,0,0,1,101.08,215.66Zm8.66-.32a1.15,1.15,0,1,1-.7,1.53A1.2,1.2,0,0,1,109.74,215.34Zm-12.32,3a1.22,1.22,0,1,1,1.55.58A1.17,1.17,0,0,1,97.42,218.34Zm7.18.11a1.51,1.51,0,1,1,3-.48,1.66,1.66,0,0,1-.27,1.21,1.63,1.63,0,0,1,.7,1.25,1.78,1.78,0,0,1-3.56.1,1.58,1.58,0,0,1,.57-1.25A1.64,1.64,0,0,1,104.6,218.45ZM93,222a1.74,1.74,0,0,1,1-2.23,1.68,1.68,0,1,1,1.28,3.09A1.75,1.75,0,0,1,93,222Z"/><path class="cls-10" d="M107.31,219.18a1.66,1.66,0,0,0,.27-1.21,1.51,1.51,0,1,0-3,.48,1.64,1.64,0,0,0,.42.83,1.81,1.81,0,0,1,2.29-.1Z"/><path class="cls-10" d="M110.82,211.28a1.5,1.5,0,0,0-1.32,0,1.62,1.62,0,1,0,2.12.66,1.69,1.69,0,0,0-.27-.32A1.11,1.11,0,0,1,110.82,211.28Z"/><path class="cls-10" d="M99.1,221.4a1.51,1.51,0,1,0-2.62,1.5l.07.08,2.6-.07A1.62,1.62,0,0,0,99.1,221.4Z"/><path class="cls-10" d="M113,222.52l1,0A1.38,1.38,0,0,0,113,222.52Z"/><path class="cls-10" d="M112.2,217.59a1,1,0,1,0,1.79-1,1,1,0,1,0-1.79,1Z"/><path class="cls-10" d="M95.7,214.94a1,1,0,1,0,.38-1.52A1.67,1.67,0,0,1,95.7,214.94Z"/><path class="cls-10" d="M104.56,209.89a1.13,1.13,0,0,0,0-1,1.08,1.08,0,0,0-1.45-.44,1,1,0,0,0-.47.83A1.69,1.69,0,0,1,104.56,209.89Z"/><path class="cls-10" d="M102.87,214.64a1,1,0,1,0-1.79,1,1,1,0,1,0,1.79-1Z"/><path class="cls-11" d="M104.45,220.53a1.78,1.78,0,0,0,3.56-.1,1.63,1.63,0,0,0-.7-1.25,1.41,1.41,0,0,1-2.29.1A1.58,1.58,0,0,0,104.45,220.53Z"/><path class="cls-11" d="M106.35,219.8a1.46,1.46,0,0,0,1-.62,1.81,1.81,0,0,0-2.29.1A1.46,1.46,0,0,0,106.35,219.8Z"/><path class="cls-11" d="M95.24,222.87A1.68,1.68,0,1,0,93,222,1.75,1.75,0,0,0,95.24,222.87Z"/><path class="cls-11" d="M95.7,214.94l0,0a1.06,1.06,0,0,1,.34-1.47.08.08,0,0,1,.07,0,1.91,1.91,0,0,1,0-.21,1.8,1.8,0,1,0-.34,1.73Z"/><path class="cls-11" d="M95.67,214.91l0,0a1.67,1.67,0,0,0,.38-1.52.08.08,0,0,0-.07,0A1.06,1.06,0,0,0,95.67,214.91Z"/><path class="cls-11" d="M103.73,212.35a1.71,1.71,0,0,0,1-2.21.74.74,0,0,0-.17-.25.93.93,0,0,1-.38.43,1.07,1.07,0,0,1-1.44-.44,1,1,0,0,1-.13-.64c-.06,0-.11,0-.16,0a1.67,1.67,0,1,0,1.28,3.08Z"/><path class="cls-11" d="M102.74,209.88a1.07,1.07,0,0,0,1.44.44.93.93,0,0,0,.38-.43,1.69,1.69,0,0,0-2-.65A1,1,0,0,0,102.74,209.88Z"/><path class="cls-11" d="M110.65,211a1,1,0,0,0,.17.24,1.62,1.62,0,0,1,.53.38,1.31,1.31,0,0,0,.87,0,1.15,1.15,0,1,0-1.57-.59Z"/><path class="cls-11" d="M110.82,211.28a1.11,1.11,0,0,0,.53.38A1.62,1.62,0,0,0,110.82,211.28Z"/><path class="cls-11" d="M115.15,219.52a1.22,1.22,0,1,0,.69-1.53A1.21,1.21,0,0,0,115.15,219.52Z"/><path class="cls-11" d="M99.66,217.41a1.22,1.22,0,1,0-.69,1.51A1.17,1.17,0,0,0,99.66,217.41Z"/><path class="cls-11" d="M110.61,217.46a1.15,1.15,0,1,0-1.57-.59A1.2,1.2,0,0,0,110.61,217.46Z"/><path class="cls-37" d="M89,194.9A8,8,0,0,0,76,186.08L75.8,186a6.27,6.27,0,0,0-5.11,11.45l.3.11a7.69,7.69,0,1,0,15.29.65A8,8,0,0,0,89,194.9Zm-5.53,2.93a5,5,0,1,1-10-.43l.2-1.46-1.5-.58a3.73,3.73,0,1,1,3-6.83l.09.05,1.21.59,1-1a5.28,5.28,0,1,1,6.81,8l-.85.59Z"/><path class="cls-38" d="M94.71,163.45a8,8,0,0,0,4.47-15.11l0-.17a6.26,6.26,0,1,0-12.45-1.41c0,.1,0,.21,0,.31a7.69,7.69,0,1,0,4,14.78A8,8,0,0,0,94.71,163.45Zm-4.45-4.38a5,5,0,0,1-2.32.29,5,5,0,0,1-.28-9.92l1.44-.24.1-1.61a3.73,3.73,0,1,1,7.42.78l0,.1-.19,1.34,1.21.61a5.28,5.28,0,1,1-5.57,8.91l-.82-.63Z"/><path class="cls-39" d="M184.81,125.8a8,8,0,0,0-3.93-15.26c0-.05,0-.11-.07-.17a6.26,6.26,0,0,0-11.4,5.19l.14.28a7.69,7.69,0,0,0,8.21,12.83,7.85,7.85,0,0,0,2.82-2.21A8,8,0,0,0,184.81,125.8Zm-6.08-1.47a4.85,4.85,0,0,1-1.83,1.44,5,5,0,0,1-5.34-8.37l1.11-1-.74-1.42a3.74,3.74,0,1,1,6.78-3.14l0,.11.52,1.23,1.35-.1a5.29,5.29,0,0,1,2.59,10.09,5.43,5.43,0,0,1-2.79.43l-1-.12Z"/></g></g></g></svg>