<svg xmlns="http://www.w3.org/2000/svg" xmlns:xlink="http://www.w3.org/1999/xlink" viewBox="0 0 866.73 772.79"><defs><style>.cls-1{fill:none;}.cls-2{isolation:isolate;}.cls-3{clip-path:url(#clip-path);}.cls-4{fill:#f9eec5;}.cls-5{clip-path:url(#clip-path-2);}.cls-6{fill:url(#Degradado_sin_nombre_250);}.cls-7{fill:#592b1c;}.cls-8{clip-path:url(#clip-path-3);}.cls-9{fill:url(#Degradado_sin_nombre_251);}.cls-10{mix-blend-mode:multiply;}.cls-11{clip-path:url(#clip-path-4);}.cls-12{fill:#eed3af;}.cls-13{clip-path:url(#clip-path-6);}.cls-14{fill:url(#Degradado_sin_nombre_280);}.cls-15{clip-path:url(#clip-path-7);}.cls-16{fill:url(#Degradado_sin_nombre_280-2);}.cls-17{clip-path:url(#clip-path-8);}.cls-18{fill:url(#Degradado_sin_nombre_277);}.cls-19{fill:#a1141a;}.cls-20{clip-path:url(#clip-path-9);}.cls-21{fill:url(#Degradado_sin_nombre_277-2);}.cls-22{clip-path:url(#clip-path-10);}.cls-23{fill:url(#Degradado_sin_nombre_280-3);}.cls-24{clip-path:url(#clip-path-11);}.cls-25{fill:url(#Degradado_sin_nombre_259);}.cls-26{clip-path:url(#clip-path-12);}.cls-27{clip-path:url(#clip-path-13);}.cls-28{fill:url(#Degradado_sin_nombre_258);}.cls-29{clip-path:url(#clip-path-14);}.cls-30{fill:url(#Degradado_sin_nombre_259-2);}.cls-31{clip-path:url(#clip-path-15);}.cls-32{clip-path:url(#clip-path-17);}.cls-33{fill:url(#Degradado_sin_nombre_273);}.cls-34{clip-path:url(#clip-path-18);}.cls-35{fill:url(#Degradado_sin_nombre_273-2);}.cls-36{clip-path:url(#clip-path-19);}.cls-37{fill:url(#Degradado_sin_nombre_273-3);}.cls-38{clip-path:url(#clip-path-20);}.cls-39{fill:url(#Degradado_sin_nombre_280-4);}.cls-40{clip-path:url(#clip-path-21);}.cls-41{fill:url(#Degradado_sin_nombre_273-4);}.cls-42{clip-path:url(#clip-path-22);}.cls-43{fill:url(#Degradado_sin_nombre_277-3);}.cls-44{clip-path:url(#clip-path-23);}.cls-45{fill:#c4483c;}.cls-46{fill:#c95c37;}.cls-47{clip-path:url(#clip-path-25);}.cls-48{fill:url(#Degradado_sin_nombre_277-4);}.cls-49{clip-path:url(#clip-path-26);}.cls-50{clip-path:url(#clip-path-28);}.cls-51{fill:url(#Degradado_sin_nombre_277-5);}.cls-52{clip-path:url(#clip-path-29);}.cls-53{clip-path:url(#clip-path-31);}.cls-54{fill:url(#Degradado_sin_nombre_277-6);}.cls-55{clip-path:url(#clip-path-32);}.cls-56{clip-path:url(#clip-path-34);}.cls-57{fill:url(#Degradado_sin_nombre_280-5);}.cls-58{clip-path:url(#clip-path-35);}.cls-59{fill:url(#Degradado_sin_nombre_280-6);}.cls-60{clip-path:url(#clip-path-36);}.cls-61{fill:url(#Degradado_sin_nombre_280-7);}.cls-62{clip-path:url(#clip-path-37);}.cls-63{fill:url(#Degradado_sin_nombre_273-5);}.cls-64{clip-path:url(#clip-path-38);}.cls-65{fill:url(#Degradado_sin_nombre_273-6);}.cls-66{clip-path:url(#clip-path-39);}.cls-67{fill:url(#Degradado_sin_nombre_277-7);}.cls-68{clip-path:url(#clip-path-40);}.cls-69{clip-path:url(#clip-path-42);}.cls-70{fill:url(#Degradado_sin_nombre_277-8);}.cls-71{clip-path:url(#clip-path-43);}.cls-72{fill:url(#Degradado_sin_nombre_277-9);}.cls-73{clip-path:url(#clip-path-44);}.cls-74{fill:url(#Degradado_sin_nombre_277-10);}.cls-75{clip-path:url(#clip-path-45);}.cls-76{fill:url(#Degradado_sin_nombre_280-8);}.cls-77{clip-path:url(#clip-path-46);}.cls-78{fill:url(#Degradado_sin_nombre_280-9);}.cls-79{clip-path:url(#clip-path-47);}.cls-80{fill:url(#Degradado_sin_nombre_280-10);}.cls-81{font-size:161.45px;}.cls-81,.cls-82{fill:#211915;font-family:BrushScriptMT, Brush Script MT;}.cls-82{font-size:145.3px;}.cls-83{letter-spacing:-0.01em;}</style><clipPath id="clip-path"><polyline class="cls-1" points="424.81 574 227.73 552 227.73 428.59"/></clipPath><clipPath id="clip-path-2"><path class="cls-1" d="M403.94,25.05l-.23.06-.23.05c-.29,0-30,1.87-61,20-30.52,17.83-51.37,45-51.58,45.26l-.16.19-.17.17a7.74,7.74,0,0,0-2.4,5.18,8.65,8.65,0,0,0,1.65,5.69L407.71,264.27a5.88,5.88,0,0,0,1.81,1.81,9,9,0,0,0,.38-3.06V31.63c0-4.07-1.84-6.79-4.58-6.79a4.82,4.82,0,0,0-1.38.21"/></clipPath><linearGradient id="Degradado_sin_nombre_250" x1="193.34" y1="527.01" x2="200.12" y2="527.01" gradientTransform="matrix(0, -35.58, -35.58, 0, 19099.11, 7144.71)" gradientUnits="userSpaceOnUse"><stop offset="0" stop-color="#dda157"/><stop offset="0.3" stop-color="#dda157"/><stop offset="1" stop-color="#dc9d4c"/></linearGradient><clipPath id="clip-path-3"><path class="cls-1" d="M387.78,14.61C380,17,360.26,21.72,350.37,25.28S325,30.73,318.49,41.64s-23.15,16.78-25.37,27.44c0,0-15.57,2.75-16.57,13.58-1.41,15,16.19,12.47,22.62.63s11.11-15.39,19.32-19S335.13,53.7,341,47.79s25.86-11.86,30.57-13S409.66,33,407.16,21.16c-1.41-6.74-5-8.7-9.18-8.7-3.21,0-6.82,1.14-10.2,2.15"/></clipPath><linearGradient id="Degradado_sin_nombre_251" x1="210.94" y1="527.48" x2="217.72" y2="527.48" gradientTransform="matrix(0, -11.89, -11.89, 0, 6613.15, 2600.8)" gradientUnits="userSpaceOnUse"><stop offset="0" stop-color="#d18439"/><stop offset="0.09" stop-color="#d48c41"/><stop offset="0.32" stop-color="#da9a50"/><stop offset="0.6" stop-color="#dea259"/><stop offset="1" stop-color="#dfa55c"/></linearGradient><clipPath id="clip-path-4"><rect class="cls-1" x="276.47" y="12.46" width="130.83" height="80.61"/></clipPath><clipPath id="clip-path-6"><path class="cls-1" d="M384.89,124.36c2.51-3.33,6.39-4.32,9.67-2.42,4.33,2.49,6.28,9.06,4.34,14.64a10.88,10.88,0,0,1-2.92,4.55l-1.4,1.24.1,2.18a13.22,13.22,0,0,1-.69,4.79c-1.82,5.3-6.65,7.68-10.75,5.33-3.29-1.9-5.22-6.43-4.75-11l.33-3-2.45-1.21c-3.13-1.81-4.5-6.45-3.14-10.37s5-5.7,8-4l.13.11,2,1.24Zm-2.43-4.42a1,1,0,0,0-.27-.18c-5.13-2.94-11.15,0-13.45,6.64s0,14.37,5.16,17.34c.15.09.3.14.47.23-.74,6.91,2.09,13.9,7.28,16.89,6.3,3.63,13.7,0,16.51-8.15a19.91,19.91,0,0,0,1.06-7.38,16.39,16.39,0,0,0,4.44-6.92c2.92-8.44,0-18.37-6.58-22.12a10.51,10.51,0,0,0-5.28-1.46,11.81,11.81,0,0,0-9.34,5.11"/></clipPath><linearGradient id="Degradado_sin_nombre_280" x1="215.86" y1="522.11" x2="222.64" y2="522.11" gradientTransform="matrix(0, -7, -7, 0, 4039.15, 1672.43)" gradientUnits="userSpaceOnUse"><stop offset="0" stop-color="#507132"/><stop offset="0.23" stop-color="#5b7c36"/><stop offset="0.64" stop-color="#789941"/><stop offset="1" stop-color="#96b84d"/></linearGradient><clipPath id="clip-path-7"><path class="cls-1" d="M379.77,168.84c2.51-3.32,6.39-4.29,9.66-2.4,4.33,2.48,6.29,9.05,4.36,14.64a10.75,10.75,0,0,1-2.94,4.52l-1.38,1.27.09,2.17a13.27,13.27,0,0,1-.69,4.8c-1.83,5.29-6.64,7.68-10.75,5.31-3.28-1.89-5.24-6.42-4.75-11l.32-3.06-2.44-1.2c-3.13-1.81-4.5-6.46-3.14-10.37s5-5.73,8-4l.15.11,2,1.24Zm-2.44-4.41-.25-.18c-5.14-2.95-11.17,0-13.45,6.64s0,14.38,5.14,17.33l.48.24c-.75,6.91,2.07,13.91,7.29,16.9,6.3,3.62,13.69,0,16.49-8.15a20,20,0,0,0,1.07-7.39,16.35,16.35,0,0,0,4.44-6.91c2.92-8.44,0-18.37-6.59-22.14a10.44,10.44,0,0,0-5.27-1.45,11.85,11.85,0,0,0-9.35,5.11"/></clipPath><linearGradient id="Degradado_sin_nombre_280-2" x1="211.22" y1="523.31" x2="218.01" y2="523.31" gradientTransform="matrix(0, -7, -7, 0, 4042.43, 1684.47)" xlink:href="#Degradado_sin_nombre_280"/><clipPath id="clip-path-8"><path class="cls-1" d="M315.52,116.61c0,15.22,9,27.56,20,27.56s20-12.34,20-27.56-9-27.55-20-27.55-20,12.33-20,27.55"/></clipPath><linearGradient id="Degradado_sin_nombre_277" x1="214.94" y1="528.4" x2="221.72" y2="528.4" gradientTransform="matrix(0, -8.13, -8.13, 0, 4629.82, 1890.97)" gradientUnits="userSpaceOnUse"><stop offset="0" stop-color="#ba1e16"/><stop offset="0.53" stop-color="#bf2d26"/><stop offset="1" stop-color="#c23630"/></linearGradient><clipPath id="clip-path-9"><path class="cls-1" d="M407.92,216.33a1.51,1.51,0,0,0-.33-.13,2.52,2.52,0,0,0,.33.13m-15.41,4.74c-.57-1.94.1-4,1.5-4.74.11,0,.23,0,.34-.06a2.54,2.54,0,0,1,.8-2.86,1.54,1.54,0,0,1,2.37.8,2.57,2.57,0,0,1-.72,2.93,3.86,3.86,0,0,1,.78,1.45c.56,1.91-.11,4-1.51,4.72a2,2,0,0,1-.91.22,3,3,0,0,1-2.65-2.46m7.46-8.86a2.75,2.75,0,0,1,1-3.23c.95-.46,2,.23,2.43,1.54a2.75,2.75,0,0,1-1,3.23,1.38,1.38,0,0,1-.62.15,2.09,2.09,0,0,1-1.81-1.69m-4.11-7.09a2.55,2.55,0,0,1,.78-3,1.53,1.53,0,0,1,2.36.8,2.56,2.56,0,0,1-.78,3,1.49,1.49,0,0,1-.87.29,1.66,1.66,0,0,1-1.49-1.09M389.41,198c1.4-.69,3,.32,3.56,2.24s-.1,4.05-1.5,4.73-3-.3-3.56-2.23a2.33,2.33,0,0,1-.05-.34,1.63,1.63,0,0,1-1.33-1,2.6,2.6,0,0,1,.78-3,1.44,1.44,0,0,1,1.68,0,2,2,0,0,1,.42-.36m16.87-6.26c1.5,0,2.71,1.67,2.71,3.72s-1.21,3.74-2.71,3.74a2.43,2.43,0,0,1-2-1.27,2.69,2.69,0,0,1-1.38.84A2.72,2.72,0,0,1,400,196a3.17,3.17,0,0,1,2.29-3.58,2.27,2.27,0,0,1,1.94.64,2.53,2.53,0,0,1,2.07-1.39m-8.19-3.91a2.77,2.77,0,0,1,1-3.23c.95-.48,2,.21,2.43,1.52a2.77,2.77,0,0,1-1,3.24,1.5,1.5,0,0,1-.61.14,2.08,2.08,0,0,1-1.83-1.67m-9.39-3.71a2.78,2.78,0,0,1,1-3.23c1-.46,2.06.23,2.44,1.52a3.41,3.41,0,0,1,0,1.82,5.19,5.19,0,0,1,.52-.53,2.25,2.25,0,0,1,3.46,1.19,3.79,3.79,0,0,1-1.14,4.39,2.28,2.28,0,0,1-3.47-1.2,3.81,3.81,0,0,1,0-2.76,1.17,1.17,0,0,1-.41.33,1.26,1.26,0,0,1-.62.15,2.08,2.08,0,0,1-1.82-1.68M399.49,182a2.6,2.6,0,0,1,.78-3,1.54,1.54,0,0,1,2.37.81,2.58,2.58,0,0,1-.78,3,1.54,1.54,0,0,1-.89.29,1.64,1.64,0,0,1-1.48-1.09m3.19-6.8a2.78,2.78,0,0,1,1-3.25c1-.46,2,.23,2.43,1.54a2.77,2.77,0,0,1-1,3.23,1.33,1.33,0,0,1-.63.15,2.05,2.05,0,0,1-1.81-1.67M383,197.7c0,16.3,9.6,29.53,21.45,29.53a16,16,0,0,0,5.49-1V215.83l-.13.15a2.22,2.22,0,0,1-1.85.35,3.44,3.44,0,0,1,1.74,2.26c.56,1.91-.11,4-1.5,4.72s-3-.31-3.58-2.24.11-4,1.51-4.74a2.12,2.12,0,0,1,1.5-.13,2.63,2.63,0,0,1-1.29-1.42,3.77,3.77,0,0,1,1.15-4.38,2.07,2.07,0,0,1,2.45,0v-29.1a3.68,3.68,0,0,1,0-2.13v-10a16,16,0,0,0-5.49-1c-11.85,0-21.45,13.22-21.45,29.53"/></clipPath><linearGradient id="Degradado_sin_nombre_277-2" x1="205.19" y1="522.62" x2="211.97" y2="522.62" gradientTransform="matrix(0, -8.71, -8.71, 0, 4949.11, 2014.59)" xlink:href="#Degradado_sin_nombre_277"/><clipPath id="clip-path-10"><path class="cls-1" d="M311.33,96.09c1.84-2.44,4.71-3.16,7.12-1.77,3.19,1.83,4.62,6.68,3.2,10.79a7.92,7.92,0,0,1-2.16,3.37l-1,.9.06,1.6a9.38,9.38,0,0,1-.5,3.55c-1.35,3.89-4.91,5.66-7.92,3.93-2.42-1.41-3.86-4.75-3.51-8.13l.24-2.25-1.79-.91c-2.32-1.33-3.32-4.74-2.33-7.64s3.66-4.2,5.91-2.91l.11.08,1.45.9Zm-1.8-3.25a1.06,1.06,0,0,0-.2-.12c-3.79-2.19-8.23,0-9.91,4.88s0,10.6,3.79,12.79a2.17,2.17,0,0,0,.35.15c-.54,5.11,1.54,10.27,5.38,12.48,4.65,2.68,10.09,0,12.17-6a15.27,15.27,0,0,0,.77-5.46,12.07,12.07,0,0,0,3.28-5.07c2.15-6.26,0-13.55-4.86-16.33a7.69,7.69,0,0,0-3.88-1.07,8.7,8.7,0,0,0-6.89,3.76"/></clipPath><linearGradient id="Degradado_sin_nombre_280-3" x1="232.19" y1="532.81" x2="238.97" y2="532.81" gradientTransform="matrix(0, -5.16, -5.16, 0, 3061.27, 1321.91)" xlink:href="#Degradado_sin_nombre_280"/><clipPath id="clip-path-11"><path class="cls-1" d="M420.76,83.43V285.11c0,5.87-1,10.12-2.26,9.47s-4.88-4.55-8.09-8.68L303.1,147.53c-3.21-4.13-7.89-3.52-10.4,1.36,0,0-43.19,44.89-43.19,143.54,0,121.31,76.28,219.68,170.39,219.68s167.68-98.43,170.38-219.68c4.29-192.64-162-215.26-162-215.26a5.71,5.71,0,0,0-2.84-.86c-2.74,0-4.69,2.69-4.69,7.12"/></clipPath><linearGradient id="Degradado_sin_nombre_259" x1="188.91" y1="526.08" x2="195.69" y2="526.08" gradientTransform="matrix(0, -64.27, -64.27, 0, 34234.13, 12653.74)" gradientUnits="userSpaceOnUse"><stop offset="0" stop-color="#ba6a22"/><stop offset="0.64" stop-color="#d4934a"/><stop offset="1" stop-color="#dfa55c"/></linearGradient><clipPath id="clip-path-12"><polygon class="cls-1" points="250.54 512.11 601.73 505.11 601.73 240.79 250.54 247.79 250.54 512.11"/></clipPath><clipPath id="clip-path-13"><path class="cls-1" d="M428.34,294.21c.42,22.52-16.13,7.24-16.13,7.24L317,175.92c-49.35,41-60.05,156.53-3.8,246.8s235.84,75,247.9-100.59c13.53-197.19-133-219.68-133-219.68s-.13,169.21.28,191.76"/></clipPath><linearGradient id="Degradado_sin_nombre_258" x1="189.16" y1="526.04" x2="195.94" y2="526.04" gradientTransform="matrix(0, -55.22, -55.22, 0, 29466.19, 10923.04)" gradientUnits="userSpaceOnUse"><stop offset="0" stop-color="#dc9d4c"/><stop offset="0.98" stop-color="#dda157"/><stop offset="1" stop-color="#dda157"/></linearGradient><clipPath id="clip-path-14"><path class="cls-1" d="M428.06,102.45l.16,14.11c.06,5.85,3.78,11.44,8.26,12.43l35.27,3.16a35.67,35.67,0,0,1,14.57,4.23l3,2.26c27.47,20.35,49.52,52.86,60.86,93.63l1.26,4.52a106.07,106.07,0,0,1,2,20l-7.71,101.28a88,88,0,0,1-4,18.71l-1.75,3.94a173.1,173.1,0,0,1-34.53,51.39L502.72,435a44.15,44.15,0,0,1-14,7.5l-78.52,23.06c-4.4,1.41-11.18,1.94-15.06,1.16l-3.46-1a116.26,116.26,0,0,1-20.33-7.89L368,456.2c-3.51-2.08-9-7.14-12.27-11.24l-59-84.35a70.55,70.55,0,0,1-7.71-17.3l-1-4.72c-1-5-1.92-10-2.61-15l-.7-5a73.53,73.53,0,0,1,1.63-20.12l22.05-102.58c1.46-5.55,3.53-11.61,4.6-13.44s4-6.53,3.94-6.55-2-2.41-4.2-5.3-6.34-2.88-9.09,0-15.46,12.85-17.28,16.85L285,191.27c-15.19,42.1-21.09,126.85-21.09,126.85a106.54,106.54,0,0,0,.39,18.36l.7,3.85a238.58,238.58,0,0,0,21.3,63.87l2,4.05a42.13,42.13,0,0,0,12,11.83l44.93,47.26c3.21,4.14,8.47,10.91,11.66,15l9.22,3c4.27,2,11.05,4.86,15.09,6.33l3.74,1.06a125,125,0,0,0,34.92,5c3.77,0,7.52-.18,11.23-.5l3.72-.35a61.2,61.2,0,0,0,15-5.68l77.65-52.84a44.29,44.29,0,0,0,12.34-10.82l2.24-3.46a224.55,224.55,0,0,0,26.65-58.51l1.28-4.52A138.57,138.57,0,0,0,572.48,341l-1-45.41c-.41-5.84-.8-12.83-.87-15.56S570,266,569.16,260.2c0,0-11.73-83.27-37.55-113.24q-4.26-5.1-8.66-9.67C492.28,105.4,436.1,93.52,436.1,93.52a7.22,7.22,0,0,0-1.28-.13c-3.87,0-6.81,3.8-6.76,9.06"/></clipPath><linearGradient id="Degradado_sin_nombre_259-2" x1="188.97" y1="526.07" x2="195.76" y2="526.07" gradientTransform="matrix(0, -59.63, -59.63, 0, 31788.38, 11766.59)" xlink:href="#Degradado_sin_nombre_259"/><clipPath id="clip-path-15"><rect class="cls-1" x="263.7" y="93.39" width="308.78" height="404.34"/></clipPath><clipPath id="clip-path-17"><path class="cls-1" d="M376.65,439.38c0-6.57,4.13-11.89,9.23-11.89s9.21,5.32,9.21,11.89-4.12,11.89-9.21,11.89-9.23-5.32-9.23-11.89m-7.47,0c0,11.87,7.48,21.52,16.7,21.52s16.69-9.65,16.69-21.52-7.48-21.52-16.69-21.52-16.7,9.63-16.7,21.52"/></clipPath><linearGradient id="Degradado_sin_nombre_273" x1="179.19" y1="522.37" x2="185.97" y2="522.37" gradientTransform="matrix(0, -6.35, -6.35, 0, 3701.65, 1598.3)" gradientUnits="userSpaceOnUse"><stop offset="0" stop-color="#310a0e"/><stop offset="1" stop-color="#671c1a"/></linearGradient><clipPath id="clip-path-18"><path class="cls-1" d="M438.42,153c0-5.43,3.42-9.81,7.63-9.81s7.62,4.38,7.62,9.81-3.41,9.83-7.62,9.83-7.63-4.41-7.63-9.83m-6.16,0c0,9.81,6.17,17.78,13.79,17.78s13.79-8,13.79-17.78-6.18-17.78-13.79-17.78-13.79,8-13.79,17.78"/></clipPath><linearGradient id="Degradado_sin_nombre_273-2" x1="223.93" y1="512.1" x2="230.71" y2="512.1" gradientTransform="matrix(0, -5.24, -5.24, 0, 3131.59, 1345.05)" xlink:href="#Degradado_sin_nombre_273"/><clipPath id="clip-path-19"><path class="cls-1" d="M428.35,340.24l7.44.79c.42-6.55,4.88-11.43,10-10.87s8.85,6.25,8.43,12.79v0l7.44.78c.77-11.85-6.09-22.24-15.27-23.2a13.07,13.07,0,0,0-1.38-.08c-8.61,0-15.9,8.52-16.62,19.77"/></clipPath><linearGradient id="Degradado_sin_nombre_273-3" x1="198.48" y1="504.37" x2="205.26" y2="504.37" gradientTransform="matrix(0, -3.43, -3.43, 0, 2176.68, 1025.04)" xlink:href="#Degradado_sin_nombre_273"/><clipPath id="clip-path-20"><path class="cls-1" d="M471.81,192.76a35,35,0,0,0-2.42,9,5.32,5.32,0,0,1-5,1.85c-3.41-.7-5.74-4.82-5.2-9.2v0l-5-1c-1,7.93,3.24,15.4,9.41,16.65a8.93,8.93,0,0,0,6.2-1,13.18,13.18,0,0,0,5.54,7.7c7.46,5,17.32,2.91,21.21-6.72l-6-4c-2.15,5.29-5,8.33-9.1,5.56-3.21-2.16-4.85-6.59-4.44-11a6.47,6.47,0,0,0,.32-1.26,21.07,21.07,0,0,1,.54-2.39l-.3-.2A82.68,82.68,0,0,1,482.21,180l-5.58-2.37Z"/></clipPath><linearGradient id="Degradado_sin_nombre_280-4" x1="212.32" y1="510.49" x2="219.1" y2="510.49" gradientTransform="matrix(0, -6.15, -6.15, 0, 3612.31, 1524.18)" xlink:href="#Degradado_sin_nombre_280"/><clipPath id="clip-path-21"><path class="cls-1" d="M316.64,386.39c9.16,1.3,17.41-7.22,18.43-19l-7.42-1.06h0c-.56,6.53-5.12,11.23-10.19,10.52s-8.71-6.61-8.15-13.14l-7.42-1.06c-1,11.81,5.6,22.46,14.75,23.77"/></clipPath><linearGradient id="Degradado_sin_nombre_273-4" x1="187.93" y1="534.28" x2="194.71" y2="534.28" gradientTransform="matrix(0, -3.53, -3.53, 0, 2201.4, 1049)" xlink:href="#Degradado_sin_nombre_273"/><clipPath id="clip-path-22"><path class="cls-1" d="M498.39,194.18c-13.91,10.35-18.66,33.27-10.63,51.18,0,0,.28,1.11,1.91,0s47.64-35.56,47.64-35.56,1.3-.79.78-1.91c-5.39-12-15.17-18.73-25.21-18.73a24.06,24.06,0,0,0-14.49,5"/></clipPath><linearGradient id="Degradado_sin_nombre_277-3" x1="203.89" y1="511.58" x2="210.67" y2="511.58" gradientTransform="matrix(0, -8.36, -8.36, 0, 4787.3, 1950.89)" xlink:href="#Degradado_sin_nombre_277"/><clipPath id="clip-path-23"><rect class="cls-1" x="488.63" y="195.93" width="42.22" height="40.09"/></clipPath><clipPath id="clip-path-25"><path class="cls-1" d="M291.73,205.21s-.74.69.6,2.33,41.1,47.23,41.1,47.23,1,1.33,1.66.33c10.68-15.43,9.64-39.12-2.33-52.88-5.55-6.39-12.46-9.54-19.35-9.54-8,0-15.94,4.23-21.68,12.53"/></clipPath><linearGradient id="Degradado_sin_nombre_277-4" x1="190.35" y1="542.54" x2="196.19" y2="542.54" gradientTransform="matrix(7.94, -2.62, -2.62, -7.94, 204.36, 5039.21)" xlink:href="#Degradado_sin_nombre_277"/><clipPath id="clip-path-26"><rect class="cls-1" x="300.13" y="198.89" width="37.57" height="47.33"/></clipPath><clipPath id="clip-path-28"><path class="cls-1" d="M472.34,383.46c-5.52,19.18,2.08,40.49,16.94,47.6s31.4-2.68,36.92-21.85c0,0,.48-1-1.21-1.89S474,383,474,383a1.82,1.82,0,0,0-.81-.24.81.81,0,0,0-.81.7"/></clipPath><linearGradient id="Degradado_sin_nombre_277-5" x1="178.91" y1="539.14" x2="185.52" y2="539.14" gradientTransform="matrix(-6.36, 5.27, 5.27, 6.36, -1185.1, -3983.13)" xlink:href="#Degradado_sin_nombre_277"/><clipPath id="clip-path-29"><rect class="cls-1" x="475.36" y="390.18" width="42.54" height="36.97"/></clipPath><clipPath id="clip-path-31"><path class="cls-1" d="M392.91,334.41c-2,.28-60.6,11.15-60.6,11.15s-1.58.11-1.41,1.57c2.5,22.76,18.86,38.64,36.52,35.4s30-24.29,27.47-47.09c0,0,.05-1.07-1.44-1.07a3.62,3.62,0,0,0-.54,0"/></clipPath><linearGradient id="Degradado_sin_nombre_277-6" x1="185.22" y1="527.75" x2="192.44" y2="527.75" gradientTransform="matrix(-3.48, 8.63, 8.63, 3.48, -3528.79, -3110.41)" xlink:href="#Degradado_sin_nombre_277"/><clipPath id="clip-path-32"><rect class="cls-1" x="338.01" y="342.01" width="50.27" height="33.58"/></clipPath><clipPath id="clip-path-34"><path class="cls-1" d="M438.87,388.15l2.16,8.33h0c4.41-1.89,8.07-1.52,9.54,4.16a12.87,12.87,0,0,1-2.73,11.86,3.37,3.37,0,0,0-.91.65,14.14,14.14,0,0,1-1.68,1.22l.11.42A50.71,50.71,0,0,1,433,422.56l2.74,6.71,11.63-6.57a21,21,0,0,0,6.58-4.28,6,6,0,0,1,4.56,3.16c2.07,3.54,1.53,8.61-1.22,11.29l3,5.19c5-4.86,6-14,2.22-20.42a12.13,12.13,0,0,0-5-4.8,17.58,17.58,0,0,0,.17-10.5c-2.21-8.55-8.26-15-14.82-15a10.19,10.19,0,0,0-4.05.85"/></clipPath><linearGradient id="Degradado_sin_nombre_280-5" x1="183.54" y1="516.15" x2="190.32" y2="516.15" gradientTransform="matrix(0, -7.48, -7.48, 0, 4312.96, 1811.83)" xlink:href="#Degradado_sin_nombre_280"/><clipPath id="clip-path-35"><path class="cls-1" d="M479.38,328.4l6.73,1.41c.75-5.9,2.7-9.93,7.28-9,3.58.77,6.21,4.31,6.88,8.64a8.4,8.4,0,0,0,0,1.33,21.36,21.36,0,0,1,.06,2.49l.34.09a88.13,88.13,0,0,1-.4,17.67h5.89l.9-16.34a37,37,0,0,0,.12-9.49,6.4,6.4,0,0,1,4.29-3.74c3.4-.73,6.61,2.26,7.17,6.65l5-1.06c-1-7.92-6.82-13.34-13-12a10.53,10.53,0,0,0-5.63,3.49,10.52,10.52,0,0,0-7.13-5.08,14.39,14.39,0,0,0-2.91-.31c-7.35,0-14.4,5.79-15.61,15.25"/></clipPath><linearGradient id="Degradado_sin_nombre_280-6" x1="194.37" y1="504.99" x2="201.15" y2="504.99" gradientTransform="matrix(0, -5.59, -5.59, 0, 3325.33, 1437.95)" xlink:href="#Degradado_sin_nombre_280"/><clipPath id="clip-path-36"><path class="cls-1" d="M311.66,310.63l6.72,1.43v0c.76-5.92,2.7-9.92,7.29-8.93,3.57.73,6.21,4.29,6.88,8.62a5.29,5.29,0,0,0,0,1.32,23.48,23.48,0,0,1,.07,2.5l.33.09a87.07,87.07,0,0,1-.4,17.65h5.89l.9-16.32a38,38,0,0,0,.12-9.5,6.5,6.5,0,0,1,4.28-3.75c3.41-.71,6.63,2.26,7.19,6.65v0l5-1.07c-1-7.92-6.82-13.33-13-12a10.38,10.38,0,0,0-5.63,3.47,10.52,10.52,0,0,0-7.14-5.07,14.45,14.45,0,0,0-2.91-.3c-7.35,0-14.4,5.79-15.6,15.23"/></clipPath><linearGradient id="Degradado_sin_nombre_280-7" x1="197.08" y1="529.28" x2="203.86" y2="529.28" gradientTransform="matrix(0, -5.59, -5.59, 0, 3291.62, 1434.67)" xlink:href="#Degradado_sin_nombre_280"/><clipPath id="clip-path-37"><path class="cls-1" d="M527.61,307.42c0-6.55,4.15-11.87,9.24-11.87s9.21,5.32,9.21,11.87-4.13,11.89-9.21,11.89-9.24-5.31-9.24-11.89m-7.46,0c0,11.89,7.46,21.53,16.7,21.53s16.68-9.64,16.68-21.53-7.48-21.5-16.68-21.5-16.7,9.63-16.7,21.5"/></clipPath><linearGradient id="Degradado_sin_nombre_273-5" x1="196.91" y1="503.1" x2="203.69" y2="503.1" gradientTransform="matrix(0, -6.35, -6.35, 0, 3729.35, 1578.47)" xlink:href="#Degradado_sin_nombre_273"/><clipPath id="clip-path-38"><path class="cls-1" d="M319.17,253.59c0-5,3.12-9,7-9s7,4,7,9-3.12,9-7,9-7-4-7-9m-5.64,0c0,9,5.65,16.26,12.61,16.26s12.61-7.29,12.61-16.26-5.65-16.25-12.61-16.25-12.61,7.27-12.61,16.25"/></clipPath><linearGradient id="Degradado_sin_nombre_273-6" x1="209.41" y1="530.95" x2="216.19" y2="530.95" gradientTransform="matrix(0, -4.8, -4.8, 0, 2872.07, 1273.99)" xlink:href="#Degradado_sin_nombre_273"/><clipPath id="clip-path-39"><path class="cls-1" d="M362,70c-4.59,22.67,6,45.85,23.54,51.74,0,0,.93.61,1.54-2s15.67-77.8,15.67-77.8.53-2-.6-2.31a25.94,25.94,0,0,0-8.33-1.39c-14.61,0-28,12.65-31.82,31.74"/></clipPath><linearGradient id="Degradado_sin_nombre_277-7" x1="204.39" y1="506.41" x2="211.16" y2="506.41" gradientTransform="matrix(-6.74, -6.65, -6.65, 6.74, 5151.95, -1949.17)" xlink:href="#Degradado_sin_nombre_277"/><clipPath id="clip-path-40"><rect class="cls-1" x="366.51" y="45.5" width="30.43" height="64.33"/></clipPath><clipPath id="clip-path-42"><path class="cls-1" d="M452.6,320c0,19,11.2,34.44,25,34.44s25-15.42,25-34.44-11.19-34.43-25-34.43-25,15.41-25,34.43"/></clipPath><linearGradient id="Degradado_sin_nombre_277-8" x1="192.45" y1="516.79" x2="199.23" y2="516.79" gradientTransform="matrix(0, -10.16, -10.16, 0, 5727.28, 2309.39)" xlink:href="#Degradado_sin_nombre_277"/><clipPath id="clip-path-43"><path class="cls-1" d="M275.12,319.71c0,19,11.2,34.44,25,34.44s25-15.42,25-34.44-11.2-34.43-25-34.43-25,15.41-25,34.43"/></clipPath><linearGradient id="Degradado_sin_nombre_277-9" x1="192.48" y1="530.94" x2="199.26" y2="530.94" gradientTransform="matrix(0, -10.16, -10.16, 0, 5692.53, 2308.99)" xlink:href="#Degradado_sin_nombre_277"/><clipPath id="clip-path-44"><path class="cls-1" d="M406,464.46l.06-.28a2.3,2.3,0,0,0-.06.28m30.65-4.62a2.76,2.76,0,0,1,1.11-3.19,1.79,1.79,0,0,1,2.55,1.24,2.75,2.75,0,0,1-1.13,3.18,1.67,1.67,0,0,1-.79.21,1.88,1.88,0,0,1-1.74-1.44m-28.82-2.46a2.75,2.75,0,0,1,1.12-3.2,1.78,1.78,0,0,1,2.53,1.25,2.7,2.7,0,0,1-1.13,3.16,1.68,1.68,0,0,1-.8.21,1.88,1.88,0,0,1-1.72-1.42M419.21,462a3.78,3.78,0,0,1,.93-2.61,4,4,0,0,1-.68-1.75c-.23-1.86.67-3.57,2-3.86s2.6,1,2.84,2.86a4.45,4.45,0,0,1-.45,2.53,3.74,3.74,0,0,1,1.14,2.63,3.28,3.28,0,0,1-2.82,3.58h-.1a3.21,3.21,0,0,1-2.87-3.39m12.59-6.16a2.67,2.67,0,0,1,.57-3.07c.81-.58,1.85-.17,2.35.92a2.66,2.66,0,0,1-.57,3.09,1.31,1.31,0,0,1-.79.26,1.8,1.8,0,0,1-1.56-1.2m-5.12-1.51a2.76,2.76,0,0,1,1.13-3.19,1.78,1.78,0,0,1,2.53,1.23,2.76,2.76,0,0,1-1.11,3.19,1.69,1.69,0,0,1-.8.2,1.91,1.91,0,0,1-1.75-1.43m-12.94-2.53a2.67,2.67,0,0,1,.56-3.08c.81-.57,1.85-.18,2.34.93a2.65,2.65,0,0,1-.56,3.08,1.28,1.28,0,0,1-.79.27,1.8,1.8,0,0,1-1.55-1.2m-13.54-2.29a4,4,0,0,1,1.64-4.65,2.61,2.61,0,0,1,3.71,1.8c0,.13,0,.29.06.44a1.54,1.54,0,0,1,2.23.95,2.63,2.63,0,0,1-.56,3.09c-.77.57-1.77.17-2.28-.85a3.28,3.28,0,0,1-1.09,1,2.54,2.54,0,0,1-1.16.3,2.8,2.8,0,0,1-2.55-2.12m29.09-7.39a2.77,2.77,0,0,1,1.13-3.19,1.8,1.8,0,0,1,2.54,1.24,2.76,2.76,0,0,1-1.12,3.18,1.67,1.67,0,0,1-1.41.07,4,4,0,0,1,.44.66,3.86,3.86,0,0,1-.84,4.49c-1.17.86-2.7.28-3.43-1.36a3.88,3.88,0,0,1,.83-4.51,2,2,0,0,1,2.14-.08,1.71,1.71,0,0,1-.28-.5m-15,1a4,4,0,0,1,1.64-4.67c.08-.05.17,0,.25-.07a2.26,2.26,0,0,1,.78-1.73c.79-.59,1.86-.19,2.34.93a3,3,0,0,1,.06,2.17,2.33,2.33,0,0,1,.28.52,4,4,0,0,1-1.64,4.64,2.41,2.41,0,0,1-1.17.31,2.77,2.77,0,0,1-2.54-2.1m5.36-11.18c-12.64.45-22.63,13.2-22.3,28.47a33,33,0,0,0,.94,7l8.05-.29a.62.62,0,0,1-.1-.16,4.29,4.29,0,0,1-.32-2.46,3.64,3.64,0,0,1-1.71,2.4,2.63,2.63,0,0,1-3.72-1.81,4.06,4.06,0,0,1,1.64-4.67c1.49-.78,3.14,0,3.72,1.82a4.44,4.44,0,0,1,.13,2,3,3,0,0,1,1.07-1.77c1.18-.85,2.72-.25,3.44,1.36a4.25,4.25,0,0,1,.07,3.17l22.56-.81a1.83,1.83,0,0,1,1.66-.05l7.73-.29a33.12,33.12,0,0,0,.64-7.09c-.33-15-10.48-26.86-22.81-26.86l-.69,0"/></clipPath><linearGradient id="Degradado_sin_nombre_277-10" x1="194.94" y1="519.49" x2="200.22" y2="519.49" gradientTransform="matrix(8.71, -0.24, -0.24, -8.71, -1175.1, 5021.14)" xlink:href="#Degradado_sin_nombre_277"/><clipPath id="clip-path-45"><path class="cls-1" d="M375.38,394.2c2.5-3.31,6.38-4.29,9.65-2.4,4.33,2.48,6.29,9.05,4.35,14.64a10.77,10.77,0,0,1-2.93,4.54l-1.38,1.25.1,2.17a13.28,13.28,0,0,1-.7,4.8c-1.83,5.29-6.65,7.68-10.76,5.32-3.28-1.9-5.23-6.42-4.74-11l.33-3-2.45-1.22c-3.13-1.81-4.5-6.43-3.15-10.37s5-5.73,8-4l.14.12,2,1.23Zm-2.45-4.4a2.14,2.14,0,0,0-.26-.19c-5.13-2.95-11.16,0-13.44,6.65s0,14.37,5.14,17.33l.48.23c-.75,6.91,2.08,13.92,7.29,16.9,6.3,3.62,13.69,0,16.49-8.15a20.21,20.21,0,0,0,1.07-7.39,16.29,16.29,0,0,0,4.44-6.91c2.92-8.45,0-18.36-6.58-22.13a10.54,10.54,0,0,0-5.28-1.46,11.84,11.84,0,0,0-9.35,5.12"/></clipPath><linearGradient id="Degradado_sin_nombre_280-8" x1="183.76" y1="523.82" x2="190.54" y2="523.82" gradientTransform="matrix(0, -7, -7, 0, 4041.62, 1717.72)" xlink:href="#Degradado_sin_nombre_280"/><clipPath id="clip-path-46"><path class="cls-1" d="M392.4,333.81c-4.46-.63-7.69-5.85-7.18-11.6.41-4.61,3.16-8.36,6.71-9.16l2.35-.52.16-3.36c.39-4.4,3.39-7.48,6.72-7s5.72,4.36,5.34,8.64l0,.2-.32,2.81,2,1.28c3.22,2.06,5.11,6.54,4.71,11.14-.53,6.07-4.8,10.45-9.51,9.77a7.71,7.71,0,0,1-4.25-2.23l-1.34-1.33-1.57.78a6.45,6.45,0,0,1-2.82.67,6,6,0,0,1-.94-.08m-1.93-26.39c0,.23,0,.44,0,.66-5.34,1.18-9.67,6.77-10.3,14.07-.76,8.84,4.17,16.82,11,17.81A10,10,0,0,0,397,339a11.56,11.56,0,0,0,6.44,3.37c7.14,1,13.57-5.59,14.38-14.78.62-7.2-2.37-13.83-7.13-16.89a3.13,3.13,0,0,0,.05-.36c.63-7.2-3.38-13.69-9-14.5a9.37,9.37,0,0,0-1.18-.09c-5.09,0-9.49,5-10.08,11.64"/></clipPath><linearGradient id="Degradado_sin_nombre_280-9" x1="194.74" y1="521.2" x2="201.52" y2="521.2" gradientTransform="matrix(0, -6.89, -6.89, 0, 3990, 1684.28)" xlink:href="#Degradado_sin_nombre_280"/><clipPath id="clip-path-47"><path class="cls-1" d="M526.14,258.23a12.75,12.75,0,0,1,2.11-12.3l1.81-2-1.2-3c-1.42-4-.07-8.67,3-10.45s6.65-.05,8,3.88l.06.22.84,2.59L543,237c3.58-.35,7,2.25,8.48,6.43,2,5.58,0,12.15-4.27,14.7a7,7,0,0,1-4.53.89l-1.68-.25-1.05,1.71a8.58,8.58,0,0,1-3,3,6.57,6.57,0,0,1-3.36.95c-3.09,0-6-2.29-7.42-6.17m3.68-33.52c-5.12,3-7.39,10.76-5.06,17.36.08.21.15.38.24.58-4.11,4.56-5.6,12.21-3.23,18.9,2.86,8.09,10.27,11.67,16.56,8a13.8,13.8,0,0,0,4.59-4.62,10.4,10.4,0,0,0,6.86-1.39c6.54-3.83,9.42-13.78,6.45-22.21-2.32-6.57-7.54-10.26-12.83-9.75,0-.12-.07-.23-.11-.36-1.71-4.82-5.4-7.68-9.26-7.68a8.12,8.12,0,0,0-4.21,1.19"/></clipPath><linearGradient id="Degradado_sin_nombre_280-10" x1="213.59" y1="520.72" x2="220.46" y2="520.72" gradientTransform="matrix(4.63, -5.24, -5.24, -4.63, 2260.35, 3801.04)" xlink:href="#Degradado_sin_nombre_280"/></defs><title>Recurso 3</title><g class="cls-2"><g id="Capa_2" data-name="Capa 2"><g id="Capa_1-2" data-name="Capa 1"><g class="cls-3"><path class="cls-4" d="M348.61,420.22l1.92,7.94a3.11,3.11,0,0,1,.65-.55c1.14-.68.42-2,0-2.65s-1.05-1.83-.61-2.44,1,.83,1,.83-.38-.86-.73-.07a.85.85,0,0,0,1.13,1.13c.63-.36.51-6.45-3.36-4.19"/><path class="cls-4" d="M326.05,425.42l1.73,7.11a2.72,2.72,0,0,1,.58-.5c1-.61.37-1.78,0-2.37s-.94-1.63-.55-2.18.9.74.9.74-.34-.77-.65-.06a.76.76,0,0,0,1,1c.57-.32.46-5.77-3-3.75"/></g><path class="cls-1" d="M403.74.33S368.35,2.22,331,22.65c-36.82,20.1-61.47,50.46-61.47,50.46-5,4.36-5.6,12.45-1.34,18L406.68,269.64c4.27,5.5,7.75,3.64,7.75-4.15V11.38C414.43,4.63,410.81,0,406,0"/><g class="cls-5"><rect class="cls-6" x="288" y="24.84" width="121.9" height="241.24"/></g><path class="cls-7" d="M340.64,169.56h0c3.12-3.88,8.08-3.74,11.09.28a12.27,12.27,0,0,1-.22,14.28L355.9,190h0c5.65-7,5.82-18.6.38-25.89s-14.42-7.49-20.06-.48Z"/><g class="cls-8"><rect class="cls-9" x="275.14" y="12.46" width="134.51" height="85.25"/></g><g class="cls-10"><g class="cls-11"><path class="cls-12" d="M293.12,69.08s-15.57,2.74-16.57,13.58c-1.41,15.06,16.2,12.47,22.62.63s11.11-15.39,19.32-19S335.14,53.69,341,47.78s25.85-11.85,30.57-13S409.66,33,407.17,21.16s-11.57-8.91-19.39-6.55-27.52,7.12-37.41,10.68S325,30.73,318.49,41.64s-23.15,16.78-25.37,27.44"/></g></g><g class="cls-10"><g class="cls-11"><path class="cls-12" d="M293.12,69.08s-15.57,2.74-16.57,13.58c-1.41,15.06,16.2,12.47,22.62.63s11.11-15.39,19.32-19S335.14,53.69,341,47.78s25.85-11.85,30.57-13S409.66,33,407.17,21.16s-11.57-8.91-19.39-6.55-27.52,7.12-37.41,10.68S325,30.73,318.49,41.64s-23.15,16.78-25.37,27.44"/></g></g><path class="cls-7" d="M348.47,59.32c-7.84,0-14.19,8.21-14.19,18.32s6.35,18.3,14.19,18.3,14.21-8.2,14.21-18.3-6.36-18.32-14.21-18.32m0,28.45c-4.33,0-7.84-4.56-7.84-10.13s3.51-10.12,7.84-10.12,7.85,4.53,7.85,10.12-3.52,10.13-7.85,10.13"/><path class="cls-7" d="M397.2,106.69c-6.42,0-11.64,6.73-11.64,15s5.22,15,11.64,15,11.66-6.71,11.66-15-5.22-15-11.66-15m0,23.32c-3.55,0-6.42-3.74-6.42-8.31s2.87-8.31,6.42-8.31,6.44,3.72,6.44,8.31S400.76,130,397.2,130"/><g class="cls-13"><rect class="cls-14" x="366.45" y="114.83" width="40.13" height="49.66"/></g><g class="cls-15"><rect class="cls-16" x="361.33" y="159.32" width="40.13" height="49.67"/></g><g class="cls-17"><rect class="cls-18" x="315.52" y="89.06" width="40.02" height="55.11"/></g><path class="cls-4" d="M333.53,111.71a2.52,2.52,0,0,1,2.72,2.52,3,3,0,0,1-2.13,3.33,2.53,2.53,0,0,1-2.72-2.51,3,3,0,0,1,2.13-3.34"/><path class="cls-4" d="M324.6,103.5a2.1,2.1,0,0,1,3.23,1.11,3.48,3.48,0,0,1-1.07,4.08,2.09,2.09,0,0,1-3.22-1.11,3.52,3.52,0,0,1,1.06-4.08"/><path class="cls-4" d="M348.49,108.47a2.1,2.1,0,0,1,3.22,1.11,3.48,3.48,0,0,1-1.06,4.08,2.12,2.12,0,0,1-3.23-1.1,3.49,3.49,0,0,1,1.07-4.09"/><path class="cls-4" d="M349.8,121.48a2.12,2.12,0,0,1,3.23,1.13,3.48,3.48,0,0,1-1.06,4.07,2.11,2.11,0,0,1-3.24-1.09,3.56,3.56,0,0,1,1.07-4.11"/><path class="cls-4" d="M338.37,128.46a2.11,2.11,0,0,1,3.23,1.1,3.53,3.53,0,0,1-1.07,4.11,2.11,2.11,0,0,1-3.23-1.12,3.51,3.51,0,0,1,1.07-4.09"/><path class="cls-4" d="M341.81,97.61A2.11,2.11,0,0,1,345,98.72,3.49,3.49,0,0,1,344,102.8a2.08,2.08,0,0,1-3.21-1.1,3.51,3.51,0,0,1,1.06-4.09"/><path class="cls-4" d="M331.67,99.1a1.44,1.44,0,0,1,2.2.77,2.38,2.38,0,0,1-.72,2.79,1.44,1.44,0,0,1-2.21-.76,2.44,2.44,0,0,1,.73-2.8"/><path class="cls-4" d="M326.9,131.27a1.45,1.45,0,0,1,2.2.75,2.38,2.38,0,0,1-.73,2.8,1.44,1.44,0,0,1-2.21-.74,2.44,2.44,0,0,1,.74-2.81"/><path class="cls-4" d="M319.57,117.17a1.46,1.46,0,0,1,2.21.75,2.4,2.4,0,0,1-.72,2.81,1.43,1.43,0,0,1-2.21-.76,2.43,2.43,0,0,1,.72-2.8"/><path class="cls-4" d="M343.94,116.07a1.42,1.42,0,0,1,2.2.75,2.4,2.4,0,0,1-.73,2.79,1.44,1.44,0,0,1-2.21-.75,2.4,2.4,0,0,1,.74-2.79"/><path class="cls-4" d="M328.28,120.74a1.45,1.45,0,0,1,2.2.74,2.41,2.41,0,0,1-.72,2.81,1.45,1.45,0,0,1-2.22-.75,2.41,2.41,0,0,1,.74-2.8"/><path class="cls-19" d="M339.81,114.48c0,1.93-1.14,3.5-2.53,3.5s-2.54-1.57-2.54-3.5,1.13-3.49,2.54-3.49,2.53,1.57,2.53,3.49"/><path class="cls-19" d="M348.06,103c.54,1.8-.09,3.77-1.41,4.42s-2.79-.29-3.32-2.09.11-3.79,1.41-4.43,2.79.31,3.32,2.1"/><path class="cls-19" d="M340.42,136.09c.54,1.81-.09,3.79-1.39,4.41s-2.81-.28-3.33-2.08.1-3.79,1.4-4.41,2.79.29,3.32,2.08"/><path class="cls-19" d="M329.16,136.09c.54,1.81-.1,3.79-1.41,4.41s-2.79-.28-3.31-2.08.09-3.79,1.39-4.41,2.8.29,3.33,2.08"/><path class="cls-19" d="M324.86,118.93c.54,1.82-.1,3.79-1.4,4.42s-2.8-.29-3.32-2.09.09-3.78,1.4-4.41,2.79.3,3.32,2.08"/><path class="cls-19" d="M350.62,128.21c.53,1.81-.1,3.78-1.41,4.41s-2.8-.29-3.32-2.09.09-3.78,1.4-4.41,2.8.3,3.33,2.09"/><path class="cls-19" d="M350.8,113.67a2.6,2.6,0,0,1-1,3c-.9.45-1.9-.2-2.27-1.42a2.57,2.57,0,0,1,.95-3c.9-.43,1.92.2,2.29,1.43"/><path class="cls-19" d="M324.11,102.31a2.6,2.6,0,0,1-1,3c-.87.44-1.9-.21-2.26-1.44a2.56,2.56,0,0,1,1-3c.89-.43,1.9.2,2.27,1.42"/><path class="cls-19" d="M337.15,94a2.61,2.61,0,0,1-.95,3c-.91.44-1.92-.2-2.27-1.42a2.58,2.58,0,0,1,.95-3c.89-.44,1.91.19,2.27,1.43"/><path class="cls-19" d="M334.61,128.58a2.55,2.55,0,0,1-.95,3c-.9.44-1.91-.2-2.27-1.43a2.58,2.58,0,0,1,.95-3c.91-.44,1.92.19,2.27,1.43"/><path class="cls-19" d="M332.88,105.78a2.57,2.57,0,0,1-1,3c-.89.46-1.91-.19-2.27-1.43a2.55,2.55,0,0,1,1-3c.89-.45,1.91.19,2.28,1.43"/><g class="cls-20"><rect class="cls-21" x="382.96" y="168.17" width="27.26" height="59.07"/></g><path class="cls-4" d="M404.21,193.08a2.3,2.3,0,0,0-1.94-.64A3.17,3.17,0,0,0,400,196a2.72,2.72,0,0,0,2.92,2.7,2.67,2.67,0,0,0,1.38-.83,4.63,4.63,0,0,1-.71-2.48,4.69,4.69,0,0,1,.64-2.33"/><path class="cls-4" d="M391.55,185.26a3.89,3.89,0,0,0,0,2.77,2.26,2.26,0,0,0,3.47,1.19,3.77,3.77,0,0,0,1.14-4.38,2.25,2.25,0,0,0-3.46-1.19,5.19,5.19,0,0,0-.52.53,2.33,2.33,0,0,1-.63,1.08"/><path class="cls-4" d="M407.45,210.4a3.76,3.76,0,0,0-1.15,4.38,2.26,2.26,0,0,0,3.47,1.19.89.89,0,0,0,.13-.14v-5.44a2.09,2.09,0,0,0-2.45,0"/><path class="cls-4" d="M409.9,181.29v-2.13a3.86,3.86,0,0,0,0,2.13"/><path class="cls-4" d="M401.86,182.75a2.59,2.59,0,0,0,.79-3,1.55,1.55,0,0,0-2.38-.82,2.61,2.61,0,0,0-.78,3,1.55,1.55,0,0,0,2.37.79"/><path class="cls-4" d="M396.8,217.14a2.55,2.55,0,0,0,.72-2.93,1.53,1.53,0,0,0-2.36-.8,2.57,2.57,0,0,0-.82,2.86,2.29,2.29,0,0,1,2.46.87"/><path class="cls-4" d="M389,198.31a1.41,1.41,0,0,0-1.68,0,2.58,2.58,0,0,0-.78,3,1.64,1.64,0,0,0,1.33,1,4.12,4.12,0,0,1,1.13-4"/><path class="cls-4" d="M396.63,202.12a2.56,2.56,0,0,0-.77,3,1.55,1.55,0,0,0,2.36.82,2.58,2.58,0,0,0,.78-3,1.55,1.55,0,0,0-2.37-.81"/><path class="cls-19" d="M406.28,199.16c1.5,0,2.71-1.68,2.71-3.75s-1.21-3.72-2.71-3.72a2.5,2.5,0,0,0-2.07,1.39,3.25,3.25,0,0,1,1,2,3.55,3.55,0,0,1-.89,2.76,2.43,2.43,0,0,0,2,1.27"/><path class="cls-19" d="M405.17,195.13a3.25,3.25,0,0,0-1-2,4.66,4.66,0,0,0-.64,2.33,4.55,4.55,0,0,0,.71,2.47,3.54,3.54,0,0,0,.89-2.75"/><path class="cls-19" d="M409.66,218.58c-.56-1.94-2.16-2.92-3.57-2.25s-2.07,2.8-1.51,4.74,2.18,2.93,3.58,2.24,2.06-2.81,1.5-4.73"/><path class="cls-19" d="M396.8,217.14s0,.06-.05.07a1.55,1.55,0,0,1-2.38-.81.79.79,0,0,0,0-.13c-.1,0-.22,0-.33.06-1.4.69-2.07,2.8-1.49,4.74s2.15,2.93,3.55,2.24,2.08-2.81,1.51-4.72a3.94,3.94,0,0,0-.78-1.45"/><path class="cls-19" d="M396.75,217.21l.06-.07a2.31,2.31,0,0,0-2.47-.87s0,.09,0,.13a1.54,1.54,0,0,0,2.37.81"/><path class="cls-19" d="M393,200.19c-.57-1.92-2.17-2.93-3.57-2.24a2,2,0,0,0-.42.36,1.82,1.82,0,0,1,.7.81,2.56,2.56,0,0,1-.79,3,1.47,1.47,0,0,1-1,.24c0,.1,0,.23,0,.33.58,1.93,2.17,2.93,3.57,2.24s2.07-2.81,1.51-4.73"/><path class="cls-19" d="M388.9,202.11a2.55,2.55,0,0,0,.78-3,1.74,1.74,0,0,0-.69-.81,4.11,4.11,0,0,0-1.13,4,1.47,1.47,0,0,0,1-.24"/><path class="cls-19" d="M391.14,185.61a1.24,1.24,0,0,0,.41-.35,3.65,3.65,0,0,1,.63-1.08,3.51,3.51,0,0,0,0-1.82c-.38-1.29-1.48-2-2.44-1.52a2.78,2.78,0,0,0-1,3.23c.4,1.33,1.49,2,2.44,1.54"/><path class="cls-19" d="M391.55,185.26a2.33,2.33,0,0,0,.63-1.08,3.52,3.52,0,0,0-.63,1.08"/><path class="cls-19" d="M405.12,176.67a2.76,2.76,0,0,0,1-3.23c-.39-1.31-1.48-2-2.44-1.54a2.78,2.78,0,0,0-1,3.24c.39,1.33,1.48,2,2.44,1.53"/><path class="cls-19" d="M401,209a2.75,2.75,0,0,0-1,3.24c.39,1.31,1.48,2,2.43,1.53a2.75,2.75,0,0,0,1-3.23c-.39-1.31-1.48-2-2.43-1.54"/><path class="cls-19" d="M401.56,186.07c-.38-1.31-1.48-2-2.43-1.52a2.78,2.78,0,0,0-1,3.23c.39,1.3,1.49,2,2.44,1.53a2.77,2.77,0,0,0,1-3.24"/><g class="cls-22"><rect class="cls-23" x="297.73" y="89.08" width="29.58" height="36.62"/></g><g class="cls-24"><rect class="cls-25" x="249.51" y="76.31" width="345.06" height="435.8"/></g><g class="cls-10"><g class="cls-26"><path class="cls-12" d="M588,247.79a300.72,300.72,0,0,1,1,32.26c-2.69,121.26-76.28,219.68-170.39,219.68-84.47,0-154.55-79.3-168-183.28,9.28,110,81.55,195.66,169.36,195.66,94.1,0,167.69-98.42,170.38-219.68A290.33,290.33,0,0,0,588,247.79"/></g></g><g class="cls-27"><rect class="cls-28" x="256.9" y="102.45" width="317.68" height="410.49"/></g><g class="cls-29"><rect class="cls-30" x="263.52" y="93.39" width="308.96" height="404.34"/></g><g class="cls-10"><g class="cls-31"><path class="cls-12" d="M571.52,295.59c-.41-5.83-.8-12.83-.87-15.56S570,266,569.16,260.19c0,0-11.73-83.26-37.54-113.24-2.85-3.39-5.75-6.62-8.66-9.67-30.68-31.89-86.86-43.75-86.86-43.75-4.48-.94-8.09,3.08-8,8.93l.15,14.1c.06,5.85,3.78,11.44,8.26,12.44l35.27,3.15a35.48,35.48,0,0,1,14.57,4.24l3,2.25c27.47,20.35,49.51,52.86,60.86,93.62l1.26,4.53a107,107,0,0,1,2,20l-7.71,101.29a88.55,88.55,0,0,1-4,18.72l-1.75,3.93a173,173,0,0,1-34.53,51.4L502.72,435a44.33,44.33,0,0,1-14,7.49l-78.52,23.06c-4.41,1.42-11.18,1.95-15.06,1.16l-3.46-1a115,115,0,0,1-20.32-7.88L368,456.2c-3.51-2.08-9-7.14-12.27-11.25l-59-84.34a70.38,70.38,0,0,1-7.71-17.3l-1-4.73c-1.06-5-1.93-10-2.62-15l-.7-5a73.42,73.42,0,0,1,1.62-20.11l22.06-102.59c1.46-5.55,3.53-11.61,4.6-13.44s4-6.53,3.94-6.55-2-2.42-4.2-5.3-6.33-2.87-9.1,0-15.45,12.86-17.27,16.86L285,191.28c-15.18,42.08-21.08,126.84-21.08,126.84a106.4,106.4,0,0,0,.39,18.35l.7,3.86a238.43,238.43,0,0,0,21.31,63.88l2,4a41.82,41.82,0,0,0,12,11.84l44.93,47.25c3.2,4.15,8.46,10.91,11.65,15.05l9.22,3c4.27,2,11.05,4.86,15.09,6.33l3.74,1.06a125,125,0,0,0,34.92,5c3.77,0,7.52-.18,11.22-.51l3.73-.34a62,62,0,0,0,15-5.68l77.65-52.84a44.29,44.29,0,0,0,12.34-10.82l2.24-3.46a224.55,224.55,0,0,0,26.65-58.51L570,361A139.42,139.42,0,0,0,572.49,341Z"/></g></g><g class="cls-10"><g class="cls-31"><path class="cls-12" d="M571.52,295.59c-.41-5.83-.8-12.83-.87-15.56S570,266,569.16,260.19c0,0-11.73-83.26-37.54-113.24-2.85-3.39-5.75-6.62-8.66-9.67-30.68-31.89-86.86-43.75-86.86-43.75-4.48-.94-8.09,3.08-8,8.93l.15,14.1c.06,5.85,3.78,11.44,8.26,12.44l35.27,3.15a35.48,35.48,0,0,1,14.57,4.24l3,2.25c27.47,20.35,49.51,52.86,60.86,93.62l1.26,4.53a107,107,0,0,1,2,20l-7.71,101.29a88.55,88.55,0,0,1-4,18.72l-1.75,3.93a173,173,0,0,1-34.53,51.4L502.72,435a44.33,44.33,0,0,1-14,7.49l-78.52,23.06c-4.41,1.42-11.18,1.95-15.06,1.16l-3.46-1a115,115,0,0,1-20.32-7.88L368,456.2c-3.51-2.08-9-7.14-12.27-11.25l-59-84.34a70.38,70.38,0,0,1-7.71-17.3l-1-4.73c-1.06-5-1.93-10-2.62-15l-.7-5a73.42,73.42,0,0,1,1.62-20.11l22.06-102.59c1.46-5.55,3.53-11.61,4.6-13.44s4-6.53,3.94-6.55-2-2.42-4.2-5.3-6.33-2.87-9.1,0-15.45,12.86-17.27,16.86L285,191.28c-15.18,42.08-21.08,126.84-21.08,126.84a106.4,106.4,0,0,0,.39,18.35l.7,3.86a238.43,238.43,0,0,0,21.31,63.88l2,4a41.82,41.82,0,0,0,12,11.84l44.93,47.25c3.2,4.15,8.46,10.91,11.65,15.05l9.22,3c4.27,2,11.05,4.86,15.09,6.33l3.74,1.06a125,125,0,0,0,34.92,5c3.77,0,7.52-.18,11.22-.51l3.73-.34a62,62,0,0,0,15-5.68l77.65-52.84a44.29,44.29,0,0,0,12.34-10.82l2.24-3.46a224.55,224.55,0,0,0,26.65-58.51L570,361A139.42,139.42,0,0,0,572.49,341Z"/></g></g><g class="cls-32"><rect class="cls-33" x="369.18" y="417.86" width="33.39" height="43.04"/></g><g class="cls-34"><rect class="cls-35" x="432.26" y="135.18" width="27.58" height="35.56"/></g><g class="cls-36"><rect class="cls-37" x="428.35" y="320.47" width="34.03" height="23.28"/></g><g class="cls-38"><rect class="cls-39" x="453.25" y="177.62" width="43.31" height="44.06"/></g><g class="cls-40"><rect class="cls-41" x="300.88" y="362.62" width="34.19" height="25.07"/></g><g class="cls-42"><rect class="cls-43" x="479.73" y="189.16" width="58.88" height="57.32"/></g><g class="cls-10"><g class="cls-44"><path class="cls-45" d="M490.85,234.28c-1.29-2.88-2.92-8.95-1.9-12.8,2.65-18.28,15.88-29.61,32.49-24.19,3.13.92,7.81,5.74,9.1,8.61a4.16,4.16,0,0,1-4.83,5.49c-14.22-4-25,3.66-29.59,21.19-1,3.83-4,4.56-5.27,1.7"/></g></g><g class="cls-10"><g class="cls-44"><path class="cls-45" d="M490.85,234.28c-1.29-2.88-2.92-8.95-1.9-12.8,2.65-18.28,15.88-29.61,32.49-24.19,3.13.92,7.81,5.74,9.1,8.61a4.16,4.16,0,0,1-4.83,5.49c-14.22-4-25,3.66-29.59,21.19-1,3.83-4,4.56-5.27,1.7"/></g></g><path class="cls-46" d="M506.49,210.71c.77-8.45-3.09-6.89-3.09-6.89s-3,3.52,3.09,6.89"/><path class="cls-46" d="M502.35,213.59c-1.25-8.36-4.56-5.39-4.56-5.39s-2,4.52,4.56,5.39"/><path class="cls-46" d="M498,219.31c.31-8.5-3.45-6.59-3.45-6.59s-2.78,3.79,3.45,6.59"/><path class="cls-46" d="M496,224c-2.21-6.5-4.48-3.28-4.48-3.28s-1,4.14,4.48,3.28"/><path class="cls-46" d="M494.24,232.11c-.24-5.92-2.74-4.26-2.74-4.26s-1.72,2.87,2.74,4.26"/><path class="cls-46" d="M510.48,207.51c-5-5.56-1.33-7.77-1.33-7.77s4,0,1.33,7.77"/><path class="cls-46" d="M517,206.79c-5.85-3.91-2.7-7.16-2.7-7.16s3.93-1.2,2.7,7.16"/><path class="cls-46" d="M520.23,207.5c-3.26-5.71,0-6.64,0-6.64s3.29,1,0,6.64"/><path class="cls-46" d="M525.93,208.52c-3.85-3.23-1.5-5.21-1.5-5.21s2.79-.46,1.5,5.21"/><g class="cls-47"><polygon class="cls-48" points="276.37 198.9 340.4 171.69 360.39 249.89 296.36 277.1 276.37 198.9"/></g><g class="cls-10"><g class="cls-49"><path class="cls-45" d="M300.85,205.53c1.71-2.48,5.69-6.37,8.83-6.34,14.3-2.48,26.79,10.19,28,32.21.32,4.14-1.77,11.37-3.48,13.84s-5.26-.07-5.57-4.2c-1.46-18.68-10.5-29.4-24.86-29.59a3.7,3.7,0,0,1-2.91-5.92"/></g></g><g class="cls-10"><g class="cls-49"><path class="cls-45" d="M300.85,205.53c1.71-2.48,5.69-6.37,8.83-6.34,14.3-2.48,26.79,10.19,28,32.21.32,4.14-1.77,11.37-3.48,13.84s-5.26-.07-5.57-4.2c-1.46-18.68-10.5-29.4-24.86-29.59a3.7,3.7,0,0,1-2.91-5.92"/></g></g><path class="cls-46" d="M323.12,217.3c6.46-1.71,4.11-6,4.11-6s-3.53-2.53-4.11,6"/><path class="cls-46" d="M319.7,213.13c5.78-4.14,2.54-7.27,2.54-7.27s-4-1.05-2.54,7.27"/><path class="cls-46" d="M314.13,209.65c6.36-2.3,3.78-6.31,3.78-6.31s-3.66-2.21-3.78,6.31"/><path class="cls-46" d="M310.07,208.57c4.1-4.75,1-6.51,1-6.51s-3.36.08-1,6.51"/><path class="cls-46" d="M303.51,209c4.29-2.15,2.29-4.69,2.29-4.69s-2.65-1.19-2.29,4.69"/><path class="cls-46" d="M326.72,221.19c2.54-7.83,5.31-4.08,5.31-4.08s1.26,5-5.31,4.08"/><path class="cls-46" d="M329.31,229c1-8.38,4.42-5.53,4.42-5.53s2.13,4.43-4.42,5.53"/><path class="cls-46" d="M329.78,233.14c3.18-5.79,4.91-2,4.91-2s.3,4.33-4.91,2"/><path class="cls-46" d="M330.81,240.41c1.18-5.72,3.36-3.46,3.36-3.46s1.22,3.26-3.36,3.46"/><g class="cls-50"><polygon class="cls-51" points="547.79 415.61 491.19 476.07 445.71 405.32 502.31 344.85 547.79 415.61"/></g><g class="cls-10"><g class="cls-52"><path class="cls-45" d="M517.7,413.14c-.87,3.09-3.44,8.53-6.34,9.94-12.47,8.93-27.5,3.11-34.76-16.61-1.45-3.65-1.56-11.28-.68-14.36s4.86-2.37,6.3,1.27c6.58,16.51,17.89,22.17,31.16,15.68,2.9-1.42,5.21,1.05,4.32,4.08"/></g></g><g class="cls-10"><g class="cls-52"><path class="cls-45" d="M517.7,413.14c-.87,3.09-3.44,8.53-6.34,9.94-12.47,8.93-27.5,3.11-34.76-16.61-1.45-3.65-1.56-11.28-.68-14.36s4.86-2.37,6.3,1.27c6.58,16.51,17.89,22.17,31.16,15.68,2.9-1.42,5.21,1.05,4.32,4.08"/></g></g><path class="cls-46" d="M493.93,412.68c-5.47,4.57-2.11,7.39-2.11,7.39s3.95.66,2.11-7.39"/><path class="cls-46" d="M498.24,414.93c-4.16,6.49-.31,7.87-.31,7.87s3.93-.88.31-7.87"/><path class="cls-46" d="M504.34,415.54c-5.21,5.07-1.71,7.56-1.71,7.56s4,.32,1.71-7.56"/><path class="cls-46" d="M508.37,414.64c-2.43,6.28.9,6.47.9,6.47s3.07-1.64-.9-6.47"/><path class="cls-46" d="M514.29,411.2c-3.34,4-.79,5.39-.79,5.39s2.77-.14.79-5.39"/><path class="cls-46" d="M489.53,410.77c-.14,8.4-3.75,6.21-3.75,6.21s-2.54-4,3.75-6.21"/><path class="cls-46" d="M485,404.8c1.39,8.21-2.52,7.17-2.52,7.17s-3.19-3.1,2.52-7.17"/><path class="cls-46" d="M483.37,401.21c-1.31,6.81-3.94,4.14-3.94,4.14s-1.49-3.83,3.94-4.14"/><path class="cls-46" d="M480.38,395c.53,5.81-2.12,4.75-2.12,4.75s-2-2.45,2.12-4.75"/><g class="cls-53"><polygon class="cls-54" points="411.22 341.56 388.07 415.57 316.9 378.58 340.05 304.57 411.22 341.56"/></g><g class="cls-10"><g class="cls-55"><path class="cls-45" d="M388.12,345.22c.41,3.65.12,10.81-2.16,14.2-8.63,17.45-25.93,22-41.3,7.52-2.94-2.6-6.22-10.08-6.62-13.71s3.82-5.72,6.76-3.08c13.37,11.8,26.91,9.6,37.34-6,2.29-3.4,5.6-2.57,6,1.06"/></g></g><g class="cls-10"><g class="cls-55"><path class="cls-45" d="M388.12,345.22c.41,3.65.12,10.81-2.16,14.2-8.63,17.45-25.93,22-41.3,7.52-2.94-2.6-6.22-10.08-6.62-13.71s3.82-5.72,6.76-3.08c13.37,11.8,26.91,9.6,37.34-6,2.29-3.4,5.6-2.57,6,1.06"/></g></g><path class="cls-46" d="M364.4,361.14c-3.51,8.3,1,8.76,1,8.76s4.19-2-1-8.76"/><path class="cls-46" d="M369.59,360.41c-1.41,9.28,3,8,3,8s3.52-3.58-3-8"/><path class="cls-46" d="M375.89,356.79c-3.06,8.62,1.44,8.66,1.44,8.66s4.08-2.42-1.44-8.66"/><path class="cls-46" d="M379.5,353.11c.2,7.91,3.58,5.8,3.58,5.8s2.35-3.76-3.58-5.8"/><path class="cls-46" d="M383.93,345.64c-1.66,6.23,1.45,5.85,1.45,5.85s2.69-2-1.45-5.85"/><path class="cls-46" d="M359.25,362.3c3.35,8.4-1.14,8.73-1.14,8.73s-4.16-2.19,1.14-8.73"/><path class="cls-46" d="M352.25,359.53c4.77,7.17.49,8.81.49,8.81s-4.46-.85-.49-8.81"/><path class="cls-46" d="M349.18,357.07c1.52,7.66-2.18,6.84-2.18,6.84s-3.07-2.77,2.18-6.84"/><path class="cls-46" d="M343.64,353c2.93,5.4-.13,6.15-.13,6.15s-3-1,.13-6.15"/><g class="cls-56"><rect class="cls-57" x="433.03" y="387.3" width="33.3" height="50.76"/></g><path class="cls-4" d="M454.93,263.23s-1.54-7.28,2.56-7.28,8.22,11.9,3.09,17.21-37.48-23-9.24-52.14,39.78,12.75,35.16,17.39-12.84,2.64-11.29-4,6.15-2,6.15-2-6.54-9.44-9.75-2.3c-2.59,5.73,4.62,11.72,9.24,14.8s12.84,9.67,4.62,18.28-5.14,16.54-13.86,5.28S459.57,247,454,253.29c-3.45,4,.91,9.94.91,9.94"/><path class="cls-4" d="M409.61,368.63s4.82-3.56,5.8,1.31-6.53,12.59-11.53,7.76,7.45-49.92,35-23.41.44,50.22-4,45.84-5-14.59.13-14.34,2.89,6.84,2.89,6.84,5.17-10-.68-12.13c-4.72-1.7-7.27,8.29-8.36,14.5s-3.82,17.54-11.93,9.85-13-2.13-7.09-15.17,12.51-19.45,6.66-24.49c-3.66-3.14-6.87,3.44-6.87,3.44"/><g class="cls-58"><rect class="cls-59" x="479.38" y="313.15" width="44.26" height="37.92"/></g><g class="cls-60"><rect class="cls-61" x="311.66" y="295.4" width="44.26" height="37.89"/></g><g class="cls-62"><rect class="cls-63" x="520.15" y="285.92" width="33.38" height="43.03"/></g><path class="cls-4" d="M509.51,347.12l15.88,54.71a21.83,21.83,0,0,1,5.33-3.81c9.34-4.71,3.41-13.74-.08-18.24s-8.65-12.58-5-16.8c4.49-5.24,8.29,5.72,8.29,5.72s-3.13-5.91-6-.51,4.1,10.27,9.3,7.81,4.17-44.41-27.69-28.88"/><path class="cls-4" d="M323.83,382.93,338,431.88a20,20,0,0,1,4.77-3.4c8.36-4.22,3.05-12.31-.06-16.33s-7.75-11.25-4.5-15c4-4.68,7.4,5.11,7.4,5.11s-2.79-5.29-5.37-.44,3.67,9.17,8.33,7,3.73-39.74-24.77-25.82"/><g class="cls-64"><rect class="cls-65" x="313.53" y="237.34" width="25.22" height="32.51"/></g><path class="cls-4" d="M342.27,254.79,359,312.5a23,23,0,0,1,5.62-4c9.86-5,3.59-14.51-.09-19.25s-9.12-13.27-5.3-17.71c4.74-5.54,8.75,6,8.75,6s-3.31-6.24-6.34-.54,4.33,10.82,9.83,8.21,4.38-46.81-29.21-30.42"/><path class="cls-4" d="M395.6,63.4l-15.71,48.94a15.78,15.78,0,0,1,5.36,1.72c8.46,4.31,8.86-6.42,8.7-12.17s.29-15.23,4.72-15.17c5.49.13,2.76,10.43,2.76,10.43s.74-6.42-3.75-5.13-2.2,10.08,2.43,12.59,24.07-26.12-4.51-41.21"/><path class="cls-4" d="M336.55,142.29l34.23,29.29a29.31,29.31,0,0,1,2.34-6.46c4.91-9.88-3.17-12.43-7.59-13.34s-11.54-3.31-10.64-8.89c1.16-6.92,8.46-1.49,8.46-1.49s-4.73-2.17-4.61,3.77,7.25,4.72,10.05-.68-15.26-35.45-32.24-2.2"/><path class="cls-4" d="M445.71,138.52l34.21,29.29a30.29,30.29,0,0,1,2.35-6.46c4.92-9.88-3.17-12.44-7.58-13.35s-11.54-3.3-10.64-8.89c1.16-6.93,8.46-1.48,8.46-1.48s-4.73-2.19-4.62,3.76,7.24,4.73,10.06-.68-15.26-35.45-32.24-2.19"/><g class="cls-66"><polygon class="cls-67" points="380.67 151.88 324.82 80.81 380.07 8.65 435.91 79.72 380.67 151.88"/></g><g class="cls-10"><g class="cls-68"><path class="cls-45" d="M381.1,109.69c-2.81-1-7.92-4.11-9.5-8.22-9.33-17.29-5.89-40.06,10.71-53,3.07-2.56,9.81-3.59,12.62-2.64s2.66,6.88-.4,9.39C380.68,66.82,377,84.09,384.22,102.85c1.6,4.11-.33,7.79-3.12,6.84"/></g></g><g class="cls-10"><g class="cls-68"><path class="cls-45" d="M381.1,109.69c-2.81-1-7.92-4.11-9.5-8.22-9.33-17.29-5.89-40.06,10.71-53,3.07-2.56,9.81-3.59,12.62-2.64s2.66,6.88-.4,9.39C380.68,66.82,377,84.09,384.22,102.85c1.6,4.11-.33,7.79-3.12,6.84"/></g></g><path class="cls-46" d="M378.81,74.68c-4.68-7.52-6.77-2.29-6.77-2.29s-.15,5.89,6.77,2.29"/><path class="cls-46" d="M377.32,81.25c-6.23-5.35-7,.46-7,.46s1.23,5.68,7-.46"/><path class="cls-46" d="M377.47,90.31c-5.09-7.09-6.89-1.65-6.89-1.65s.17,5.87,6.89,1.65"/><path class="cls-46" d="M378.73,96.14c-5.84-2.86-5.63,2-5.63,2s1.81,4.31,5.63-2"/><path class="cls-46" d="M382.45,104.43c-3.9-4.45-4.86-.54-4.86-.54s.44,4.06,4.86.54"/><path class="cls-46" d="M380,68c-7.44.75-5.92-4.79-5.92-4.79S377.29,59,380,68"/><path class="cls-46" d="M384.75,60.59c-7.09,3-6.62-2.87-6.62-2.87s2.37-5,6.62,2.87"/><path class="cls-46" d="M387.74,57.84c-6.16-1.15-4.11-5.32-4.11-5.32s3.21-2.63,4.11,5.32"/><path class="cls-46" d="M392.91,52.74c-5.09,1.43-4.45-2.58-4.45-2.58s1.93-3.27,4.45,2.58"/><g class="cls-69"><rect class="cls-70" x="452.6" y="285.56" width="50.02" height="68.88"/></g><path class="cls-4" d="M475.11,313.86c1.67-.28,3.19,1.14,3.38,3.14s-1,3.9-2.64,4.15-3.19-1.1-3.4-3.14a3.69,3.69,0,0,1,2.66-4.15"/><path class="cls-4" d="M464,303.61A2.64,2.64,0,0,1,468,305a4.37,4.37,0,0,1-1.34,5.1,2.62,2.62,0,0,1-4-1.37,4.39,4.39,0,0,1,1.33-5.1"/><path class="cls-4" d="M493.8,309.8a2.63,2.63,0,0,1,4,1.39,4.43,4.43,0,0,1-1.32,5.12,2.65,2.65,0,0,1-4-1.39,4.41,4.41,0,0,1,1.33-5.12"/><path class="cls-4" d="M495.44,326.09a2.64,2.64,0,0,1,4.05,1.37,4.39,4.39,0,0,1-1.34,5.11,2.63,2.63,0,0,1-4-1.36,4.41,4.41,0,0,1,1.33-5.12"/><path class="cls-4" d="M481.16,334.81a2.63,2.63,0,0,1,4,1.36,4.43,4.43,0,0,1-1.34,5.13,2.65,2.65,0,0,1-4.05-1.41,4.38,4.38,0,0,1,1.34-5.08"/><path class="cls-4" d="M485.46,296.23a2.64,2.64,0,0,1,4,1.39,4.37,4.37,0,0,1-1.35,5.1,2.62,2.62,0,0,1-4-1.38,4.38,4.38,0,0,1,1.34-5.11"/><path class="cls-4" d="M472.79,298.1a1.8,1.8,0,0,1,2.75.95,3,3,0,0,1-.89,3.51,1.81,1.81,0,0,1-2.77-.95,3,3,0,0,1,.91-3.51"/><path class="cls-4" d="M466.82,338.32a1.79,1.79,0,0,1,2.75.94,3,3,0,0,1-.9,3.48,1.79,1.79,0,0,1-2.76-.94,3,3,0,0,1,.91-3.48"/><path class="cls-4" d="M457.67,320.68a1.82,1.82,0,0,1,2.77.95,3,3,0,0,1-.91,3.5,1.79,1.79,0,0,1-2.76-.94,3,3,0,0,1,.9-3.51"/><path class="cls-4" d="M488.12,319.31a1.78,1.78,0,0,1,2.75.93,3,3,0,0,1-.91,3.49,1.8,1.8,0,0,1-2.76-.93,3,3,0,0,1,.92-3.49"/><path class="cls-4" d="M468.54,325.14a1.81,1.81,0,0,1,2.76,1,3,3,0,0,1-.9,3.49,1.81,1.81,0,0,1-2.76-.94,3,3,0,0,1,.9-3.51"/><path class="cls-19" d="M483,317.33c0,2.4-1.4,4.36-3.16,4.36s-3.16-2-3.16-4.36S478,313,479.79,313s3.16,2,3.16,4.36"/><path class="cls-19" d="M493.27,303c.68,2.27-.11,4.73-1.75,5.52s-3.49-.35-4.16-2.62.13-4.7,1.76-5.51,3.49.37,4.15,2.61"/><path class="cls-19" d="M483.73,344.33c.67,2.25-.11,4.73-1.75,5.52s-3.5-.35-4.16-2.59.12-4.73,1.76-5.54,3.49.37,4.15,2.61"/><path class="cls-19" d="M469.65,344.33c.66,2.25-.12,4.73-1.76,5.52s-3.5-.35-4.15-2.59.12-4.73,1.76-5.54,3.48.37,4.15,2.61"/><path class="cls-19" d="M464.28,322.9c.66,2.24-.12,4.7-1.76,5.51s-3.49-.37-4.15-2.62.11-4.72,1.76-5.52,3.48.38,4.15,2.63"/><path class="cls-19" d="M496.47,334.49c.65,2.24-.12,4.7-1.76,5.51s-3.49-.37-4.15-2.62.11-4.72,1.76-5.51,3.49.37,4.15,2.62"/><path class="cls-19" d="M496.69,316.31c.44,1.52-.09,3.22-1.2,3.76s-2.38-.24-2.85-1.8.09-3.22,1.2-3.75,2.39.25,2.85,1.79"/><path class="cls-19" d="M463.34,302.1c.45,1.55-.09,3.25-1.2,3.8s-2.39-.27-2.85-1.8a3.25,3.25,0,0,1,1.21-3.77c1.12-.54,2.38.26,2.84,1.77"/><path class="cls-19" d="M479.63,291.7c.45,1.54-.08,3.22-1.19,3.75s-2.4-.22-2.84-1.76a3.23,3.23,0,0,1,1.19-3.78c1.12-.55,2.39.25,2.84,1.79"/><path class="cls-19" d="M476.46,335a3.24,3.24,0,0,1-1.18,3.77c-1.12.54-2.4-.27-2.85-1.79s.08-3.22,1.2-3.77,2.39.24,2.83,1.79"/><path class="cls-19" d="M474.3,306.44c.45,1.53-.09,3.22-1.21,3.76s-2.38-.25-2.84-1.79.09-3.22,1.21-3.76,2.38.25,2.84,1.79"/><g class="cls-71"><rect class="cls-72" x="275.12" y="285.28" width="50.03" height="68.87"/></g><path class="cls-4" d="M297.63,313.58c1.67-.29,3.19,1.13,3.4,3.15s-1,3.89-2.65,4.15-3.2-1.12-3.41-3.13,1-3.89,2.66-4.17"/><path class="cls-4" d="M286.47,303.32a2.64,2.64,0,0,1,4,1.39,4.36,4.36,0,0,1-1.34,5.09,2.62,2.62,0,0,1-4-1.37,4.41,4.41,0,0,1,1.33-5.11"/><path class="cls-4" d="M316.32,309.54a2.63,2.63,0,0,1,4,1.36A4.42,4.42,0,0,1,319,316a2.66,2.66,0,0,1-4.05-1.39,4.35,4.35,0,0,1,1.33-5.1"/><path class="cls-4" d="M318,325.82a2.65,2.65,0,0,1,4.06,1.37,4.4,4.4,0,0,1-1.34,5.1,2.64,2.64,0,0,1-4.05-1.36,4.37,4.37,0,0,1,1.33-5.11"/><path class="cls-4" d="M303.68,334.52a2.63,2.63,0,0,1,4,1.39,4.35,4.35,0,0,1-1.34,5.1,2.63,2.63,0,0,1-4-1.38,4.42,4.42,0,0,1,1.34-5.11"/><path class="cls-4" d="M308,296a2.63,2.63,0,0,1,4,1.37,4.42,4.42,0,0,1-1.34,5.11,2.63,2.63,0,0,1-4-1.39A4.38,4.38,0,0,1,308,296"/><path class="cls-4" d="M295.31,297.82a1.81,1.81,0,0,1,2.75,1,3,3,0,0,1-.9,3.48,1.8,1.8,0,0,1-2.76-.95,3,3,0,0,1,.91-3.5"/><path class="cls-4" d="M289.35,338a1.79,1.79,0,0,1,2.75,1,3,3,0,0,1-.9,3.49,1.81,1.81,0,0,1-2.77-1,3,3,0,0,1,.92-3.49"/><path class="cls-4" d="M280.19,320.41a1.81,1.81,0,0,1,2.77.95,3,3,0,0,1-.91,3.49,1.79,1.79,0,0,1-2.76-.92,3,3,0,0,1,.9-3.52"/><path class="cls-4" d="M310.64,319a1.79,1.79,0,0,1,2.75.94,3,3,0,0,1-.91,3.5,1.81,1.81,0,0,1-2.76-.94,3,3,0,0,1,.92-3.5"/><path class="cls-4" d="M291.07,324.88a1.8,1.8,0,0,1,2.76.94,3,3,0,0,1-.91,3.49,1.8,1.8,0,0,1-2.76-.95,3,3,0,0,1,.91-3.48"/><path class="cls-19" d="M305.48,317.05c0,2.4-1.41,4.36-3.17,4.36s-3.16-2-3.16-4.36,1.41-4.36,3.16-4.36,3.17,2,3.17,4.36"/><path class="cls-19" d="M315.79,302.73c.68,2.27-.11,4.73-1.75,5.54s-3.49-.37-4.16-2.62.13-4.73,1.77-5.53,3.49.38,4.14,2.61"/><path class="cls-19" d="M306.25,344.05c.67,2.27-.11,4.73-1.74,5.52s-3.51-.35-4.16-2.6.12-4.72,1.74-5.51,3.5.37,4.16,2.59"/><path class="cls-19" d="M292.17,344.05c.67,2.27-.12,4.73-1.76,5.52s-3.49-.35-4.15-2.6.12-4.72,1.76-5.51,3.49.37,4.15,2.59"/><path class="cls-19" d="M286.8,322.62c.67,2.24-.12,4.7-1.76,5.51s-3.49-.37-4.15-2.62.12-4.7,1.76-5.52,3.48.38,4.15,2.63"/><path class="cls-19" d="M319,334.2c.67,2.26-.11,4.71-1.75,5.52s-3.48-.35-4.15-2.61.11-4.73,1.76-5.52,3.49.37,4.14,2.61"/><path class="cls-19" d="M319.21,316c.44,1.52-.08,3.22-1.2,3.75s-2.39-.22-2.85-1.78.09-3.22,1.21-3.76,2.38.24,2.84,1.79"/><path class="cls-19" d="M285.87,301.82c.44,1.55-.09,3.25-1.21,3.8s-2.38-.25-2.84-1.8.09-3.22,1.21-3.76,2.37.23,2.84,1.76"/><path class="cls-19" d="M302.15,291.42c.45,1.54-.08,3.22-1.19,3.77s-2.39-.24-2.84-1.78a3.22,3.22,0,0,1,1.2-3.78c1.12-.55,2.38.25,2.83,1.79"/><path class="cls-19" d="M299,334.68a3.2,3.2,0,0,1-1.18,3.75c-1.12.55-2.4-.26-2.85-1.78a3.26,3.26,0,0,1,1.2-3.78c1.12-.54,2.39.25,2.83,1.81"/><path class="cls-19" d="M296.82,306.16a3.25,3.25,0,0,1-1.21,3.78c-1.1.54-2.38-.26-2.84-1.79s.09-3.23,1.21-3.78,2.38.24,2.84,1.79"/><g class="cls-73"><polygon class="cls-74" points="396.29 431.87 443.21 430.19 444.01 467.6 397.09 469.27 396.29 431.87"/></g><path class="cls-4" d="M423.86,459.14a4.48,4.48,0,0,0,.45-2.53c-.23-1.85-1.5-3.13-2.84-2.86s-2.24,2-2,3.85a4,4,0,0,0,.68,1.75,2.62,2.62,0,0,1,1.9-1,2.51,2.51,0,0,1,1.82.77"/><path class="cls-4" d="M429.57,442.58a2,2,0,0,0-2.14.08,3.88,3.88,0,0,0-.82,4.51c.72,1.64,2.25,2.22,3.42,1.36a3.86,3.86,0,0,0,.84-4.49,4.2,4.2,0,0,0-.44-.66,1.93,1.93,0,0,1-.86-.8"/><path class="cls-4" d="M410.53,463.77c-.72-1.61-2.26-2.21-3.44-1.36a3.9,3.9,0,0,0-.82,4.52c0,.06.08.1.11.15l4.23-.14a4.3,4.3,0,0,0-.08-3.17"/><path class="cls-4" d="M433.16,466.13l1.65-.06a1.82,1.82,0,0,0-1.65.06"/><path class="cls-4" d="M431.81,455.8c.5,1.13,1.54,1.53,2.34.94a2.66,2.66,0,0,0,.57-3.08c-.5-1.11-1.54-1.52-2.35-.93a2.66,2.66,0,0,0-.56,3.07"/><path class="cls-4" d="M405,450.25c.5,1,1.5,1.42,2.27.85a2.63,2.63,0,0,0,.57-3.09c-.47-1.06-1.46-1.46-2.24-.95a4.26,4.26,0,0,1-.6,3.19"/><path class="cls-4" d="M419.4,439.67a3,3,0,0,0-.06-2.17c-.49-1.11-1.55-1.53-2.34-.93a2.24,2.24,0,0,0-.78,1.74,2.48,2.48,0,0,1,3.18,1.36"/><path class="cls-4" d="M416.64,449.61c-.5-1.11-1.54-1.51-2.34-.92a2.63,2.63,0,0,0-.56,3.07c.49,1.1,1.54,1.52,2.34.93a2.65,2.65,0,0,0,.56-3.08"/><path class="cls-19" d="M419.21,462c.05,1.93,1.38,3.46,3,3.39a3.29,3.29,0,0,0,2.82-3.59,3.67,3.67,0,0,0-1.14-2.62,2.37,2.37,0,0,1-1.56,1.28,2.15,2.15,0,0,1-2.16-1.07,3.82,3.82,0,0,0-.93,2.61"/><path class="cls-19" d="M422.3,460.42a2.37,2.37,0,0,0,1.56-1.28,2.47,2.47,0,0,0-1.82-.77,2.62,2.62,0,0,0-1.9,1,2.15,2.15,0,0,0,2.16,1.07"/><path class="cls-19" d="M404.25,466.86a4,4,0,0,0,1.64-4.66c-.58-1.79-2.23-2.6-3.72-1.82a4.06,4.06,0,0,0-1.64,4.67,2.63,2.63,0,0,0,3.72,1.81"/><path class="cls-19" d="M405,450.25s-.06,0-.07-.07a2.63,2.63,0,0,1,.57-3.08.18.18,0,0,1,.1,0c0-.15,0-.31-.06-.44-.58-1.77-2.23-2.58-3.71-1.8a4,4,0,0,0-1.64,4.65c.57,1.78,2.23,2.61,3.71,1.81a3.37,3.37,0,0,0,1.1-1"/><path class="cls-19" d="M404.94,450.18l.07.07a4.26,4.26,0,0,0,.6-3.19.18.18,0,0,0-.1,0,2.63,2.63,0,0,0-.57,3.08"/><path class="cls-19" d="M418,444.83a4,4,0,0,0,1.64-4.65,2.48,2.48,0,0,0-.28-.51,2,2,0,0,1-.62.9c-.8.61-1.85.17-2.34-.93a2.89,2.89,0,0,1-.22-1.34c-.08,0-.17,0-.25.07a4,4,0,0,0-1.64,4.66c.57,1.79,2.23,2.6,3.71,1.8"/><path class="cls-19" d="M416.44,439.64c.49,1.1,1.55,1.54,2.34.93a2,2,0,0,0,.62-.9,2.47,2.47,0,0,0-3.18-1.36,2.9,2.9,0,0,0,.22,1.33"/><path class="cls-19" d="M429.29,442.08a1.71,1.71,0,0,0,.28.5,3.36,3.36,0,0,1,.86.79,1.61,1.61,0,0,0,1.4-.06,2.73,2.73,0,0,0,1.12-3.18,1.79,1.79,0,0,0-2.53-1.24,2.76,2.76,0,0,0-1.13,3.19"/><path class="cls-19" d="M429.57,442.58a1.93,1.93,0,0,0,.86.8,3.08,3.08,0,0,0-.86-.8"/><path class="cls-19" d="M436.6,459.84a1.78,1.78,0,0,0,2.54,1.23,2.74,2.74,0,0,0,1.12-3.18,1.78,1.78,0,0,0-2.54-1.24,2.76,2.76,0,0,0-1.12,3.19"/><path class="cls-19" d="M411.44,455.43a1.78,1.78,0,0,0-2.53-1.25,2.73,2.73,0,0,0-1.12,3.19,1.76,1.76,0,0,0,2.53,1.23,2.72,2.72,0,0,0,1.12-3.17"/><path class="cls-19" d="M429.23,455.52a2.76,2.76,0,0,0,1.11-3.19,1.79,1.79,0,0,0-2.53-1.23,2.76,2.76,0,0,0-1.13,3.19,1.8,1.8,0,0,0,2.55,1.23"/><g class="cls-75"><rect class="cls-76" x="356.93" y="384.68" width="40.13" height="49.66"/></g><g class="cls-77"><rect class="cls-78" x="379.39" y="295.78" width="39.02" height="47.65"/></g><g class="cls-79"><polygon class="cls-80" points="500.27 251.4 536.87 198.05 578.33 245.33 541.73 298.68 500.27 251.4"/></g><text class="cls-81" transform="translate(0 632.56) scale(0.72 1)">Odisea </text><text class="cls-82" transform="translate(268.62 623.51) scale(0.72 1)"><tspan class="cls-83">F</tspan><tspan x="79.89" y="0">ourniture Store </tspan></text></g></g></g></svg>