<svg xmlns="http://www.w3.org/2000/svg" xmlns:xlink="http://www.w3.org/1999/xlink" viewBox="0 0 428.11 158.86"><defs><style>.cls-1{fill:none;}.cls-2{isolation:isolate;}.cls-3{clip-path:url(#clip-path);}.cls-4{fill:#faf0c6;}.cls-5{clip-path:url(#clip-path-2);}.cls-6{fill:url(#Degradado_sin_nombre_250);}.cls-7{fill:#5a2c1d;}.cls-8{clip-path:url(#clip-path-3);}.cls-9{fill:url(#Degradado_sin_nombre_251);}.cls-10{mix-blend-mode:multiply;}.cls-11{clip-path:url(#clip-path-4);}.cls-12{fill:#efd4b1;}.cls-13{clip-path:url(#clip-path-6);}.cls-14{fill:url(#Degradado_sin_nombre_280);}.cls-15{clip-path:url(#clip-path-7);}.cls-16{fill:url(#Degradado_sin_nombre_280-2);}.cls-17{clip-path:url(#clip-path-8);}.cls-18{fill:url(#Degradado_sin_nombre_277);}.cls-19{fill:#a2141a;}.cls-20{clip-path:url(#clip-path-9);}.cls-21{fill:url(#Degradado_sin_nombre_277-2);}.cls-22{clip-path:url(#clip-path-10);}.cls-23{fill:url(#Degradado_sin_nombre_280-3);}.cls-24{clip-path:url(#clip-path-11);}.cls-25{fill:url(#Degradado_sin_nombre_259);}.cls-26{clip-path:url(#clip-path-12);}.cls-27{clip-path:url(#clip-path-13);}.cls-28{fill:url(#Degradado_sin_nombre_258);}.cls-29{clip-path:url(#clip-path-14);}.cls-30{fill:url(#Degradado_sin_nombre_259-2);}.cls-31{clip-path:url(#clip-path-15);}.cls-32{clip-path:url(#clip-path-17);}.cls-33{fill:url(#Degradado_sin_nombre_273);}.cls-34{clip-path:url(#clip-path-18);}.cls-35{fill:url(#Degradado_sin_nombre_273-2);}.cls-36{clip-path:url(#clip-path-19);}.cls-37{fill:url(#Degradado_sin_nombre_273-3);}.cls-38{clip-path:url(#clip-path-20);}.cls-39{fill:url(#Degradado_sin_nombre_280-4);}.cls-40{clip-path:url(#clip-path-21);}.cls-41{fill:url(#Degradado_sin_nombre_273-4);}.cls-42{clip-path:url(#clip-path-22);}.cls-43{fill:url(#Degradado_sin_nombre_277-3);}.cls-44{clip-path:url(#clip-path-23);}.cls-45{fill:#c6493d;}.cls-46{fill:#ca5c38;}.cls-47{clip-path:url(#clip-path-25);}.cls-48{fill:url(#Degradado_sin_nombre_277-4);}.cls-49{clip-path:url(#clip-path-26);}.cls-50{clip-path:url(#clip-path-28);}.cls-51{fill:url(#Degradado_sin_nombre_277-5);}.cls-52{clip-path:url(#clip-path-29);}.cls-53{clip-path:url(#clip-path-31);}.cls-54{fill:url(#Degradado_sin_nombre_277-6);}.cls-55{clip-path:url(#clip-path-32);}.cls-56{clip-path:url(#clip-path-34);}.cls-57{fill:url(#Degradado_sin_nombre_280-5);}.cls-58{clip-path:url(#clip-path-35);}.cls-59{fill:url(#Degradado_sin_nombre_280-6);}.cls-60{clip-path:url(#clip-path-36);}.cls-61{fill:url(#Degradado_sin_nombre_280-7);}.cls-62{clip-path:url(#clip-path-37);}.cls-63{fill:url(#Degradado_sin_nombre_273-5);}.cls-64{clip-path:url(#clip-path-38);}.cls-65{fill:url(#Degradado_sin_nombre_273-6);}.cls-66{clip-path:url(#clip-path-39);}.cls-67{fill:url(#Degradado_sin_nombre_277-7);}.cls-68{clip-path:url(#clip-path-40);}.cls-69{clip-path:url(#clip-path-42);}.cls-70{fill:url(#Degradado_sin_nombre_277-8);}.cls-71{clip-path:url(#clip-path-43);}.cls-72{fill:url(#Degradado_sin_nombre_277-9);}.cls-73{clip-path:url(#clip-path-44);}.cls-74{fill:url(#Degradado_sin_nombre_277-10);}.cls-75{clip-path:url(#clip-path-45);}.cls-76{fill:url(#Degradado_sin_nombre_280-8);}.cls-77{clip-path:url(#clip-path-46);}.cls-78{fill:url(#Degradado_sin_nombre_280-9);}.cls-79{clip-path:url(#clip-path-47);}.cls-80{fill:url(#Degradado_sin_nombre_280-10);}.cls-81{font-size:50px;}.cls-81,.cls-82{fill:#211915;font-family:BrushScriptMT, Brush Script MT;}.cls-82{font-size:45px;}.cls-83{letter-spacing:-0.01em;}</style><clipPath id="clip-path" transform="translate(-9.39)"><polyline class="cls-1" points="84.95 177.77 0 177.77 0 139.55"/></clipPath><clipPath id="clip-path-2" transform="translate(-9.39)"><path class="cls-1" d="M76,7.76l-.1,0h-.09A85.23,85.23,0,0,0,49.45,14,82.2,82.2,0,0,0,27.21,28l-.06,0-.08.06a2.07,2.07,0,0,0-.32,3.36L77.58,81.85a2.21,2.21,0,0,0,.78.55,2,2,0,0,0,.16-.94V9.8a1.93,1.93,0,0,0-2-2.11,3.07,3.07,0,0,0-.6.07"/></clipPath><linearGradient id="Degradado_sin_nombre_250" x1="23.17" y1="364.19" x2="25.27" y2="364.19" gradientTransform="matrix(0, -35.58, -35.58, 0, 13000.08, 906.81)" gradientUnits="userSpaceOnUse"><stop offset="0" stop-color="#dfa258"/><stop offset="0.3" stop-color="#dfa258"/><stop offset="1" stop-color="#dd9e4d"/></linearGradient><clipPath id="clip-path-3" transform="translate(-9.39)"><path class="cls-1" d="M69,4.53c-3.37.73-11.87,2.2-16.13,3.3s-11,1.69-13.74,5.07-10,5.19-10.93,8.49c0,0-6.72.85-7.15,4.21-.6,4.66,7,3.86,9.75.2a14.06,14.06,0,0,1,8.33-5.87,36.14,36.14,0,0,0,9.71-5.13C51.38,13,60,11.13,62,10.76s16.41-.55,15.33-4.21c-.61-2.08-2.13-2.69-4-2.69A21.55,21.55,0,0,0,69,4.53"/></clipPath><linearGradient id="Degradado_sin_nombre_251" x1="31.7" y1="371.4" x2="33.8" y2="371.4" gradientTransform="matrix(0, -11.89, -11.89, 0, 4455.33, 405.68)" gradientUnits="userSpaceOnUse"><stop offset="0" stop-color="#d2863a"/><stop offset="0.08" stop-color="#d58d41"/><stop offset="0.32" stop-color="#db9c50"/><stop offset="0.59" stop-color="#dfa459"/><stop offset="1" stop-color="#e0a75c"/></linearGradient><clipPath id="clip-path-4" transform="translate(-9.39)"><rect class="cls-1" x="21.01" y="3.86" width="56.39" height="24.96"/></clipPath><clipPath id="clip-path-6" transform="translate(-9.39)"><path class="cls-1" d="M67.74,38.52a3.91,3.91,0,0,1,4.17-.75,3.33,3.33,0,0,1,1.87,4.53,3.55,3.55,0,0,1-1.26,1.41l-.6.38,0,.68a2.94,2.94,0,0,1-.3,1.48A3.62,3.62,0,0,1,67,47.9a3.24,3.24,0,0,1-2-3.41l.15-1-1.06-.37A2.37,2.37,0,0,1,62.72,40a2.7,2.7,0,0,1,3.45-1.22l.06,0,.86.39Zm-1-1.37a.3.3,0,0,0-.11-.06,4.54,4.54,0,0,0-5.8,2.06A4,4,0,0,0,63,44.52l.21.07a4.93,4.93,0,0,0,3.14,5.23,5.56,5.56,0,0,0,7.11-2.53A4.63,4.63,0,0,0,73.92,45a5.35,5.35,0,0,0,1.91-2.14A5.05,5.05,0,0,0,73,36a6.09,6.09,0,0,0-2.28-.45,5.82,5.82,0,0,0-4,1.59"/></clipPath><linearGradient id="Degradado_sin_nombre_280" x1="37.44" y1="376.81" x2="39.54" y2="376.81" gradientTransform="matrix(0, -7, -7, 0, 2695.22, 312.18)" gradientUnits="userSpaceOnUse"><stop offset="0" stop-color="#517132"/><stop offset="0.23" stop-color="#5c7c36"/><stop offset="0.64" stop-color="#799942"/><stop offset="1" stop-color="#98b94e"/></linearGradient><clipPath id="clip-path-7" transform="translate(-9.39)"><path class="cls-1" d="M65.54,52.29a3.91,3.91,0,0,1,4.16-.74,3.34,3.34,0,0,1,1.88,4.53,3.48,3.48,0,0,1-1.27,1.4l-.6.39,0,.67A3.06,3.06,0,0,1,69.46,60a3.64,3.64,0,0,1-4.64,1.65,3.24,3.24,0,0,1-2-3.41l.15-1L61.86,57a2.36,2.36,0,0,1-1.35-3.21A2.69,2.69,0,0,1,64,52.51l.07,0,.85.38Zm-1.06-1.37-.11-.05a4.53,4.53,0,0,0-5.79,2.05,4,4,0,0,0,2.21,5.37l.21.08a4.91,4.91,0,0,0,3.14,5.23,5.56,5.56,0,0,0,7.11-2.53,4.63,4.63,0,0,0,.46-2.28,5.34,5.34,0,0,0,1.91-2.14,5.05,5.05,0,0,0-2.83-6.86,6,6,0,0,0-6.31,1.13"/></clipPath><linearGradient id="Degradado_sin_nombre_280-2" x1="37.19" y1="377.6" x2="39.29" y2="377.6" gradientTransform="matrix(0, -7, -7, 0, 2698.5, 324.23)" xlink:href="#Degradado_sin_nombre_280"/><clipPath id="clip-path-8" transform="translate(-9.39)"><path class="cls-1" d="M37.84,36.11a8.63,8.63,0,1,0,8.63-8.53,8.58,8.58,0,0,0-8.63,8.53"/></clipPath><linearGradient id="Degradado_sin_nombre_277" x1="36.06" y1="376.6" x2="38.16" y2="376.6" gradientTransform="matrix(0, -8.13, -8.13, 0, 3097.72, 337.7)" gradientUnits="userSpaceOnUse"><stop offset="0" stop-color="#bb2217"/><stop offset="0.53" stop-color="#c02f27"/><stop offset="1" stop-color="#c33731"/></linearGradient><clipPath id="clip-path-9" transform="translate(-9.39)"><path class="cls-1" d="M77.67,67l-.15,0,.15,0M71,68.47A1.09,1.09,0,0,1,71.67,67l.15,0a.67.67,0,0,1,.34-.89.78.78,0,0,1,1,.25.66.66,0,0,1-.3.91,1.17,1.17,0,0,1,.33.45,1.1,1.1,0,0,1-.65,1.46,1.07,1.07,0,0,1-.39.07A1.24,1.24,0,0,1,71,68.47m3.21-2.75a.75.75,0,0,1,.44-1,.85.85,0,0,1,1,.48.75.75,0,0,1-.44,1,.86.86,0,0,1-1.05-.48m-1.77-2.19a.67.67,0,0,1,.33-.93.77.77,0,0,1,1,.25.66.66,0,0,1-.33.92.85.85,0,0,1-.38.09.75.75,0,0,1-.64-.33m-2.78-2.22a1.23,1.23,0,0,1,1.54.69,1.1,1.1,0,0,1-.65,1.46A1.23,1.23,0,0,1,69,62.77s0-.07,0-.1a.71.71,0,0,1-.57-.33.66.66,0,0,1,.33-.92.81.81,0,0,1,.73,0,.49.49,0,0,1,.18-.11M77,59.37a1.16,1.16,0,1,1,0,2.31,1.14,1.14,0,0,1-.86-.4,1.21,1.21,0,0,1-.6.26,1.07,1.07,0,0,1-1.25-.83,1,1,0,0,1,1-1.11,1.21,1.21,0,0,1,.84.2,1.14,1.14,0,0,1,.89-.43m-3.53-1.21a.75.75,0,0,1,.45-1,.84.84,0,0,1,1.05.47.74.74,0,0,1-.45,1,.78.78,0,0,1-.26,0,.87.87,0,0,1-.79-.51m-4-1.15a.74.74,0,0,1,.44-1,.85.85,0,0,1,1,.47.77.77,0,0,1,0,.56l.23-.17a1.15,1.15,0,0,1,1.49.37,1,1,0,0,1-.49,1.36,1.15,1.15,0,0,1-1.5-.37.88.88,0,0,1,0-.85.52.52,0,0,1-.18.1.75.75,0,0,1-.26.05.85.85,0,0,1-.78-.52M74,56.35a.68.68,0,0,1,.34-.93.77.77,0,0,1,1,.25.67.67,0,0,1-.34.93.85.85,0,0,1-.38.09.73.73,0,0,1-.64-.34m1.38-2.11a.74.74,0,0,1,.44-1,.84.84,0,0,1,1.05.47.76.76,0,0,1-.44,1,.86.86,0,0,1-1-.48m-8.5,7a9.24,9.24,0,0,0,11.61,8.83V66.84l0,0a1.26,1.26,0,0,1-.8.11,1.23,1.23,0,0,1,.75.7,1.1,1.1,0,0,1-.65,1.46,1.25,1.25,0,0,1-1.54-.69A1.1,1.1,0,0,1,76.88,67a1.08,1.08,0,0,1,.64,0,1,1,0,0,1-.55-.44,1,1,0,0,1,.49-1.36,1.16,1.16,0,0,1,1.06,0v-9a.89.89,0,0,1,0-.66V52.4a9.2,9.2,0,0,0-11.61,8.83"/></clipPath><linearGradient id="Degradado_sin_nombre_277-2" x1="33.44" y1="373.84" x2="35.54" y2="373.84" gradientTransform="matrix(0, -8.71, -8.71, 0, 3319.87, 361.68)" xlink:href="#Degradado_sin_nombre_277"/><clipPath id="clip-path-10" transform="translate(-9.39)"><path class="cls-1" d="M36,29.76a2.9,2.9,0,0,1,3.07-.55,2.45,2.45,0,0,1,1.38,3.34,2.51,2.51,0,0,1-.93,1l-.44.28,0,.5a2.11,2.11,0,0,1-.22,1.1,2.68,2.68,0,0,1-3.41,1.22A2.4,2.4,0,0,1,34,34.17l.11-.7-.77-.28a1.76,1.76,0,0,1-1-2.37,2,2,0,0,1,2.55-.9l.05,0,.62.28Zm-.77-1-.09,0a3.35,3.35,0,0,0-4.27,1.52,2.92,2.92,0,0,0,1.63,4l.16.05A3.63,3.63,0,0,0,35,38.1a4.11,4.11,0,0,0,5.25-1.86,3.5,3.5,0,0,0,.33-1.69A3.89,3.89,0,0,0,42,33a3.72,3.72,0,0,0-2.09-5.06,4.25,4.25,0,0,0-1.67-.33,4.32,4.32,0,0,0-3,1.16"/></clipPath><linearGradient id="Degradado_sin_nombre_280-3" x1="45.89" y1="386.86" x2="47.99" y2="386.86" gradientTransform="matrix(0, -5.16, -5.16, 0, 2022.95, 275.15)" xlink:href="#Degradado_sin_nombre_280"/><clipPath id="clip-path-11" transform="translate(-9.39)"><path class="cls-1" d="M83.2,25.84V88.3c0,1.81-.43,3.13-1,2.93a18,18,0,0,1-3.49-2.69L32.48,45.69a2.92,2.92,0,0,0-4.47.42S9.39,60,9.39,90.57c0,37.56,32.88,68,73.44,68s72.28-30.48,73.44-68C158.12,30.9,86.45,23.9,86.45,23.9a3.22,3.22,0,0,0-1.23-.27,2,2,0,0,0-2,2.21"/></clipPath><linearGradient id="Degradado_sin_nombre_259" x1="21.17" y1="362.32" x2="23.27" y2="362.32" gradientTransform="matrix(0, -64.27, -64.27, 0, 23361.47, 1519.18)" gradientUnits="userSpaceOnUse"><stop offset="0" stop-color="#bb6b23"/><stop offset="0.65" stop-color="#d5954b"/><stop offset="1" stop-color="#e0a75c"/></linearGradient><clipPath id="clip-path-12" transform="translate(-9.39)"><rect class="cls-1" x="9.83" y="76.74" width="146.47" height="81.86"/></clipPath><clipPath id="clip-path-13" transform="translate(-9.39)"><path class="cls-1" d="M86.47,91.12c.18,7-7,2.24-7,2.24L38.46,54.48C17.18,67.18,12.57,103,36.82,130.92s101.65,23.23,106.85-31.16c5.83-61.07-57.32-68-57.32-68s-.06,52.4.12,59.39"/></clipPath><linearGradient id="Degradado_sin_nombre_258" x1="21.45" y1="362.64" x2="23.55" y2="362.64" gradientTransform="matrix(0, -55.22, -55.22, 0, 20098.61, 1332.35)" gradientUnits="userSpaceOnUse"><stop offset="0" stop-color="#dd9e4d"/><stop offset="0.98" stop-color="#dfa258"/><stop offset="1" stop-color="#dfa258"/></linearGradient><clipPath id="clip-path-14" transform="translate(-9.39)"><path class="cls-1" d="M86.35,31.73l.07,4.37A4.24,4.24,0,0,0,90,40l15.2,1a19.68,19.68,0,0,1,6.28,1.31l1.31.7a56,56,0,0,1,26.23,29l.55,1.4a24.11,24.11,0,0,1,.88,6.2l-3.32,31.37a20.9,20.9,0,0,1-1.73,5.8l-.76,1.21a56.38,56.38,0,0,1-14.88,15.92l-1.21.87a22.22,22.22,0,0,1-6,2.33l-33.84,7.14a21.24,21.24,0,0,1-6.49.36l-1.5-.3a62.45,62.45,0,0,1-8.76-2.45l-1.41-.5a22.45,22.45,0,0,1-5.29-3.48L29.75,111.68a19.6,19.6,0,0,1-3.33-5.36L26,104.86c-.45-1.54-.83-3.1-1.13-4.64l-.3-1.55a16.51,16.51,0,0,1,.7-6.23l9.5-31.77a20.6,20.6,0,0,1,2-4.16c.46-.57,1.73-2,1.7-2s-.85-.74-1.81-1.64a3.21,3.21,0,0,0-3.92,0c-1.19.88-6.67,4-7.45,5.22l-.59,1.18c-6.55,13-9.09,39.28-9.09,39.28a23.76,23.76,0,0,0,.17,5.69l.3,1.19a60.88,60.88,0,0,0,9.18,19.78l.87,1.25a16.67,16.67,0,0,0,5.18,3.67l19.37,14.63,5,4.66,4,.93c1.84.63,4.77,1.5,6.51,2l1.61.33a73.73,73.73,0,0,0,15,1.54c1.63,0,3.24-.06,4.84-.16l1.61-.11a32.9,32.9,0,0,0,6.46-1.76l33.47-16.36a18.6,18.6,0,0,0,5.32-3.35l1-1.07A62.52,62.52,0,0,0,147,113.22l.55-1.4a31.84,31.84,0,0,0,1.07-6.21l-.42-14.07c-.17-1.8-.34-4-.37-4.81a59.87,59.87,0,0,0-.64-6.15S142.11,54.8,131,45.51c-1.22-1-2.47-2-3.73-3C114,32.64,89.81,29,89.81,29a5.28,5.28,0,0,0-.55,0,2.77,2.77,0,0,0-2.91,2.81"/></clipPath><linearGradient id="Degradado_sin_nombre_259-2" x1="21.29" y1="362.48" x2="23.39" y2="362.48" gradientTransform="matrix(0, -59.63, -59.63, 0, 21687.69, 1423.89)" xlink:href="#Degradado_sin_nombre_259"/><clipPath id="clip-path-15" transform="translate(-9.39)"><rect class="cls-1" x="15.51" y="28.92" width="133.09" height="125.22"/></clipPath><clipPath id="clip-path-17" transform="translate(-9.39)"><path class="cls-1" d="M64.19,136.08a4,4,0,1,1,4,3.68,3.84,3.84,0,0,1-4-3.68m-3.22,0a7.22,7.22,0,1,0,7.2-6.67,6.95,6.95,0,0,0-7.2,6.67"/></clipPath><linearGradient id="Degradado_sin_nombre_273" x1="32.45" y1="379.17" x2="34.55" y2="379.17" gradientTransform="matrix(0, -6.35, -6.35, 0, 2465.58, 348.69)" gradientUnits="userSpaceOnUse"><stop offset="0" stop-color="#310c0f"/><stop offset="1" stop-color="#681e1a"/></linearGradient><clipPath id="clip-path-18" transform="translate(-9.39)"><path class="cls-1" d="M90.81,47.37a3.3,3.3,0,1,1,3.29,3.05,3.18,3.18,0,0,1-3.29-3.05m-2.65,0a6,6,0,1,0,5.94-5.51,5.74,5.74,0,0,0-5.94,5.51"/></clipPath><linearGradient id="Degradado_sin_nombre_273-2" x1="44.02" y1="380.3" x2="46.12" y2="380.3" gradientTransform="matrix(0, -5.24, -5.24, 0, 2079.1, 283.74)" xlink:href="#Degradado_sin_nombre_273"/><clipPath id="clip-path-19" transform="translate(-9.39)"><path class="cls-1" d="M86.48,105.37l3.2.25A3.89,3.89,0,0,1,94,102.25a3.77,3.77,0,0,1,3.64,4h0l3.21.24a6.85,6.85,0,0,0-6.59-7.19l-.59,0a7,7,0,0,0-7.16,6.12"/></clipPath><linearGradient id="Degradado_sin_nombre_273-3" x1="48.49" y1="390.71" x2="50.59" y2="390.71" gradientTransform="matrix(0, -3.43, -3.43, 0, 1425.57, 272.89)" xlink:href="#Degradado_sin_nombre_273"/><clipPath id="clip-path-20" transform="translate(-9.39)"><path class="cls-1" d="M105.2,59.7a8.76,8.76,0,0,0-1,2.77A2.82,2.82,0,0,1,102,63a2.51,2.51,0,0,1-2.23-2.85h0l-2.16-.31A4.58,4.58,0,0,0,101.68,65a5.1,5.1,0,0,0,2.67-.33,4.41,4.41,0,0,0,2.39,2.39c3.21,1.56,7.46.9,9.14-2.08l-2.61-1.25c-.92,1.64-2.14,2.58-3.92,1.72a3.3,3.3,0,0,1-1.91-3.4,2,2,0,0,0,.14-.39,5.06,5.06,0,0,1,.23-.74l-.13-.06a19.86,19.86,0,0,1,2-5.16L107.28,55Z"/></clipPath><linearGradient id="Degradado_sin_nombre_280-4" x1="39.23" y1="376.3" x2="41.33" y2="376.3" gradientTransform="matrix(0, -6.15, -6.15, 0, 2409.81, 309.01)" xlink:href="#Degradado_sin_nombre_280"/><clipPath id="clip-path-21" transform="translate(-9.39)"><path class="cls-1" d="M38.32,119.66a7.09,7.09,0,0,0,8-5.89l-3.2-.33h0a3.92,3.92,0,0,1-4.39,3.26,3.77,3.77,0,0,1-3.52-4.07L32,112.3a6.82,6.82,0,0,0,6.36,7.36"/></clipPath><linearGradient id="Degradado_sin_nombre_273-4" x1="45.77" y1="398.67" x2="47.87" y2="398.67" gradientTransform="matrix(0, -3.53, -3.53, 0, 1434.89, 281.05)" xlink:href="#Degradado_sin_nombre_273"/><clipPath id="clip-path-22" transform="translate(-9.39)"><path class="cls-1" d="M116.66,60.14c-6,3.2-8,10.3-4.58,15.85,0,0,.12.34.82,0s20.54-11,20.54-11,.56-.25.33-.6a12.74,12.74,0,0,0-10.86-5.8,13.16,13.16,0,0,0-6.25,1.56"/></clipPath><linearGradient id="Degradado_sin_nombre_277-3" x1="33.64" y1="371.19" x2="35.74" y2="371.19" gradientTransform="matrix(0, -8.36, -8.36, 0, 3216.02, 357.43)" xlink:href="#Degradado_sin_nombre_277"/><clipPath id="clip-path-23" transform="translate(-9.39)"><rect class="cls-1" x="112.46" y="60.68" width="18.2" height="12.41"/></clipPath><clipPath id="clip-path-25" transform="translate(-9.39)"><path class="cls-1" d="M27.59,63.55s-.32.22.25.72S45.56,78.9,45.56,78.9s.43.41.72.1a11,11,0,0,0-1-16.37,13.2,13.2,0,0,0-17.68.92"/></clipPath><linearGradient id="Degradado_sin_nombre_277-4" x1="8.62" y1="378.94" x2="10.92" y2="378.94" gradientTransform="matrix(7.94, -2.62, -2.62, -7.94, 944.32, 3104.75)" xlink:href="#Degradado_sin_nombre_277"/><clipPath id="clip-path-26" transform="translate(-9.39)"><rect class="cls-1" x="31.21" y="61.6" width="16.19" height="14.66"/></clipPath><clipPath id="clip-path-28" transform="translate(-9.39)"><path class="cls-1" d="M105.44,118.76c-2.38,5.94.89,12.54,7.3,14.74s13.53-.83,15.91-6.77c0,0,.21-.3-.52-.58s-22-7.54-22-7.54a1,1,0,0,0-.35-.07.33.33,0,0,0-.34.22"/></clipPath><linearGradient id="Degradado_sin_nombre_277-5" x1="21.16" y1="345.65" x2="23.44" y2="345.65" gradientTransform="matrix(-6.36, 5.27, 5.27, 6.36, -1573.79, -2190.74)" xlink:href="#Degradado_sin_nombre_277"/><clipPath id="clip-path-29" transform="translate(-9.39)"><rect class="cls-1" x="106.74" y="120.84" width="18.33" height="11.45"/></clipPath><clipPath id="clip-path-31" transform="translate(-9.39)"><path class="cls-1" d="M71.2,103.57c-.88.08-26.12,3.45-26.12,3.45s-.69,0-.61.48c1.08,7,8.13,12,15.74,11S73.13,111,72.05,103.89c0,0,0-.34-.62-.34l-.23,0"/></clipPath><linearGradient id="Degradado_sin_nombre_277-6" x1="14.83" y1="344.65" x2="17.03" y2="344.65" gradientTransform="matrix(-3.48, 8.63, 8.63, 3.48, -2867.23, -1226.32)" xlink:href="#Degradado_sin_nombre_277"/><clipPath id="clip-path-32" transform="translate(-9.39)"><rect class="cls-1" x="47.53" y="105.92" width="21.67" height="10.4"/></clipPath><clipPath id="clip-path-34" transform="translate(-9.39)"><path class="cls-1" d="M91,120.21l.93,2.58h0c1.9-.59,3.48-.47,4.11,1.29a3.21,3.21,0,0,1-1.18,3.67,1.79,1.79,0,0,0-.39.2,6.93,6.93,0,0,1-.72.38l0,.13a24.16,24.16,0,0,1-5.31,2.41l1.18,2.07,5-2a10,10,0,0,0,2.84-1.33,2.76,2.76,0,0,1,2,1,2.38,2.38,0,0,1-.52,3.5l1.31,1.61a4.31,4.31,0,0,0,1-6.33,4.86,4.86,0,0,0-2.16-1.48,4,4,0,0,0,.07-3.26A7,7,0,0,0,92.75,120a5.88,5.88,0,0,0-1.74.26"/></clipPath><linearGradient id="Degradado_sin_nombre_280-5" x1="31.06" y1="374.28" x2="33.16" y2="374.28" gradientTransform="matrix(0, -7.48, -7.48, 0, 2887.7, 368.15)" xlink:href="#Degradado_sin_nombre_280"/><clipPath id="clip-path-35" transform="translate(-9.39)"><path class="cls-1" d="M108.47,101.7l2.9.44c.32-1.83,1.16-3.07,3.14-2.77a3.51,3.51,0,0,1,3,2.67,2,2,0,0,0,0,.42,4.3,4.3,0,0,1,0,.77l.15,0a19.48,19.48,0,0,1-.17,5.48H120l.38-5.06a8.37,8.37,0,0,0,.06-2.94,2.75,2.75,0,0,1,4.94.9l2.15-.33a4.86,4.86,0,0,0-5.6-3.73,5.14,5.14,0,0,0-2.43,1.08,4.7,4.7,0,0,0-3.07-1.57,7.44,7.44,0,0,0-1.25-.1c-3.17,0-6.21,1.79-6.73,4.72"/></clipPath><linearGradient id="Degradado_sin_nombre_280-6" x1="37.3" y1="376.69" x2="39.4" y2="376.69" gradientTransform="matrix(0, -5.59, -5.59, 0, 2215, 317.32)" xlink:href="#Degradado_sin_nombre_280"/><clipPath id="clip-path-36" transform="translate(-9.39)"><path class="cls-1" d="M36.18,96.2l2.89.44h0c.33-1.83,1.17-3.07,3.15-2.77a3.51,3.51,0,0,1,3,2.67,1.41,1.41,0,0,0,0,.41,5.35,5.35,0,0,1,0,.78l.15,0a19.63,19.63,0,0,1-.18,5.47h2.54l.39-5a8.41,8.41,0,0,0,0-3A2.75,2.75,0,0,1,50,94.06a2.69,2.69,0,0,1,3.1,2.06h0l2.14-.34a4.84,4.84,0,0,0-5.59-3.72,5,5,0,0,0-2.43,1.08,4.73,4.73,0,0,0-3.08-1.57,8.66,8.66,0,0,0-1.25-.1c-3.17,0-6.21,1.8-6.72,4.72"/></clipPath><linearGradient id="Degradado_sin_nombre_280-7" x1="37.83" y1="383.93" x2="39.93" y2="383.93" gradientTransform="matrix(0, -5.59, -5.59, 0, 2181.87, 314.63)" xlink:href="#Degradado_sin_nombre_280"/><clipPath id="clip-path-37" transform="translate(-9.39)"><path class="cls-1" d="M129.26,95.21a4,4,0,1,1,4,3.68,3.84,3.84,0,0,1-4-3.68m-3.22,0a7.22,7.22,0,1,0,7.2-6.66,6.94,6.94,0,0,0-7.2,6.66"/></clipPath><linearGradient id="Degradado_sin_nombre_273-5" x1="35.82" y1="373.44" x2="37.92" y2="373.44" gradientTransform="matrix(0, -6.35, -6.35, 0, 2493.6, 329.19)" xlink:href="#Degradado_sin_nombre_273"/><clipPath id="clip-path-38" transform="translate(-9.39)"><path class="cls-1" d="M39.41,78.54a3,3,0,1,1,3,2.78,2.9,2.9,0,0,1-3-2.78m-2.43,0a5.45,5.45,0,1,0,5.44-5,5.25,5.25,0,0,0-5.44,5"/></clipPath><linearGradient id="Degradado_sin_nombre_273-6" x1="42.91" y1="388.17" x2="45.01" y2="388.17" gradientTransform="matrix(0, -4.8, -4.8, 0, 1894.3, 289.34)" xlink:href="#Degradado_sin_nombre_273"/><clipPath id="clip-path-39" transform="translate(-9.39)"><path class="cls-1" d="M57.89,21.67c-2,7,2.56,14.19,10.14,16,0,0,.4.19.66-.61S75.45,13,75.45,13s.23-.61-.26-.71a15.25,15.25,0,0,0-3.59-.43c-6.3,0-12,3.92-13.71,9.83"/></clipPath><linearGradient id="Degradado_sin_nombre_277-7" x1="38.74" y1="359.06" x2="41.01" y2="359.06" gradientTransform="matrix(-6.74, -6.65, -6.65, 6.74, 2714.71, -2129.57)" xlink:href="#Degradado_sin_nombre_277"/><clipPath id="clip-path-40" transform="translate(-9.39)"><rect class="cls-1" x="59.82" y="14.09" width="13.12" height="19.92"/></clipPath><clipPath id="clip-path-42" transform="translate(-9.39)"><path class="cls-1" d="M96.93,99.1a10.78,10.78,0,1,0,10.78-10.66A10.72,10.72,0,0,0,96.93,99.1"/></clipPath><linearGradient id="Degradado_sin_nombre_277-8" x1="29.51" y1="370.04" x2="31.61" y2="370.04" gradientTransform="matrix(0, -10.16, -10.16, 0, 3857.26, 409.49)" xlink:href="#Degradado_sin_nombre_277"/><clipPath id="clip-path-43" transform="translate(-9.39)"><path class="cls-1" d="M20.43,99A10.78,10.78,0,1,0,31.21,88.35,10.72,10.72,0,0,0,20.43,99"/></clipPath><linearGradient id="Degradado_sin_nombre_277-9" x1="29.51" y1="374.25" x2="31.61" y2="374.25" gradientTransform="matrix(0, -10.16, -10.16, 0, 3822.82, 409.41)" xlink:href="#Degradado_sin_nombre_277"/><clipPath id="clip-path-44" transform="translate(-9.39)"><path class="cls-1" d="M76.82,143.84l0-.08,0,.08M90,142.41a.76.76,0,0,1,.48-1,.87.87,0,0,1,1.1.39.74.74,0,0,1-.49,1,.8.8,0,0,1-.34.07.82.82,0,0,1-.75-.45m-12.42-.76a.76.76,0,0,1,.48-1,.85.85,0,0,1,1.09.39.73.73,0,0,1-.48,1,.84.84,0,0,1-.35.07.79.79,0,0,1-.74-.44m4.93,1.42a1,1,0,0,1,.4-.81,1.11,1.11,0,0,1-.3-.54,1,1,0,0,1,.87-1.2,1.09,1.09,0,0,1,1.22.89,1,1,0,0,1-.19.78A1.06,1.06,0,0,1,85,143a1.16,1.16,0,0,1-1.21,1.11h0a1.16,1.16,0,0,1-1.23-1.05M88,141.16a.66.66,0,0,1,.25-.95.79.79,0,0,1,1,.29.67.67,0,0,1-.24.95.72.72,0,0,1-.35.08.79.79,0,0,1-.67-.37m-2.21-.47a.77.77,0,0,1,.49-1,.86.86,0,0,1,1.09.39.75.75,0,0,1-.48,1,.87.87,0,0,1-1.1-.38m-5.57-.78a.66.66,0,0,1,.24-.95.79.79,0,0,1,1,.28.67.67,0,0,1-.25,1,.77.77,0,0,1-.34.08.76.76,0,0,1-.66-.37m-5.84-.71a1.1,1.1,0,0,1,.71-1.44,1.26,1.26,0,0,1,1.6.56s0,.09,0,.13a.76.76,0,0,1,1,.3.65.65,0,0,1-.24.95.77.77,0,0,1-1-.26,1.19,1.19,0,0,1-.47.32,1.31,1.31,0,0,1-.5.1,1.18,1.18,0,0,1-1.1-.66m12.54-2.29a.76.76,0,0,1,.48-1,.88.88,0,0,1,1.1.39.75.75,0,0,1-.48,1,.92.92,0,0,1-.61,0,1,1,0,0,1,.19.21,1,1,0,0,1-.36,1.39,1.14,1.14,0,0,1-1.48-.42,1,1,0,0,1,.36-1.4,1.13,1.13,0,0,1,.92,0,1,1,0,0,1-.12-.16m-6.45.3a1.1,1.1,0,0,1,.71-1.45l.11,0a.64.64,0,0,1,.33-.54.79.79,0,0,1,1,.29.65.65,0,0,1,0,.67.48.48,0,0,1,.12.17,1.07,1.07,0,0,1-.7,1.43,1.31,1.31,0,0,1-.5.1,1.17,1.17,0,0,1-1.1-.65m2.31-3.47c-5.45.15-9.76,4.1-9.61,8.82a7.51,7.51,0,0,0,.4,2.18l3.47-.09,0,0a1.07,1.07,0,0,1-.14-.77,1.22,1.22,0,0,1-.74.75,1.27,1.27,0,0,1-1.6-.56,1.11,1.11,0,0,1,.71-1.45,1.26,1.26,0,0,1,1.6.56,1,1,0,0,1,.06.62.92.92,0,0,1,.46-.55,1.14,1.14,0,0,1,1.48.42,1,1,0,0,1,0,1l9.73-.25a1.08,1.08,0,0,1,.71,0l3.33-.09a7.28,7.28,0,0,0,.28-2.19c-.14-4.64-4.52-8.32-9.83-8.32h-.3"/></clipPath><linearGradient id="Degradado_sin_nombre_277-10" x1="7.14" y1="370.19" x2="9.41" y2="370.19" gradientTransform="matrix(8.71, -0.24, -0.24, -8.71, 90.76, 3364.88)" xlink:href="#Degradado_sin_nombre_277"/><clipPath id="clip-path-45" transform="translate(-9.39)"><path class="cls-1" d="M63.64,122.08a3.93,3.93,0,0,1,4.16-.74,3.34,3.34,0,0,1,1.88,4.53,3.51,3.51,0,0,1-1.27,1.41l-.59.39,0,.67a3.07,3.07,0,0,1-.3,1.49,3.64,3.64,0,0,1-4.64,1.64,3.24,3.24,0,0,1-2-3.41l.14-.94L60,126.74a2.37,2.37,0,0,1-1.36-3.21,2.72,2.72,0,0,1,3.46-1.23l.06,0,.85.38Zm-1.06-1.36-.11-.06a4.54,4.54,0,0,0-5.79,2.06,4,4,0,0,0,2.22,5.37l.2.07a4.92,4.92,0,0,0,3.14,5.23,5.55,5.55,0,0,0,7.11-2.52,4.81,4.81,0,0,0,.47-2.29,5.21,5.21,0,0,0,1.91-2.14,5,5,0,0,0-2.84-6.85,6,6,0,0,0-6.31,1.13"/></clipPath><linearGradient id="Degradado_sin_nombre_280-8" x1="31.97" y1="377.75" x2="34.07" y2="377.75" gradientTransform="matrix(0, -7, -7, 0, 2697.69, 357.46)" xlink:href="#Degradado_sin_nombre_280"/><clipPath id="clip-path-46" transform="translate(-9.39)"><path class="cls-1" d="M71,103.38a3.32,3.32,0,0,1-3.1-3.59A3.41,3.41,0,0,1,70.78,97l1-.16.07-1a2.58,2.58,0,0,1,2.89-2.17,2.46,2.46,0,0,1,2.3,2.67v.07l-.14.87.85.39a3.4,3.4,0,0,1,2,3.45,3.67,3.67,0,0,1-4.11,3,3.9,3.9,0,0,1-1.83-.69l-.57-.41-.68.24a3.86,3.86,0,0,1-1.22.21,2.69,2.69,0,0,1-.4,0m-.83-8.17a1.34,1.34,0,0,0,0,.2,5.18,5.18,0,0,0-4.44,4.36,5.08,5.08,0,0,0,4.75,5.51,5.9,5.9,0,0,0,2.49-.28,5.93,5.93,0,0,0,2.78,1,5.53,5.53,0,0,0,6.2-4.58,5.12,5.12,0,0,0-3.08-5.23l0-.11A4.15,4.15,0,0,0,75,91.63a4.36,4.36,0,0,0-.51,0,4.28,4.28,0,0,0-4.34,3.61"/></clipPath><linearGradient id="Degradado_sin_nombre_280-9" x1="34.26" y1="377.26" x2="36.36" y2="377.26" gradientTransform="matrix(0, -6.89, -6.89, 0, 2663.69, 342.11)" xlink:href="#Degradado_sin_nombre_280"/><clipPath id="clip-path-47" transform="translate(-9.39)"><path class="cls-1" d="M128.63,80a3.11,3.11,0,0,1,.9-3.81l.78-.62-.51-.92a2.36,2.36,0,0,1,1.28-3.24,2.71,2.71,0,0,1,3.46,1.2l0,.07.36.8.95-.06a3.79,3.79,0,0,1,3.65,2,3.35,3.35,0,0,1-1.84,4.55,4.06,4.06,0,0,1-2,.28l-.72-.08-.45.53a3.34,3.34,0,0,1-1.29.93,3.68,3.68,0,0,1-1.45.29A3.5,3.5,0,0,1,128.63,80m1.58-10.38A3.94,3.94,0,0,0,128,75l.1.18A4.74,4.74,0,0,0,126.74,81a5.58,5.58,0,0,0,7.14,2.47,5.37,5.37,0,0,0,2-1.43,6,6,0,0,0,3-.43,5,5,0,0,0,2.77-6.88,5.7,5.7,0,0,0-5.53-3s0-.07,0-.11a4.44,4.44,0,0,0-4-2.38,4.66,4.66,0,0,0-1.82.37"/></clipPath><linearGradient id="Degradado_sin_nombre_280-10" x1="23.84" y1="379.93" x2="26.09" y2="379.93" gradientTransform="matrix(4.63, -5.24, -5.24, -4.63, 1999.5, 1969.32)" xlink:href="#Degradado_sin_nombre_280"/></defs><title>Recurso 5</title><g class="cls-2"><g id="Capa_2" data-name="Capa 2"><g id="Capa_1-2" data-name="Capa 1"><g class="cls-3"><path class="cls-4" d="M52.1,130.14l.83,2.46a1.37,1.37,0,0,1,.28-.17c.49-.21.18-.62,0-.82s-.46-.57-.27-.76.44.26.44.26-.17-.26-.32,0,.22.46.49.35.22-2-1.45-1.3" transform="translate(-9.39)"/><path class="cls-4" d="M42.38,131.75l.74,2.2.25-.15c.44-.19.16-.55,0-.73s-.4-.51-.23-.68.38.23.38.23-.14-.24-.28,0,.19.41.44.31.19-1.78-1.3-1.16" transform="translate(-9.39)"/></g><path class="cls-1" d="M75.86.1A107.34,107.34,0,0,0,44.5,7,97.85,97.85,0,0,0,18,22.64a3.35,3.35,0,0,0-.57,5.56l59.7,55.31c1.84,1.7,3.34,1.13,3.34-1.29V3.52A3.44,3.44,0,0,0,76.85,0" transform="translate(-9.39)"/><g class="cls-5"><rect class="cls-6" x="16.59" y="7.69" width="52.54" height="74.71"/></g><path class="cls-7" d="M48.67,52.51h0a3.57,3.57,0,0,1,4.78.09,3,3,0,0,1-.1,4.42l1.9,1.83h0a5.37,5.37,0,0,0,.17-8,6.46,6.46,0,0,0-8.65-.15Z" transform="translate(-9.39)"/><g class="cls-8"><rect class="cls-9" x="11.05" y="3.86" width="57.98" height="26.4"/></g><g class="cls-10"><g class="cls-11"><path class="cls-12" d="M28.19,21.39s-6.72.85-7.15,4.21c-.6,4.66,7,3.86,9.75.2a14.06,14.06,0,0,1,8.33-5.87,36.14,36.14,0,0,0,9.71-5.13C51.38,13,60,11.13,62,10.76s16.41-.55,15.33-4.21-5-2.76-8.35-2-11.87,2.2-16.13,3.3S41.92,9.52,39.12,12.9s-10,5.19-10.93,8.49" transform="translate(-9.39)"/></g></g><g class="cls-10"><g class="cls-11"><path class="cls-12" d="M28.19,21.39s-6.72.85-7.15,4.21c-.6,4.66,7,3.86,9.75.2a14.06,14.06,0,0,1,8.33-5.87,36.14,36.14,0,0,0,9.71-5.13C51.38,13,60,11.13,62,10.76s16.41-.55,15.33-4.21-5-2.76-8.35-2-11.87,2.2-16.13,3.3S41.92,9.52,39.12,12.9s-10,5.19-10.93,8.49" transform="translate(-9.39)"/></g></g><path class="cls-7" d="M52,18.37A5.91,5.91,0,0,0,45.93,24a6.14,6.14,0,0,0,12.24,0A5.92,5.92,0,0,0,52,18.37m0,8.81A3.27,3.27,0,0,1,48.66,24a3.39,3.39,0,0,1,6.76,0A3.27,3.27,0,0,1,52,27.18" transform="translate(-9.39)"/><path class="cls-7" d="M73.05,33a4.85,4.85,0,0,0-5,4.65,5,5,0,0,0,10,0,4.85,4.85,0,0,0-5-4.65m0,7.22a2.58,2.58,0,1,1,2.77-2.57,2.68,2.68,0,0,1-2.77,2.57" transform="translate(-9.39)"/><g class="cls-13"><rect class="cls-14" x="50.41" y="35.56" width="17.3" height="15.38"/></g><g class="cls-15"><rect class="cls-16" x="48.2" y="49.34" width="17.3" height="15.38"/></g><g class="cls-17"><rect class="cls-18" x="28.45" y="27.58" width="17.25" height="17.07"/></g><path class="cls-4" d="M45.6,34.6a1,1,0,0,1,1.17.78,1,1,0,0,1-.91,1,1,1,0,0,1-1.17-.78,1,1,0,0,1,.91-1" transform="translate(-9.39)"/><path class="cls-4" d="M41.75,32.05a1.07,1.07,0,0,1,1.4.35.91.91,0,0,1-.46,1.26,1.06,1.06,0,0,1-1.39-.34.92.92,0,0,1,.45-1.27" transform="translate(-9.39)"/><path class="cls-4" d="M52.05,33.59a1.06,1.06,0,0,1,1.39.35A.9.9,0,0,1,53,35.2a1.07,1.07,0,0,1-1.39-.34.91.91,0,0,1,.46-1.27" transform="translate(-9.39)"/><path class="cls-4" d="M52.62,37.62A1.07,1.07,0,0,1,54,38a.91.91,0,0,1-.46,1.26,1,1,0,0,1-1.39-.34.91.91,0,0,1,.46-1.27" transform="translate(-9.39)"/><path class="cls-4" d="M47.69,39.79a1.05,1.05,0,0,1,1.39.34.91.91,0,0,1-.46,1.27,1.07,1.07,0,0,1-1.39-.35.9.9,0,0,1,.46-1.26" transform="translate(-9.39)"/><path class="cls-4" d="M49.17,30.23a1.08,1.08,0,0,1,1.4.34.92.92,0,0,1-.47,1.27,1.06,1.06,0,0,1-1.39-.34.92.92,0,0,1,.46-1.27" transform="translate(-9.39)"/><path class="cls-4" d="M44.8,30.69a.74.74,0,0,1,1,.24.61.61,0,0,1-.31.86.71.71,0,0,1-.95-.23.63.63,0,0,1,.31-.87" transform="translate(-9.39)"/><path class="cls-4" d="M42.75,40.65a.72.72,0,0,1,.94.24.61.61,0,0,1-.31.86.72.72,0,0,1-1-.23.63.63,0,0,1,.32-.87" transform="translate(-9.39)"/><path class="cls-4" d="M39.59,36.29a.73.73,0,0,1,.95.23.62.62,0,0,1-.31.87.72.72,0,0,1-.95-.23.62.62,0,0,1,.31-.87" transform="translate(-9.39)"/><path class="cls-4" d="M50.09,36a.72.72,0,0,1,.95.23.62.62,0,0,1-.32.86.72.72,0,0,1-.95-.23.62.62,0,0,1,.32-.86" transform="translate(-9.39)"/><path class="cls-4" d="M43.34,37.39a.74.74,0,0,1,.95.23.62.62,0,0,1-.31.87.75.75,0,0,1-1-.23.64.64,0,0,1,.32-.87" transform="translate(-9.39)"/><path class="cls-19" d="M48.31,35.45a1.1,1.1,0,1,1-1.09-1.08,1.09,1.09,0,0,1,1.09,1.08" transform="translate(-9.39)"/><path class="cls-19" d="M51.87,31.91a1,1,0,0,1-.61,1.37,1.15,1.15,0,0,1-1.43-.65,1,1,0,0,1,.61-1.37,1.17,1.17,0,0,1,1.43.65" transform="translate(-9.39)"/><path class="cls-19" d="M48.57,42.15a1,1,0,0,1-.6,1.36,1.14,1.14,0,0,1-1.43-.64,1,1,0,0,1,.6-1.37,1.16,1.16,0,0,1,1.43.65" transform="translate(-9.39)"/><path class="cls-19" d="M43.72,42.15a1,1,0,0,1-.61,1.36,1.14,1.14,0,0,1-1.43-.64,1,1,0,0,1,.61-1.37,1.16,1.16,0,0,1,1.43.65" transform="translate(-9.39)"/><path class="cls-19" d="M41.87,36.83a1,1,0,0,1-.61,1.37,1.14,1.14,0,0,1-1.43-.65,1,1,0,0,1,.6-1.36,1.16,1.16,0,0,1,1.44.64" transform="translate(-9.39)"/><path class="cls-19" d="M53,39.71a1,1,0,0,1-.61,1.36,1.15,1.15,0,0,1-1.43-.64,1,1,0,0,1,.61-1.37,1.15,1.15,0,0,1,1.43.65" transform="translate(-9.39)"/><path class="cls-19" d="M53.05,35.2a.7.7,0,0,1-.42.93.79.79,0,0,1-1-.43.7.7,0,0,1,.41-.94.8.8,0,0,1,1,.44" transform="translate(-9.39)"/><path class="cls-19" d="M41.54,31.68a.7.7,0,0,1-.41.94.79.79,0,0,1-1-.44.69.69,0,0,1,.41-.93.79.79,0,0,1,1,.43" transform="translate(-9.39)"/><path class="cls-19" d="M47.16,29.11a.69.69,0,0,1-.41.93.78.78,0,0,1-1-.44.71.71,0,0,1,.41-.94.78.78,0,0,1,1,.45" transform="translate(-9.39)"/><path class="cls-19" d="M46.07,39.82a.69.69,0,0,1-.41.93.78.78,0,0,1-1-.44.69.69,0,0,1,.41-.93.78.78,0,0,1,1,.44" transform="translate(-9.39)"/><path class="cls-19" d="M45.32,32.76a.69.69,0,0,1-.41.93.78.78,0,0,1-1-.44.69.69,0,0,1,.41-.93.78.78,0,0,1,1,.44" transform="translate(-9.39)"/><g class="cls-20"><rect class="cls-21" x="57.52" y="52.08" width="11.75" height="18.29"/></g><path class="cls-4" d="M76.07,59.8a1.21,1.21,0,0,0-.84-.2,1,1,0,0,0-1,1.11,1.07,1.07,0,0,0,1.25.83,1.21,1.21,0,0,0,.6-.26,1.13,1.13,0,0,1-.31-.76,1.17,1.17,0,0,1,.28-.72" transform="translate(-9.39)"/><path class="cls-4" d="M70.61,57.38a.91.91,0,0,0,0,.85,1.15,1.15,0,0,0,1.5.37,1,1,0,0,0,.49-1.35,1.13,1.13,0,0,0-1.49-.37,1.19,1.19,0,0,0-.23.16.73.73,0,0,1-.27.34" transform="translate(-9.39)"/><path class="cls-4" d="M77.46,65.16A1,1,0,0,0,77,66.52a1.16,1.16,0,0,0,1.5.37l0,0V65.16a1.2,1.2,0,0,0-1.06,0" transform="translate(-9.39)"/><path class="cls-4" d="M78.52,56.15v-.66a.89.89,0,0,0,0,.66" transform="translate(-9.39)"/><path class="cls-4" d="M75.05,56.6a.67.67,0,0,0,.34-.93.77.77,0,0,0-1-.25.68.68,0,0,0-.34.93.79.79,0,0,0,1,.25" transform="translate(-9.39)"/><path class="cls-4" d="M72.88,67.25a.66.66,0,0,0,.3-.91.77.77,0,0,0-1-.25.67.67,0,0,0-.35.89,1.24,1.24,0,0,1,1.06.27" transform="translate(-9.39)"/><path class="cls-4" d="M69.51,61.42a.79.79,0,0,0-.72,0,.66.66,0,0,0-.34.92.71.71,0,0,0,.57.33,1.06,1.06,0,0,1,.49-1.25" transform="translate(-9.39)"/><path class="cls-4" d="M72.8,62.6a.66.66,0,0,0-.33.92.8.8,0,0,0,1,.26.67.67,0,0,0,.33-.93.77.77,0,0,0-1-.25" transform="translate(-9.39)"/><path class="cls-19" d="M77,61.68a1.16,1.16,0,1,0-.89-1.88.9.9,0,0,1,.41.63.93.93,0,0,1-.38.86,1.16,1.16,0,0,0,.86.39" transform="translate(-9.39)"/><path class="cls-19" d="M76.48,60.43a.9.9,0,0,0-.41-.63,1.08,1.08,0,0,0,0,1.48.9.9,0,0,0,.38-.85" transform="translate(-9.39)"/><path class="cls-19" d="M78.42,67.7a1.23,1.23,0,0,0-1.54-.7,1.1,1.1,0,0,0-.65,1.47,1.25,1.25,0,0,0,1.54.69,1.1,1.1,0,0,0,.65-1.46" transform="translate(-9.39)"/><path class="cls-19" d="M72.88,67.25l0,0a.77.77,0,0,1-1-.25.06.06,0,0,1,0,0l-.15,0A1.09,1.09,0,0,0,71,68.47a1.23,1.23,0,0,0,1.53.69,1.1,1.1,0,0,0,.65-1.46,1.17,1.17,0,0,0-.33-.45" transform="translate(-9.39)"/><path class="cls-19" d="M72.85,67.27l0,0A1.24,1.24,0,0,0,71.82,67s0,0,0,0a.77.77,0,0,0,1,.25" transform="translate(-9.39)"/><path class="cls-19" d="M71.23,62a1.23,1.23,0,0,0-1.54-.69.49.49,0,0,0-.18.11.61.61,0,0,1,.3.25.66.66,0,0,1-.34.92.88.88,0,0,1-.45.08s0,.07,0,.1a1.23,1.23,0,0,0,1.54.69A1.1,1.1,0,0,0,71.23,62" transform="translate(-9.39)"/><path class="cls-19" d="M69.47,62.59a.66.66,0,0,0,.34-.92.61.61,0,0,0-.3-.25A1.06,1.06,0,0,0,69,62.67a.88.88,0,0,0,.45-.08" transform="translate(-9.39)"/><path class="cls-19" d="M70.43,57.48a.45.45,0,0,0,.18-.1,1.1,1.1,0,0,1,.27-.34.77.77,0,0,0,0-.56.85.85,0,0,0-1-.47.74.74,0,0,0-.44,1,.83.83,0,0,0,1,.47" transform="translate(-9.39)"/><path class="cls-19" d="M70.61,57.38a.73.73,0,0,0,.27-.34,1.27,1.27,0,0,0-.27.34" transform="translate(-9.39)"/><path class="cls-19" d="M76.46,54.71a.74.74,0,0,0,.44-1,.86.86,0,0,0-1.05-.47.75.75,0,0,0-.44,1,.84.84,0,0,0,1,.47" transform="translate(-9.39)"/><path class="cls-19" d="M74.68,64.72a.75.75,0,0,0-.44,1,.84.84,0,0,0,1.05.48.75.75,0,0,0,.44-1,.85.85,0,0,0-1-.48" transform="translate(-9.39)"/><path class="cls-19" d="M74.93,57.63a.85.85,0,0,0-1.05-.48.77.77,0,0,0-.45,1,.86.86,0,0,0,1,.47.75.75,0,0,0,.45-1" transform="translate(-9.39)"/><g class="cls-22"><rect class="cls-23" x="20.79" y="27.59" width="12.75" height="11.34"/></g><g class="cls-24"><rect class="cls-25" y="23.63" width="148.73" height="134.97"/></g><g class="cls-10"><g class="cls-26"><path class="cls-12" d="M155.28,76.74a67.45,67.45,0,0,1,.41,10c-1.16,37.55-32.87,68-73.44,68-36.41,0-66.62-24.55-72.42-56.75,4,34.07,35.15,60.59,73,60.59,40.56,0,72.28-30.48,73.44-68a65.61,65.61,0,0,0-1-13.83" transform="translate(-9.39)"/></g></g><g class="cls-27"><rect class="cls-28" x="3.19" y="31.73" width="136.93" height="127.13"/></g><g class="cls-29"><rect class="cls-30" x="6.04" y="28.92" width="133.17" height="125.22"/></g><g class="cls-10"><g class="cls-31"><path class="cls-12" d="M148.18,91.55c-.17-1.81-.34-4-.37-4.82a59.87,59.87,0,0,0-.64-6.15S142.11,54.8,131,45.51q-1.85-1.57-3.74-3C114,32.64,89.81,29,89.81,29a2.82,2.82,0,0,0-3.46,2.76l.07,4.37A4.24,4.24,0,0,0,90,40l15.2,1a19.68,19.68,0,0,1,6.28,1.31l1.31.7a56,56,0,0,1,26.23,29l.55,1.4a24.55,24.55,0,0,1,.88,6.2l-3.32,31.37a21.24,21.24,0,0,1-1.73,5.8l-.75,1.21a56.56,56.56,0,0,1-14.89,15.92l-1.21.88a22.53,22.53,0,0,1-6,2.32l-33.84,7.14a21.24,21.24,0,0,1-6.49.36l-1.5-.31a62,62,0,0,1-8.76-2.44l-1.41-.5a22.66,22.66,0,0,1-5.29-3.48L29.75,111.68a19.6,19.6,0,0,1-3.33-5.36L26,104.86c-.46-1.54-.83-3.09-1.13-4.64l-.3-1.55a16.51,16.51,0,0,1,.7-6.23l9.51-31.77a20.15,20.15,0,0,1,2-4.16c.46-.57,1.72-2,1.7-2s-.85-.75-1.81-1.64a3.22,3.22,0,0,0-3.93,0c-1.18.88-6.66,4-7.44,5.22l-.59,1.18c-6.55,13-9.09,39.28-9.09,39.28a23.78,23.78,0,0,0,.17,5.69l.3,1.19a60.78,60.78,0,0,0,9.18,19.78l.87,1.25a16.67,16.67,0,0,0,5.18,3.67l19.37,14.63,5,4.66,4,.93c1.84.63,4.77,1.5,6.51,2l1.61.33a73.73,73.73,0,0,0,15,1.54c1.63,0,3.24-.06,4.84-.16l1.61-.11a32.9,32.9,0,0,0,6.46-1.76l33.47-16.36a18.6,18.6,0,0,0,5.32-3.35l1-1.07A62.65,62.65,0,0,0,147,113.22l.56-1.41a32.34,32.34,0,0,0,1.06-6.21Z" transform="translate(-9.39)"/></g></g><g class="cls-10"><g class="cls-31"><path class="cls-12" d="M148.18,91.55c-.17-1.81-.34-4-.37-4.82a59.87,59.87,0,0,0-.64-6.15S142.11,54.8,131,45.51q-1.85-1.57-3.74-3C114,32.64,89.81,29,89.81,29a2.82,2.82,0,0,0-3.46,2.76l.07,4.37A4.24,4.24,0,0,0,90,40l15.2,1a19.68,19.68,0,0,1,6.28,1.31l1.31.7a56,56,0,0,1,26.23,29l.55,1.4a24.55,24.55,0,0,1,.88,6.2l-3.32,31.37a21.24,21.24,0,0,1-1.73,5.8l-.75,1.21a56.56,56.56,0,0,1-14.89,15.92l-1.21.88a22.53,22.53,0,0,1-6,2.32l-33.84,7.14a21.24,21.24,0,0,1-6.49.36l-1.5-.31a62,62,0,0,1-8.76-2.44l-1.41-.5a22.66,22.66,0,0,1-5.29-3.48L29.75,111.68a19.6,19.6,0,0,1-3.33-5.36L26,104.86c-.46-1.54-.83-3.09-1.13-4.64l-.3-1.55a16.51,16.51,0,0,1,.7-6.23l9.51-31.77a20.15,20.15,0,0,1,2-4.16c.46-.57,1.72-2,1.7-2s-.85-.75-1.81-1.64a3.22,3.22,0,0,0-3.93,0c-1.18.88-6.66,4-7.44,5.22l-.59,1.18c-6.55,13-9.09,39.28-9.09,39.28a23.78,23.78,0,0,0,.17,5.69l.3,1.19a60.78,60.78,0,0,0,9.18,19.78l.87,1.25a16.67,16.67,0,0,0,5.18,3.67l19.37,14.63,5,4.66,4,.93c1.84.63,4.77,1.5,6.51,2l1.61.33a73.73,73.73,0,0,0,15,1.54c1.63,0,3.24-.06,4.84-.16l1.61-.11a32.9,32.9,0,0,0,6.46-1.76l33.47-16.36a18.6,18.6,0,0,0,5.32-3.35l1-1.07A62.65,62.65,0,0,0,147,113.22l.56-1.41a32.34,32.34,0,0,0,1.06-6.21Z" transform="translate(-9.39)"/></g></g><g class="cls-32"><rect class="cls-33" x="51.58" y="129.41" width="14.39" height="13.33"/></g><g class="cls-34"><rect class="cls-35" x="78.77" y="41.86" width="11.89" height="11.01"/></g><g class="cls-36"><rect class="cls-37" x="77.09" y="99.25" width="14.67" height="7.21"/></g><g class="cls-38"><rect class="cls-39" x="87.82" y="55.01" width="18.67" height="13.65"/></g><g class="cls-40"><rect class="cls-41" x="22.14" y="112.3" width="14.74" height="7.77"/></g><g class="cls-42"><rect class="cls-43" x="99.23" y="58.58" width="25.38" height="17.75"/></g><g class="cls-10"><g class="cls-44"><path class="cls-45" d="M113.41,72.56c-.55-.89-1.26-2.78-.82-4,1.14-5.66,6.85-9.17,14-7.49a8,8,0,0,1,3.92,2.67c.55.88-.73,2-2.08,1.7-6.13-1.26-10.76,1.13-12.76,6.56-.44,1.19-1.72,1.41-2.27.53" transform="translate(-9.39)"/></g></g><g class="cls-10"><g class="cls-44"><path class="cls-45" d="M113.41,72.56c-.55-.89-1.26-2.78-.82-4,1.14-5.66,6.85-9.17,14-7.49a8,8,0,0,1,3.92,2.67c.55.88-.73,2-2.08,1.7-6.13-1.26-10.76,1.13-12.76,6.56-.44,1.19-1.72,1.41-2.27.53" transform="translate(-9.39)"/></g></g><path class="cls-46" d="M120.15,65.26c.33-2.62-1.33-2.14-1.33-2.14s-1.28,1.09,1.33,2.14" transform="translate(-9.39)"/><path class="cls-46" d="M118.37,66.15c-.54-2.59-2-1.67-2-1.67s-.86,1.4,2,1.67" transform="translate(-9.39)"/><path class="cls-46" d="M116.51,67.92c.13-2.63-1.49-2-1.49-2s-1.2,1.17,1.49,2" transform="translate(-9.39)"/><path class="cls-46" d="M115.62,69.36c-1-2-1.93-1-1.93-1s-.43,1.29,1.93,1" transform="translate(-9.39)"/><path class="cls-46" d="M114.87,71.88c-.1-1.83-1.18-1.31-1.18-1.31s-.74.88,1.18,1.31" transform="translate(-9.39)"/><path class="cls-46" d="M121.88,64.27c-2.15-1.73-.58-2.41-.58-2.41s1.74,0,.58,2.41" transform="translate(-9.39)"/><path class="cls-46" d="M124.7,64c-2.52-1.21-1.16-2.21-1.16-2.21s1.69-.38,1.16,2.21" transform="translate(-9.39)"/><path class="cls-46" d="M126.08,64.26c-1.41-1.77,0-2.05,0-2.05s1.41.31,0,2.05" transform="translate(-9.39)"/><path class="cls-46" d="M128.53,64.58c-1.66-1-.64-1.61-.64-1.61s1.2-.15.64,1.61" transform="translate(-9.39)"/><g class="cls-47"><polygon class="cls-48" points="11.58 61.6 39.18 53.17 47.79 77.39 20.19 85.82 11.58 61.6"/></g><g class="cls-10"><g class="cls-49"><path class="cls-45" d="M31.52,63.65a6.44,6.44,0,0,1,3.8-2c6.17-.77,11.55,3.15,12.07,10A7.11,7.11,0,0,1,45.89,76c-.74.77-2.27,0-2.4-1.3-.63-5.79-4.53-9.1-10.72-9.17-1.35,0-2-1.07-1.25-1.83" transform="translate(-9.39)"/></g></g><g class="cls-10"><g class="cls-49"><path class="cls-45" d="M31.52,63.65a6.44,6.44,0,0,1,3.8-2c6.17-.77,11.55,3.15,12.07,10A7.11,7.11,0,0,1,45.89,76c-.74.77-2.27,0-2.4-1.3-.63-5.79-4.53-9.1-10.72-9.17-1.35,0-2-1.07-1.25-1.83" transform="translate(-9.39)"/></g></g><path class="cls-46" d="M41.12,67.3c2.78-.53,1.77-1.84,1.77-1.84s-1.52-.79-1.77,1.84" transform="translate(-9.39)"/><path class="cls-46" d="M39.64,66c2.49-1.29,1.1-2.26,1.1-2.26S39,63.43,39.64,66" transform="translate(-9.39)"/><path class="cls-46" d="M37.24,64.93c2.74-.71,1.63-2,1.63-2s-1.58-.68-1.63,2" transform="translate(-9.39)"/><path class="cls-46" d="M35.49,64.59c1.77-1.47.44-2,.44-2s-1.45,0-.44,2" transform="translate(-9.39)"/><path class="cls-46" d="M32.67,64.73c1.84-.67,1-1.46,1-1.46s-1.14-.36-1,1.46" transform="translate(-9.39)"/><path class="cls-46" d="M42.67,68.5C43.76,66.08,45,67.24,45,67.24s.54,1.54-2.29,1.26" transform="translate(-9.39)"/><path class="cls-46" d="M43.79,70.92c.44-2.6,1.9-1.72,1.9-1.72s.92,1.37-1.9,1.72" transform="translate(-9.39)"/><path class="cls-46" d="M44,72.2c1.37-1.79,2.11-.63,2.11-.63s.13,1.34-2.11.63" transform="translate(-9.39)"/><path class="cls-46" d="M44.43,74.45c.51-1.77,1.45-1.07,1.45-1.07s.53,1-1.45,1.07" transform="translate(-9.39)"/><g class="cls-50"><polygon class="cls-51" points="128.57 128.71 104.17 147.44 84.57 125.53 108.97 106.8 128.57 128.71"/></g><g class="cls-10"><g class="cls-52"><path class="cls-45" d="M125,128a5.87,5.87,0,0,1-2.74,3.08c-5.37,2.76-11.85,1-15-5.15a6.87,6.87,0,0,1-.29-4.44c.38-1,2.09-.74,2.71.39,2.84,5.11,7.71,6.87,13.43,4.86,1.25-.44,2.25.32,1.87,1.26" transform="translate(-9.39)"/></g></g><g class="cls-10"><g class="cls-52"><path class="cls-45" d="M125,128a5.87,5.87,0,0,1-2.74,3.08c-5.37,2.76-11.85,1-15-5.15a6.87,6.87,0,0,1-.29-4.44c.38-1,2.09-.74,2.71.39,2.84,5.11,7.71,6.87,13.43,4.86,1.25-.44,2.25.32,1.87,1.26" transform="translate(-9.39)"/></g></g><path class="cls-46" d="M114.74,127.81c-2.36,1.41-.91,2.29-.91,2.29s1.7.2.91-2.29" transform="translate(-9.39)"/><path class="cls-46" d="M116.6,128.5c-1.79,2-.13,2.44-.13,2.44s1.69-.27.13-2.44" transform="translate(-9.39)"/><path class="cls-46" d="M119.23,128.69c-2.25,1.57-.74,2.34-.74,2.34s1.72.1.74-2.34" transform="translate(-9.39)"/><path class="cls-46" d="M121,128.41c-1,2,.38,2,.38,2s1.33-.51-.38-2" transform="translate(-9.39)"/><path class="cls-46" d="M123.52,127.35c-1.44,1.22-.34,1.67-.34,1.67s1.19-.05.34-1.67" transform="translate(-9.39)"/><path class="cls-46" d="M112.84,127.22c-.06,2.6-1.61,1.92-1.61,1.92s-1.1-1.23,1.61-1.92" transform="translate(-9.39)"/><path class="cls-46" d="M110.88,125.37c.6,2.54-1.09,2.22-1.09,2.22s-1.37-1,1.09-2.22" transform="translate(-9.39)"/><path class="cls-46" d="M110.19,124.25c-.57,2.11-1.7,1.29-1.7,1.29s-.64-1.19,1.7-1.29" transform="translate(-9.39)"/><path class="cls-46" d="M108.9,122.33c.23,1.8-.91,1.47-.91,1.47s-.88-.76.91-1.47" transform="translate(-9.39)"/><g class="cls-53"><polygon class="cls-54" points="69.7 105.78 59.73 128.7 29.05 117.25 39.02 94.32 69.7 105.78"/></g><g class="cls-10"><g class="cls-55"><path class="cls-45" d="M69.13,106.91c.18,1.14.05,3.35-.93,4.4-3.72,5.41-11.17,6.83-17.8,2.33a8.16,8.16,0,0,1-2.85-4.24c-.18-1.14,1.65-1.78,2.91-1,5.76,3.65,11.6,3,16.1-1.85,1-1.06,2.41-.8,2.57.32" transform="translate(-9.39)"/></g></g><g class="cls-10"><g class="cls-55"><path class="cls-45" d="M69.13,106.91c.18,1.14.05,3.35-.93,4.4-3.72,5.41-11.17,6.83-17.8,2.33a8.16,8.16,0,0,1-2.85-4.24c-.18-1.14,1.65-1.78,2.91-1,5.76,3.65,11.6,3,16.1-1.85,1-1.06,2.41-.8,2.57.32" transform="translate(-9.39)"/></g></g><path class="cls-46" d="M58.91,111.84c-1.51,2.58.41,2.72.41,2.72s1.81-.63-.41-2.72" transform="translate(-9.39)"/><path class="cls-46" d="M61.15,111.62c-.61,2.87,1.28,2.47,1.28,2.47S64,113,61.15,111.62" transform="translate(-9.39)"/><path class="cls-46" d="M63.86,110.5c-1.32,2.67.62,2.68.62,2.68s1.76-.75-.62-2.68" transform="translate(-9.39)"/><path class="cls-46" d="M65.42,109.36c.08,2.45,1.54,1.79,1.54,1.79s1-1.16-1.54-1.79" transform="translate(-9.39)"/><path class="cls-46" d="M67.33,107c-.72,1.93.62,1.82.62,1.82s1.16-.63-.62-1.82" transform="translate(-9.39)"/><path class="cls-46" d="M56.69,112.2c1.44,2.6-.49,2.71-.49,2.71s-1.8-.68.49-2.71" transform="translate(-9.39)"/><path class="cls-46" d="M53.67,111.35c2.06,2.22.21,2.72.21,2.72s-1.92-.26-.21-2.72" transform="translate(-9.39)"/><path class="cls-46" d="M52.35,110.58c.66,2.37-.94,2.12-.94,2.12s-1.32-.86.94-2.12" transform="translate(-9.39)"/><path class="cls-46" d="M50,109.32c1.26,1.67-.06,1.9-.06,1.9s-1.3-.3.06-1.9" transform="translate(-9.39)"/><g class="cls-56"><rect class="cls-57" x="79.11" y="119.95" width="14.35" height="15.72"/></g><path class="cls-4" d="M97.93,81.52s-.66-2.25,1.11-2.25,3.54,3.68,1.32,5.33-16.15-7.13-4-16.15,17.15,4,15.16,5.39-5.54.81-4.87-1.23,2.65-.62,2.65-.62-2.82-2.93-4.2-.71c-1.12,1.77,2,3.63,4,4.58s5.54,3,2,5.66-2.21,5.12-6,1.64-5.19-6.68-7.58-4.71c-1.49,1.23.39,3.07.39,3.07" transform="translate(-9.39)"/><path class="cls-4" d="M78.4,114.16s2.07-1.1,2.5.41-2.82,3.9-5,2.4,3.21-15.46,15.07-7.25.18,15.56-1.72,14.2-2.14-4.52.06-4.44,1.24,2.12,1.24,2.12,2.23-3.11-.29-3.76c-2-.53-3.14,2.57-3.6,4.49s-1.65,5.43-5.15,3-5.61-.66-3.05-4.7,5.39-6,2.87-7.58c-1.58-1-3,1.06-3,1.06" transform="translate(-9.39)"/><g class="cls-58"><rect class="cls-59" x="99.08" y="96.98" width="19.08" height="11.74"/></g><g class="cls-60"><rect class="cls-61" x="26.79" y="91.48" width="19.08" height="11.73"/></g><g class="cls-62"><rect class="cls-63" x="116.65" y="88.55" width="14.39" height="13.33"/></g><path class="cls-4" d="M121.46,107.5l6.84,17a9.89,9.89,0,0,1,2.3-1.18c4-1.46,1.47-4.26,0-5.65s-3.72-3.9-2.16-5.21c1.93-1.62,3.57,1.78,3.57,1.78s-1.35-1.83-2.59-.16,1.77,3.18,4,2.42,1.8-13.76-11.93-9" transform="translate(-9.39)"/><path class="cls-4" d="M41.42,118.59l6.12,15.16a9.07,9.07,0,0,1,2.06-1.05c3.6-1.31,1.31-3.81,0-5.06s-3.34-3.48-1.94-4.65c1.73-1.45,3.19,1.58,3.19,1.58s-1.2-1.64-2.31-.14,1.58,2.84,3.59,2.16,1.61-12.31-10.68-8" transform="translate(-9.39)"/><g class="cls-64"><rect class="cls-65" x="27.59" y="73.5" width="10.87" height="10.07"/></g><path class="cls-4" d="M49.37,78.91l7.22,17.87A10.69,10.69,0,0,1,59,95.53c4.25-1.54,1.55-4.49,0-6S55,85.46,56.68,84.09c2-1.72,3.78,1.86,3.78,1.86S59,84,57.72,85.79s1.87,3.35,4.24,2.54,1.89-14.5-12.59-9.42" transform="translate(-9.39)"/><path class="cls-4" d="M72.36,19.63,65.58,34.79a8.9,8.9,0,0,1,2.32.53c3.64,1.34,3.81-2,3.74-3.77s.13-4.71,2-4.69c2.37,0,1.19,3.23,1.19,3.23s.32-2-1.62-1.59-1,3.12,1,3.9,10.37-8.09-1.94-12.77" transform="translate(-9.39)"/><path class="cls-4" d="M46.91,44.07l14.75,9.07a7.48,7.48,0,0,1,1-2c2.11-3.06-1.37-3.85-3.27-4.13s-5-1-4.59-2.76c.5-2.14,3.65-.46,3.65-.46s-2-.67-2,1.17,3.12,1.46,4.33-.21-6.58-11-13.89-.68" transform="translate(-9.39)"/><path class="cls-4" d="M94,42.9,108.7,52a7.55,7.55,0,0,1,1-2c2.11-3.06-1.37-3.85-3.27-4.14s-5-1-4.59-2.75c.5-2.14,3.65-.46,3.65-.46s-2-.67-2,1.17,3.12,1.46,4.33-.21-6.58-11-13.89-.68" transform="translate(-9.39)"/><g class="cls-66"><polygon class="cls-67" points="56.53 47.04 32.46 25.03 56.28 2.68 80.35 24.69 56.53 47.04"/></g><g class="cls-10"><g class="cls-68"><path class="cls-45" d="M66.11,34c-1.21-.29-3.42-1.27-4.1-2.54C58,26.07,59.47,19,66.63,15a9.69,9.69,0,0,1,5.44-.82c1.21.29,1.15,2.13-.18,2.91-6,3.58-7.56,8.93-4.44,14.74.69,1.28-.14,2.42-1.34,2.12" transform="translate(-9.39)"/></g></g><g class="cls-10"><g class="cls-68"><path class="cls-45" d="M66.11,34c-1.21-.29-3.42-1.27-4.1-2.54C58,26.07,59.47,19,66.63,15a9.69,9.69,0,0,1,5.44-.82c1.21.29,1.15,2.13-.18,2.91-6,3.58-7.56,8.93-4.44,14.74.69,1.28-.14,2.42-1.34,2.12" transform="translate(-9.39)"/></g></g><path class="cls-46" d="M65.12,23.13c-2-2.33-2.92-.71-2.92-.71s-.06,1.82,2.92.71" transform="translate(-9.39)"/><path class="cls-46" d="M64.48,25.16c-2.69-1.65-3,.15-3,.15s.53,1.76,3-.15" transform="translate(-9.39)"/><path class="cls-46" d="M64.54,28c-2.19-2.2-3-.51-3-.51s.07,1.82,3,.51" transform="translate(-9.39)"/><path class="cls-46" d="M65.08,29.77c-2.51-.88-2.42.64-2.42.64s.78,1.34,2.42-.64" transform="translate(-9.39)"/><path class="cls-46" d="M66.69,32.34C65,31,64.6,32.17,64.6,32.17s.18,1.26,2.09.17" transform="translate(-9.39)"/><path class="cls-46" d="M65.63,21.05c-3.21.24-2.55-1.48-2.55-1.48s1.38-1.3,2.55,1.48" transform="translate(-9.39)"/><path class="cls-46" d="M67.68,18.77c-3.06.92-2.85-.9-2.85-.9s1-1.56,2.85.9" transform="translate(-9.39)"/><path class="cls-46" d="M69,17.91c-2.66-.35-1.77-1.65-1.77-1.65s1.38-.81,1.77,1.65" transform="translate(-9.39)"/><path class="cls-46" d="M71.2,16.33c-2.2.45-1.92-.8-1.92-.8s.83-1,1.92.8" transform="translate(-9.39)"/><g class="cls-69"><rect class="cls-70" x="87.54" y="88.44" width="21.56" height="21.33"/></g><path class="cls-4" d="M106.63,97.2a1.27,1.27,0,0,1,1.46,1A1.2,1.2,0,0,1,107,99.46a1.27,1.27,0,0,1-1.47-1,1.21,1.21,0,0,1,1.15-1.29" transform="translate(-9.39)"/><path class="cls-4" d="M101.82,94a1.33,1.33,0,0,1,1.74.42A1.14,1.14,0,0,1,103,96a1.32,1.32,0,0,1-1.74-.42,1.14,1.14,0,0,1,.57-1.58" transform="translate(-9.39)"/><path class="cls-4" d="M114.69,96a1.33,1.33,0,0,1,1.74.43,1.15,1.15,0,0,1-.57,1.58,1.34,1.34,0,0,1-1.75-.43,1.15,1.15,0,0,1,.58-1.58" transform="translate(-9.39)"/><path class="cls-4" d="M115.39,101a1.35,1.35,0,0,1,1.75.42,1.15,1.15,0,0,1-.58,1.59,1.32,1.32,0,0,1-1.74-.43,1.14,1.14,0,0,1,.57-1.58" transform="translate(-9.39)"/><path class="cls-4" d="M109.24,103.69a1.34,1.34,0,0,1,1.74.42,1.15,1.15,0,0,1-.58,1.59,1.34,1.34,0,0,1-1.74-.44,1.13,1.13,0,0,1,.58-1.57" transform="translate(-9.39)"/><path class="cls-4" d="M111.09,91.74a1.35,1.35,0,0,1,1.74.43,1.14,1.14,0,0,1-.58,1.58,1.33,1.33,0,0,1-1.74-.42,1.15,1.15,0,0,1,.58-1.59" transform="translate(-9.39)"/><path class="cls-4" d="M105.63,92.32a.9.9,0,0,1,1.18.3.78.78,0,0,1-.38,1.08.92.92,0,0,1-1.2-.29.8.8,0,0,1,.4-1.09" transform="translate(-9.39)"/><path class="cls-4" d="M103.06,104.78a.89.89,0,0,1,1.18.29.77.77,0,0,1-.39,1.08.92.92,0,0,1-1.19-.29.78.78,0,0,1,.4-1.08" transform="translate(-9.39)"/><path class="cls-4" d="M99.11,99.31a.93.93,0,0,1,1.2.3.78.78,0,0,1-.4,1.08.91.91,0,0,1-1.19-.29.8.8,0,0,1,.39-1.09" transform="translate(-9.39)"/><path class="cls-4" d="M112.23,98.89a.9.9,0,0,1,1.19.29.78.78,0,0,1-.39,1.08.91.91,0,0,1-1.19-.29.78.78,0,0,1,.39-1.08" transform="translate(-9.39)"/><path class="cls-4" d="M103.8,100.7A.91.91,0,0,1,105,101a.78.78,0,0,1-.39,1.08.91.91,0,0,1-1.19-.29.77.77,0,0,1,.39-1.08" transform="translate(-9.39)"/><path class="cls-19" d="M110,98.28a1.37,1.37,0,1,1-1.36-1.35A1.36,1.36,0,0,1,110,98.28" transform="translate(-9.39)"/><path class="cls-19" d="M114.46,93.84a1.27,1.27,0,0,1-.76,1.71,1.44,1.44,0,0,1-1.79-.81,1.27,1.27,0,0,1,.76-1.71,1.46,1.46,0,0,1,1.79.81" transform="translate(-9.39)"/><path class="cls-19" d="M110.34,106.64a1.27,1.27,0,0,1-.75,1.71,1.43,1.43,0,0,1-1.79-.8,1.28,1.28,0,0,1,.75-1.72,1.44,1.44,0,0,1,1.79.81" transform="translate(-9.39)"/><path class="cls-19" d="M104.28,106.64a1.28,1.28,0,0,1-.77,1.71,1.43,1.43,0,0,1-1.78-.8,1.28,1.28,0,0,1,.76-1.72,1.45,1.45,0,0,1,1.79.81" transform="translate(-9.39)"/><path class="cls-19" d="M102,100a1.28,1.28,0,0,1-.76,1.71,1.45,1.45,0,0,1-1.79-.81,1.28,1.28,0,0,1,.76-1.71A1.45,1.45,0,0,1,102,100" transform="translate(-9.39)"/><path class="cls-19" d="M115.83,103.59a1.27,1.27,0,0,1-.76,1.71,1.44,1.44,0,0,1-1.78-.81,1.27,1.27,0,0,1,.76-1.71,1.42,1.42,0,0,1,1.78.81" transform="translate(-9.39)"/><path class="cls-19" d="M115.93,98a.88.88,0,0,1-.52,1.17,1,1,0,0,1-1.22-.56.85.85,0,0,1,.51-1.16,1,1,0,0,1,1.23.55" transform="translate(-9.39)"/><path class="cls-19" d="M101.56,93.56a.89.89,0,0,1-.52,1.18,1,1,0,0,1-1.23-.56.88.88,0,0,1,.52-1.17,1,1,0,0,1,1.23.55" transform="translate(-9.39)"/><path class="cls-19" d="M108.58,90.34a.86.86,0,0,1-.52,1.16,1,1,0,0,1-1.22-.55.86.86,0,0,1,.51-1.16,1,1,0,0,1,1.23.55" transform="translate(-9.39)"/><path class="cls-19" d="M107.21,103.73a.87.87,0,0,1-.51,1.17,1,1,0,0,1-1.23-.55.88.88,0,0,1,.52-1.17,1,1,0,0,1,1.22.55" transform="translate(-9.39)"/><path class="cls-19" d="M106.28,94.9a.88.88,0,0,1-.52,1.17,1,1,0,0,1-1.23-.55.88.88,0,0,1,.52-1.17,1,1,0,0,1,1.23.55" transform="translate(-9.39)"/><g class="cls-71"><rect class="cls-72" x="11.04" y="88.35" width="21.56" height="21.33"/></g><path class="cls-4" d="M30.13,97.12a1.25,1.25,0,0,1,1.46,1,1.18,1.18,0,0,1-1.14,1.28,1.26,1.26,0,0,1-1.47-1,1.21,1.21,0,0,1,1.15-1.29" transform="translate(-9.39)"/><path class="cls-4" d="M25.32,93.94a1.32,1.32,0,0,1,1.74.43A1.14,1.14,0,0,1,26.49,96a1.32,1.32,0,0,1-1.74-.43,1.13,1.13,0,0,1,.57-1.58" transform="translate(-9.39)"/><path class="cls-4" d="M38.19,95.86a1.33,1.33,0,0,1,1.74.43,1.14,1.14,0,0,1-.57,1.58,1.35,1.35,0,0,1-1.75-.43,1.14,1.14,0,0,1,.58-1.58" transform="translate(-9.39)"/><path class="cls-4" d="M38.89,100.9a1.35,1.35,0,0,1,1.75.43,1.14,1.14,0,0,1-.58,1.58,1.33,1.33,0,0,1-1.74-.42,1.15,1.15,0,0,1,.57-1.59" transform="translate(-9.39)"/><path class="cls-4" d="M32.74,103.6a1.32,1.32,0,0,1,1.74.43,1.14,1.14,0,0,1-.58,1.58,1.32,1.32,0,0,1-1.74-.43,1.15,1.15,0,0,1,.58-1.58" transform="translate(-9.39)"/><path class="cls-4" d="M34.59,91.66a1.32,1.32,0,0,1,1.74.43,1.15,1.15,0,0,1-.58,1.58A1.34,1.34,0,0,1,34,93.24a1.14,1.14,0,0,1,.58-1.58" transform="translate(-9.39)"/><path class="cls-4" d="M29.13,92.23a.92.92,0,0,1,1.19.3.77.77,0,0,1-.39,1.08.91.91,0,0,1-1.19-.29.8.8,0,0,1,.39-1.09" transform="translate(-9.39)"/><path class="cls-4" d="M26.56,104.69a.89.89,0,0,1,1.18.29.77.77,0,0,1-.38,1.08.92.92,0,0,1-1.2-.29.79.79,0,0,1,.4-1.08" transform="translate(-9.39)"/><path class="cls-4" d="M22.61,99.23a.93.93,0,0,1,1.2.29.78.78,0,0,1-.4,1.08.88.88,0,0,1-1.18-.28.78.78,0,0,1,.38-1.09" transform="translate(-9.39)"/><path class="cls-4" d="M35.74,98.8a.89.89,0,0,1,1.18.29.77.77,0,0,1-.39,1.08.91.91,0,0,1-1.19-.29.78.78,0,0,1,.4-1.08" transform="translate(-9.39)"/><path class="cls-4" d="M27.3,100.61a.92.92,0,0,1,1.19.3A.78.78,0,0,1,28.1,102a.92.92,0,0,1-1.19-.3.78.78,0,0,1,.39-1.08" transform="translate(-9.39)"/><path class="cls-19" d="M33.51,98.19a1.37,1.37,0,1,1-1.36-1.35,1.35,1.35,0,0,1,1.36,1.35" transform="translate(-9.39)"/><path class="cls-19" d="M38,93.76a1.27,1.27,0,0,1-.76,1.71,1.44,1.44,0,0,1-1.79-.81A1.28,1.28,0,0,1,36.17,93a1.43,1.43,0,0,1,1.79.81" transform="translate(-9.39)"/><path class="cls-19" d="M33.84,106.55a1.26,1.26,0,0,1-.75,1.71,1.43,1.43,0,0,1-1.79-.8,1.27,1.27,0,0,1,.75-1.71,1.42,1.42,0,0,1,1.79.8" transform="translate(-9.39)"/><path class="cls-19" d="M27.78,106.55a1.28,1.28,0,0,1-.76,1.71,1.43,1.43,0,0,1-1.79-.8,1.27,1.27,0,0,1,.76-1.71,1.43,1.43,0,0,1,1.79.8" transform="translate(-9.39)"/><path class="cls-19" d="M25.46,99.92a1.26,1.26,0,0,1-.76,1.7,1.44,1.44,0,0,1-1.79-.81,1.28,1.28,0,0,1,.76-1.71,1.44,1.44,0,0,1,1.79.82" transform="translate(-9.39)"/><path class="cls-19" d="M39.33,103.5a1.27,1.27,0,0,1-.75,1.71,1.44,1.44,0,0,1-1.79-.81,1.27,1.27,0,0,1,.76-1.71,1.44,1.44,0,0,1,1.78.81" transform="translate(-9.39)"/><path class="cls-19" d="M39.43,97.87A.88.88,0,0,1,38.91,99a1,1,0,0,1-1.22-.56.86.86,0,0,1,.52-1.16,1,1,0,0,1,1.22.55" transform="translate(-9.39)"/><path class="cls-19" d="M25.06,93.47a.89.89,0,0,1-.52,1.18,1,1,0,0,1-1.23-.56.87.87,0,0,1,.53-1.16,1,1,0,0,1,1.22.54" transform="translate(-9.39)"/><path class="cls-19" d="M32.08,90.25a.88.88,0,0,1-.52,1.17,1,1,0,0,1-1.22-.55.87.87,0,0,1,.52-1.17,1,1,0,0,1,1.22.55" transform="translate(-9.39)"/><path class="cls-19" d="M30.71,103.65a.86.86,0,0,1-.51,1.16,1,1,0,0,1-1.23-.55.88.88,0,0,1,.52-1.17,1,1,0,0,1,1.22.56" transform="translate(-9.39)"/><path class="cls-19" d="M29.78,94.82A.88.88,0,0,1,29.26,96,1,1,0,0,1,28,95.43a.86.86,0,0,1,.52-1.17,1,1,0,0,1,1.22.56" transform="translate(-9.39)"/><g class="cls-73"><polygon class="cls-74" points="63.27 133.75 83.49 133.23 83.84 144.81 63.61 145.33 63.27 133.75"/></g><path class="cls-4" d="M84.54,142.19a1,1,0,0,0,.19-.78,1.09,1.09,0,0,0-1.22-.89,1,1,0,0,0-.87,1.2,1.11,1.11,0,0,0,.3.54,1.26,1.26,0,0,1,.81-.3,1.33,1.33,0,0,1,.79.23" transform="translate(-9.39)"/><path class="cls-4" d="M87,137.07a1.1,1.1,0,0,0-.92,0,1,1,0,0,0-.36,1.4,1.14,1.14,0,0,0,1.48.42,1,1,0,0,0,.36-1.39,1,1,0,0,0-.19-.21.77.77,0,0,1-.37-.24" transform="translate(-9.39)"/><path class="cls-4" d="M78.79,143.63a1.14,1.14,0,0,0-1.48-.42,1,1,0,0,0-.35,1.4.1.1,0,0,0,.05,0l1.82,0a1,1,0,0,0,0-1" transform="translate(-9.39)"/><path class="cls-4" d="M88.55,144.36l.71,0a1.08,1.08,0,0,0-.71,0" transform="translate(-9.39)"/><path class="cls-4" d="M88,141.16a.78.78,0,0,0,1,.29.66.66,0,0,0,.25-.95.78.78,0,0,0-1-.29.67.67,0,0,0-.25.95" transform="translate(-9.39)"/><path class="cls-4" d="M76.41,139.44a.77.77,0,0,0,1,.26.66.66,0,0,0,.25-.95.78.78,0,0,0-1-.3,1,1,0,0,1-.26,1" transform="translate(-9.39)"/><path class="cls-4" d="M82.61,136.16a.65.65,0,0,0,0-.67.77.77,0,0,0-1-.28.61.61,0,0,0-.33.53,1.24,1.24,0,0,1,1.36.42" transform="translate(-9.39)"/><path class="cls-4" d="M81.43,139.25a.78.78,0,0,0-1-.29.66.66,0,0,0-.25.95.8.8,0,0,0,1,.29.67.67,0,0,0,.24-.95" transform="translate(-9.39)"/><path class="cls-19" d="M82.53,143.07a1.19,1.19,0,0,0,1.29,1.05A1.16,1.16,0,0,0,85,143a1.06,1.06,0,0,0-.49-.82,1,1,0,0,1-.67.4,1.06,1.06,0,0,1-.93-.33,1,1,0,0,0-.41.81" transform="translate(-9.39)"/><path class="cls-19" d="M83.87,142.59a1,1,0,0,0,.67-.4,1.33,1.33,0,0,0-.79-.23,1.26,1.26,0,0,0-.81.3,1.08,1.08,0,0,0,.93.33" transform="translate(-9.39)"/><path class="cls-19" d="M76.08,144.58a1.1,1.1,0,0,0,.71-1.44,1.26,1.26,0,0,0-1.6-.56,1.11,1.11,0,0,0-.71,1.45,1.26,1.26,0,0,0,1.6.55" transform="translate(-9.39)"/><path class="cls-19" d="M76.41,139.44l0,0a.66.66,0,0,1,.25-.95l0,0s0-.09,0-.13a1.27,1.27,0,0,0-1.61-.56,1.1,1.1,0,0,0-.7,1.44,1.25,1.25,0,0,0,1.6.56,1.19,1.19,0,0,0,.47-.32" transform="translate(-9.39)"/><path class="cls-19" d="M76.39,139.42s0,0,0,0a1,1,0,0,0,.26-1l0,0a.65.65,0,0,0-.24.95" transform="translate(-9.39)"/><path class="cls-19" d="M82,137.76a1.09,1.09,0,0,0,.71-1.44,1.67,1.67,0,0,0-.12-.16.66.66,0,0,1-.27.28.77.77,0,0,1-1-.28.63.63,0,0,1-.09-.42l-.11,0a1.11,1.11,0,0,0-.71,1.45,1.24,1.24,0,0,0,1.6.55" transform="translate(-9.39)"/><path class="cls-19" d="M81.34,136.16a.77.77,0,0,0,1,.28.7.7,0,0,0,.27-.27,1.25,1.25,0,0,0-1.37-.43.7.7,0,0,0,.09.42" transform="translate(-9.39)"/><path class="cls-19" d="M86.88,136.91a1,1,0,0,0,.12.16,1.31,1.31,0,0,1,.37.24.92.92,0,0,0,.61,0,.74.74,0,0,0,.48-1,.86.86,0,0,0-1.09-.39.76.76,0,0,0-.49,1" transform="translate(-9.39)"/><path class="cls-19" d="M87,137.07a.77.77,0,0,0,.37.24,1.31,1.31,0,0,0-.37-.24" transform="translate(-9.39)"/><path class="cls-19" d="M90,142.41a.85.85,0,0,0,1.09.38.74.74,0,0,0,.49-1,.87.87,0,0,0-1.1-.39.76.76,0,0,0-.48,1" transform="translate(-9.39)"/><path class="cls-19" d="M79.19,141.05a.85.85,0,0,0-1.09-.39.75.75,0,0,0-.49,1,.86.86,0,0,0,1.09.38.75.75,0,0,0,.49-1" transform="translate(-9.39)"/><path class="cls-19" d="M86.85,141.07a.75.75,0,0,0,.48-1,.85.85,0,0,0-1.09-.38.76.76,0,0,0-.49,1,.86.86,0,0,0,1.1.38" transform="translate(-9.39)"/><g class="cls-75"><rect class="cls-76" x="46.3" y="119.14" width="17.3" height="15.38"/></g><g class="cls-77"><rect class="cls-78" x="55.98" y="91.6" width="16.82" height="14.76"/></g><g class="cls-79"><polygon class="cls-80" points="108.09 77.86 123.86 61.34 141.73 75.98 125.96 92.5 108.09 77.86"/></g><text class="cls-81" transform="translate(167.88 124.67)">Odisea </text><text class="cls-82" transform="translate(170.31 85.64)"><tspan class="cls-83">F</tspan><tspan x="24.74" y="0">ourniture Store </tspan></text></g></g></g></svg>